<svg width="25" height="24" viewBox="0 0 25 24" fill="none" xmlns="http://www.w3.org/2000/svg">
<path d="M21.4918 3H3.50002C2.96892 3 2.45958 3.21098 2.08403 3.58652C1.70849 3.96206 1.49752 4.4714 1.49752 5.0025V7.99875H3.50002V5.0025H21.4918V18.9975H14.4988V21H21.5C22.0311 21 22.5405 20.789 22.916 20.4135C23.2915 20.0379 23.5025 19.5286 23.5025 18.9975V5.0025C23.5025 4.4714 23.2915 3.96206 22.916 3.58652C22.5405 3.21098 22.0311 3 21.5 3H21.4918ZM1.49752 17.9805V20.9767H4.49302C4.49302 20.5833 4.41552 20.1937 4.26494 19.8301C4.11436 19.4666 3.89366 19.1363 3.61543 18.8581C3.33721 18.5799 3.0069 18.3592 2.64338 18.2086C2.27986 18.058 1.89024 17.9805 1.49677 17.9805H1.49752ZM1.49752 13.983V15.9847C2.15405 15.9847 2.80417 16.1139 3.41074 16.3651C4.01731 16.6164 4.56844 16.9846 5.03265 17.4489C5.49686 17.9132 5.86504 18.4644 6.11617 19.071C6.36731 19.6776 6.49646 20.3277 6.49627 20.9842V21H8.49877C8.50327 17.1383 5.37652 14.004 1.51402 13.9988H1.49827L1.49752 13.983ZM1.49752 9.9855V11.988C6.46627 11.9835 10.4975 16.0072 10.5013 20.976V20.9993H12.5038C12.482 14.931 7.56577 10.0177 1.49752 10.0005V9.9855Z" fill="white"/>
</svg>
