<svg width="149" height="149" viewBox="0 0 149 149" fill="none" xmlns="http://www.w3.org/2000/svg">
<path fill-rule="evenodd" clip-rule="evenodd" d="M131.757 33.1246L23.1518 123.977L21.8685 122.443L130.474 31.5906L131.757 33.1246Z" fill="black"/>
<path fill-rule="evenodd" clip-rule="evenodd" d="M56.0801 42.3535C68.0578 28.4458 84.0203 23.8797 97.5061 27.6223C104.473 29.5556 110.838 33.7232 115.688 40.0485L117.223 38.7642C112.136 32.156 105.441 27.7486 98.041 25.6951C83.72 21.7208 66.9846 26.6271 54.5646 41.0484C53.7326 42.0146 52.3133 42.3867 50.9778 42.0191C46.6328 40.823 41.0552 40.7783 36.0904 42.9978C31.0788 45.2382 26.778 49.7502 25.0189 57.4701C24.8028 58.4185 24.1561 59.2374 23.2965 59.6428C14.7559 63.6697 9.29172 68.9391 6.31118 74.68C3.32998 80.4221 2.87445 86.5585 4.21953 92.2367C6.80359 103.145 16.0703 112.474 27.0385 114.207L29.2395 112.366L28.3781 112.369C17.8625 111.219 8.66583 102.33 6.16567 91.7757C4.92037 86.5187 5.34643 80.8786 8.08621 75.6015C10.8266 70.3231 15.9228 65.3307 24.1494 61.4518C25.585 60.7749 26.6212 59.4402 26.9689 57.9145C28.5927 50.7885 32.4868 46.7995 36.9066 44.8237C41.3731 42.827 46.4633 42.8507 50.447 43.9473C52.4187 44.4901 54.6738 43.9864 56.0801 42.3535ZM33.9347 112.349L31.5338 114.358L34.664 114.347L37.0649 112.338L33.9347 112.349ZM41.7601 112.322L125.2 112.029C125.493 112.028 125.796 111.975 126.067 111.878C133.148 109.332 137.711 105.674 140.38 101.59C143.048 97.5073 143.876 92.9197 143.35 88.4145C142.29 79.3437 135.757 70.7344 127.971 67.602C126.202 66.8904 124.796 65.2896 124.559 63.3029C123.814 57.0763 122.201 51.6147 119.923 46.9353L121.5 45.6159C123.996 50.6025 125.751 56.4315 126.545 63.0655C126.685 64.2358 127.536 65.2715 128.717 65.7465C137.218 69.1663 144.196 78.4223 145.337 88.1824C145.91 93.0926 145.01 98.1618 142.054 102.684C139.1 107.205 134.144 111.099 126.744 113.76C126.254 113.936 125.723 114.027 125.207 114.029L39.3592 114.33L41.7601 112.322ZM120.037 42.9288L118.482 44.2293C118.141 43.641 117.788 43.0669 117.424 42.5071L118.968 41.2155C119.335 41.7733 119.691 42.3444 120.037 42.9288Z" fill="black"/>
</svg>
