<svg width="149" height="149" viewBox="0 0 149 149" fill="none" xmlns="http://www.w3.org/2000/svg">
<path fill-rule="evenodd" clip-rule="evenodd" d="M131.757 33.2564L23.1519 124.109L21.8687 122.575L130.474 31.7224L131.757 33.2564Z" fill="black"/>
<path fill-rule="evenodd" clip-rule="evenodd" d="M56.0801 42.4854C68.0578 28.5776 84.0203 24.0115 97.5061 27.7541C104.473 29.6874 110.838 33.855 115.688 40.1803L117.223 38.8961C112.136 32.2878 105.441 27.8805 98.041 25.8269C83.72 21.8526 66.9846 26.7589 54.5646 41.1802C53.7326 42.1464 52.3133 42.5185 50.9778 42.1509C46.6328 40.9548 41.0552 40.9101 36.0904 43.1297C31.0788 45.3701 26.778 49.882 25.0189 57.602C24.8028 58.5503 24.1561 59.3693 23.2965 59.7746C14.7559 63.8016 9.29172 69.0709 6.31118 74.8118C3.32998 80.5539 2.87445 86.6904 4.21953 92.3685C6.80359 103.277 16.0703 112.606 27.0385 114.339L29.2395 112.497L28.3781 112.5C17.8625 111.351 8.66583 102.462 6.16567 91.9075C4.92037 86.6505 5.34643 81.0105 8.08621 75.7334C10.8266 70.455 15.9228 65.4625 24.1494 61.5836C25.585 60.9067 26.6212 59.572 26.9689 58.0463C28.5927 50.9203 32.4868 46.9314 36.9066 44.9555C41.3731 42.9588 46.4633 42.9826 50.447 44.0792C52.4187 44.6219 54.6738 44.1183 56.0801 42.4854ZM33.9347 112.481L31.5338 114.489L34.664 114.478L37.0649 112.47L33.9347 112.481ZM41.7601 112.454L125.2 112.161C125.493 112.16 125.796 112.107 126.067 112.01C133.148 109.464 137.711 105.806 140.38 101.722C143.048 97.6391 143.876 93.0515 143.35 88.5463C142.29 79.4756 135.757 70.8663 127.971 67.7339C126.202 67.0223 124.796 65.4215 124.559 63.4348C123.814 57.2081 122.201 51.7465 119.923 47.0672L121.5 45.7477C123.996 50.7343 125.751 56.5633 126.545 63.1973C126.685 64.3676 127.536 65.4033 128.717 65.8784C137.218 69.2981 144.196 78.5542 145.337 88.3142C145.91 93.2245 145.01 98.2936 142.054 102.816C139.1 107.336 134.144 111.231 126.744 113.892C126.254 114.068 125.723 114.159 125.207 114.161L39.3592 114.462L41.7601 112.454ZM120.037 43.0607L118.482 44.3611C118.141 43.7728 117.788 43.1987 117.424 42.639L118.968 41.3474C119.335 41.9051 119.691 42.4763 120.037 43.0607Z" fill="black"/>
</svg>
