<svg width="149" height="149" viewBox="0 0 149 149" fill="none" xmlns="http://www.w3.org/2000/svg">
<g clip-path="url(#clip0_14_165)">
<path d="M23.723 60.5466C-9.81133 76.3583 6.30877 111.018 28.326 113.368L125.204 113.029C125.608 113.027 126.025 112.955 126.405 112.818C155.368 102.404 144.631 73.2258 128.344 66.6736C126.869 66.0803 125.74 64.7621 125.552 63.1836C120.718 22.7555 79.7201 13.3713 55.3224 41.7003C54.2032 42.9998 52.366 43.4377 50.7125 42.9826C42.3838 40.6899 29.3768 42.8457 25.994 57.6916C25.7121 58.9287 24.8706 60.0055 23.723 60.5466Z" stroke="black" stroke-width="2"/>
<g clip-path="url(#clip1_14_165)">
<path d="M110.5 55.3735C89.524 55.3735 72.5 72.3975 72.5 93.3735C72.5 114.349 89.524 131.373 110.5 131.373C131.476 131.373 148.5 114.349 148.5 93.3735C148.5 72.3975 131.476 55.3735 110.5 55.3735Z" fill="black"/>
<path d="M116.227 86.1555C116.227 88.3515 115.363 89.8635 113.671 91.3395L112.051 92.7435C109.747 94.7595 109.099 95.2635 109.099 98.0715V100.339H111.367V98.3235C111.367 96.1995 111.835 95.9475 113.275 94.6155L114.823 93.2115C116.947 91.3035 118.711 89.5755 118.711 85.9035C118.711 82.4115 116.263 79.0275 110.719 79.0275C105.715 79.0275 102.115 82.4115 102.295 88.0275H104.635C104.527 83.6715 106.939 81.1515 110.683 81.1515C114.139 81.1515 116.227 83.0955 116.227 86.1555ZM111.943 107.719V104.335H108.559V107.719H111.943Z" fill="white"/>
</g>
</g>
<defs>
<clipPath id="clip0_14_165">
<rect width="148" height="148" fill="white" transform="translate(0.5 0.368164)"/>
</clipPath>
<clipPath id="clip1_14_165">
<rect width="76" height="76" fill="white" transform="translate(72.5 55.3735)"/>
</clipPath>
</defs>
</svg>
