<svg width="65" height="65" viewBox="0 0 65 65" fill="none" xmlns="http://www.w3.org/2000/svg">
<path fill-rule="evenodd" clip-rule="evenodd" d="M3.75098 18.2441V11.0566C3.75098 7.12789 6.94729 3.93164 10.876 3.93164H18.0635C18.9609 3.93164 19.6885 3.20408 19.6885 2.30664C19.6885 1.4092 18.9609 0.681641 18.0635 0.681641H10.876C5.15523 0.681641 0.500977 5.33583 0.500977 11.0566V18.2441C0.500977 19.1416 1.22854 19.8691 2.12598 19.8691C3.02341 19.8691 3.75098 19.1416 3.75098 18.2441ZM18.0635 61.4316C18.9609 61.4316 19.6885 62.1592 19.6885 63.0566C19.6885 63.9541 18.9609 64.6816 18.0635 64.6816H10.876C5.15523 64.6816 0.500977 60.0274 0.500977 54.3066V47.1191C0.500977 46.2217 1.22854 45.4941 2.12598 45.4941C3.02341 45.4941 3.75098 46.2217 3.75098 47.1191V54.3066C3.75098 58.2353 6.94729 61.4316 10.876 61.4316H18.0635ZM64.5009 47.1191V54.3066C64.5009 60.0274 59.8466 64.6816 54.1259 64.6816H46.9384C46.041 64.6816 45.3134 63.9541 45.3134 63.0566C45.3134 62.1592 46.041 61.4316 46.9384 61.4316H54.1259C58.0546 61.4316 61.2509 58.2353 61.2509 54.3066V47.1191C61.2509 46.2217 61.9785 45.4941 62.8759 45.4941C63.7733 45.4941 64.5009 46.2217 64.5009 47.1191ZM64.5009 11.0566V18.2441C64.5009 19.1416 63.7733 19.8691 62.8759 19.8691C61.9785 19.8691 61.2509 19.1416 61.2509 18.2441V11.0566C61.2509 7.12789 58.0546 3.93164 54.1259 3.93164H46.9384C46.041 3.93164 45.3134 3.20408 45.3134 2.30664C45.3134 1.4092 46.041 0.681641 46.9384 0.681641H54.1259C59.8466 0.681641 64.5009 5.33583 64.5009 11.0566ZM43.7153 47.9839C44.3999 47.3516 44.4422 46.2839 43.8098 45.5993C43.1774 44.9147 42.1098 44.8724 41.4252 45.5047C38.9891 47.7549 35.8198 48.9942 32.501 48.9942C29.1821 48.9942 26.0128 47.7549 23.5767 45.5047C22.892 44.8724 21.8245 44.9147 21.1921 45.5993C20.5597 46.2839 20.602 47.3516 21.2866 47.9839C24.3482 50.8118 28.3308 52.3692 32.501 52.3692C36.6711 52.3692 40.6537 50.8118 43.7153 47.9839ZM35.876 24.8066V36.8066C35.876 39.1846 33.9415 41.1191 31.5635 41.1191H30.1885C29.2565 41.1191 28.501 40.3636 28.501 39.4316C28.501 38.4996 29.2565 37.7441 30.1885 37.7441H31.5635C32.0805 37.7441 32.501 37.3236 32.501 36.8066V24.8066C32.501 23.8746 33.2565 23.1191 34.1885 23.1191C35.1205 23.1191 35.876 23.8746 35.876 24.8066ZM47.501 29.5254V24.7129C47.501 23.8327 46.7875 23.1191 45.9073 23.1191C45.0271 23.1191 44.3135 23.8327 44.3135 24.7129V29.5254C44.3135 30.4056 45.0271 31.1191 45.9073 31.1191C46.7875 31.1191 47.501 30.4056 47.501 29.5254ZM17.8759 29.5254C17.8759 30.4056 18.5895 31.1191 19.4697 31.1191C20.3498 31.1191 21.0634 30.4056 21.0634 29.5254V24.7129C21.0634 23.8327 20.3498 23.1191 19.4697 23.1191C18.5895 23.1191 17.8759 23.8327 17.8759 24.7129V29.5254Z" fill="black"/>
</svg>
