<svg width="347" height="234" viewBox="0 0 347 234" fill="none" xmlns="http://www.w3.org/2000/svg">
<mask id="mask0_21_787" style="mask-type:alpha" maskUnits="userSpaceOnUse" x="0" y="0" width="347" height="234">
<rect y="0.666504" width="347" height="233" fill="#C4C4C4"/>
</mask>
<g mask="url(#mask0_21_787)">
<path d="M62.7085 17.833C42.5372 17.833 27.7234 22.6163 17.9585 32.4641C8.19445 42.3111 3.57007 57.1294 3.57007 76.9942V643.964C3.57007 663.829 8.19445 678.647 17.9585 688.494C27.7234 698.342 42.5372 703.125 62.7085 703.125H281.608C301.137 703.125 315.944 697.999 325.866 687.99C335.788 677.981 340.746 663.17 340.746 643.964V76.9942C340.746 57.1294 336.122 42.3111 326.358 32.4641C316.593 22.6163 301.779 17.833 281.608 17.833H62.7085Z" stroke="black"/>
<path fill-rule="evenodd" clip-rule="evenodd" d="M1.68257 195.307C1.13551 195.449 0.479501 195.813 0.129219 196.329C0.0570695 196.436 0 196.773 0 196.87C0 201.756 0 216.639 0 241.517C0 241.621 0.0803272 242.146 0.129511 242.274C0.412969 243.008 0.905482 243.185 1.68257 243.609H2.64403C2.64403 242.272 2.66023 196.614 2.64403 195.307H1.68257Z" stroke="black"/>
<path fill-rule="evenodd" clip-rule="evenodd" d="M1.68257 147.004C0.75331 147.004 0 147.825 0 148.838V171.376C0 172.389 0.75331 173.211 1.68257 173.211H2.64403C2.64403 171.832 2.66023 148.351 2.64403 147.004H1.68257Z" stroke="black"/>
<path fill-rule="evenodd" clip-rule="evenodd" d="M343.318 221.257C344.247 221.257 345 223.712 345 226.742V294.134C345 297.164 344.247 299.62 343.318 299.62H342.356C342.356 295.498 342.34 225.286 342.356 221.257H343.318Z" stroke="black"/>
<path fill-rule="evenodd" clip-rule="evenodd" d="M208.096 49.0914C210.731 49.0914 212.868 46.9539 212.868 44.3172C212.868 41.6805 210.731 39.5431 208.096 39.5431C205.46 39.5431 203.323 41.6805 203.323 44.3172C203.323 46.9539 205.46 49.0914 208.096 49.0914Z" stroke="black"/>
<g opacity="0.801364">
<g filter="url(#filter0_d_21_787)">
<rect x="150.947" y="41.6732" width="41.9151" height="5.45241" rx="2.72621" stroke="black"/>
</g>
<mask id="mask1_21_787" style="mask-type:alpha" maskUnits="userSpaceOnUse" x="150" y="41" width="44" height="7">
<rect x="150.947" y="41.6732" width="41.9151" height="5.45241" rx="2.72621" stroke="white"/>
</mask>
<g mask="url(#mask1_21_787)">
<path opacity="0.05" d="M125.612 37.4946L140.613 52.5016M128.39 37.4946L143.391 52.5016M131.168 37.4946L146.169 52.5016M133.946 37.4946L148.947 52.5016M136.724 37.4946L151.725 52.5016M154.503 52.5016L139.502 37.4946L124.501 52.5016M157.281 52.5016L142.28 37.4946L127.279 52.5016M160.059 52.5016L145.058 37.4946L130.057 52.5016M162.837 52.5016L147.836 37.4946L132.835 52.5016M165.615 52.5016L150.614 37.4946L135.613 52.5016M168.393 52.5016L153.392 37.4946L138.391 52.5016M171.171 52.5016L156.17 37.4946L141.169 52.5016M173.949 52.5016L158.948 37.4946L143.947 52.5016M176.727 52.5016L161.726 37.4946L146.725 52.5016M179.505 52.5016L164.504 37.4946L149.503 52.5016M182.283 52.5016L167.282 37.4946L152.281 52.5016M185.061 52.5016L170.06 37.4946L155.059 52.5016M187.839 52.5016L172.838 37.4946L157.837 52.5016M190.617 52.5016L175.616 37.4946L160.615 52.5016M193.395 52.5016L178.394 37.4946L163.393 52.5016M196.173 52.5016L181.172 37.4946L166.171 52.5016M198.951 52.5016L183.95 37.4946L168.949 52.5016M201.729 52.5016L186.728 37.4946L171.727 52.5016M200.618 37.4946L185.617 52.5016M197.84 37.4946L182.839 52.5016M195.062 37.4946L180.061 52.5016M192.284 37.4946L177.283 52.5016M189.506 37.4946L174.505 52.5016" stroke="black"/>
</g>
</g>
<path d="M148.252 90.981H149.772V89.429H148.252V90.981ZM148.284 101.333H149.74V92.901H148.284V101.333ZM157.968 90.117C159.936 90.117 160.896 91.493 161.104 92.741H162.672C162.4 90.005 160.048 88.901 157.968 88.901C154.784 88.901 152.496 91.253 152.496 95.237C152.496 99.509 154.752 101.573 157.936 101.573C160.704 101.573 162.48 99.813 162.672 97.509H161.152C160.992 98.901 160.096 100.357 157.936 100.357C155.488 100.357 154.08 98.405 154.08 95.237C154.08 92.181 155.456 90.117 157.968 90.117ZM165.213 101.333H166.653V88.725H165.213V101.333ZM172.819 101.541C175.187 101.541 176.611 99.749 176.611 97.109C176.611 94.501 175.363 92.693 172.851 92.693C170.499 92.693 169.059 94.501 169.059 97.109C169.059 99.749 170.339 101.541 172.819 101.541ZM172.835 93.797C174.451 93.797 175.123 95.061 175.123 97.109C175.123 99.173 174.435 100.421 172.867 100.421C171.235 100.421 170.547 99.173 170.547 97.109C170.547 95.061 171.299 93.797 172.835 93.797ZM180.441 92.901H179.017V98.773C179.017 100.757 180.105 101.541 181.721 101.541C183.065 101.541 183.993 100.757 184.377 99.893H184.409V101.333H185.785V92.901H184.345V97.461C184.345 99.317 183.609 100.357 182.041 100.357C181.481 100.357 181.033 100.181 180.745 99.797C180.441 99.397 180.441 98.693 180.441 98.085V92.901ZM194.303 97.685C194.303 99.221 193.391 100.405 191.903 100.405C190.223 100.405 189.663 99.013 189.663 97.109C189.663 95.125 190.399 93.845 192.015 93.845C193.359 93.845 194.303 94.997 194.303 96.789V97.685ZM195.711 88.725H194.271V94.181H194.239C193.903 93.397 193.087 92.693 191.823 92.693C189.695 92.693 188.191 94.277 188.191 97.173C188.191 100.421 189.839 101.541 191.631 101.541C192.927 101.541 193.839 100.773 194.287 99.941H194.335V101.333H195.711V88.725Z" fill="black"/>
<path d="M66.152 184.317L67.944 182.349L72.216 188.333H74.008L68.968 181.229L73.672 176.093H71.88L66.152 182.381V176.093H64.664V188.333H66.152V184.317ZM80.9856 183.373H76.6656C76.8416 181.837 77.5776 180.781 78.9216 180.781C80.3936 180.781 80.9536 181.869 80.9856 183.277V183.373ZM82.3456 186.125H80.9536C80.8096 186.621 80.4416 187.437 79.0336 187.437C77.4496 187.437 76.7456 186.253 76.6496 184.509H82.4576V183.773C82.4576 181.645 81.4656 179.693 78.9376 179.693C76.5216 179.693 75.1776 181.661 75.1776 184.157C75.1776 186.669 76.4096 188.541 78.9856 188.541C80.7936 188.541 82.0416 187.581 82.3456 186.125ZM86.8564 188.333L86.6964 188.781C86.3284 189.917 85.9764 190.317 84.9044 190.317C84.7604 190.317 84.4404 190.301 84.1684 190.237V191.421C84.3924 191.469 84.7124 191.517 85.0324 191.517C86.8564 191.517 87.4164 190.797 88.0884 188.861L91.1604 179.901H89.7204L87.9924 185.165C87.7204 185.981 87.5764 186.493 87.5764 186.493H87.5284C87.5284 186.493 87.3844 185.981 87.1124 185.181L85.3524 179.901H83.9124L86.8564 188.333ZM99.5707 182.445C99.4267 180.461 97.9067 179.693 96.2267 179.693C93.8587 179.693 92.4507 181.581 92.4507 184.157C92.4507 186.829 93.7627 188.525 96.1947 188.525C98.0187 188.525 99.4107 187.533 99.6188 185.581H98.2747C98.2267 186.221 97.8108 187.405 96.2107 187.405C94.5147 187.405 93.9227 186.045 93.9227 184.093C93.9227 182.125 94.7227 180.797 96.2427 180.797C97.4587 180.797 98.0668 181.581 98.1627 182.445H99.5707ZM107.223 188.333H108.663V182.461C108.663 180.461 107.591 179.693 105.975 179.693C104.599 179.693 103.703 180.477 103.335 181.293H103.303V175.725H101.863V188.333H103.303V183.277C103.303 181.901 104.023 180.893 105.591 180.893C106.151 180.893 106.631 181.053 106.919 181.453C107.223 181.853 107.223 182.509 107.223 183.117V188.333ZM113.933 187.309C113.021 187.309 112.461 186.845 112.461 185.981C112.461 185.533 112.605 185.181 112.925 184.941C113.469 184.541 114.509 184.397 116.333 184.317V184.509C116.333 186.589 115.005 187.309 113.933 187.309ZM112.813 182.205C112.861 181.485 113.325 180.765 114.573 180.765C115.757 180.765 116.333 181.357 116.333 182.877V183.245C114.445 183.309 113.133 183.469 112.253 183.933C111.389 184.365 110.989 185.133 110.989 186.061C110.989 187.565 111.981 188.477 113.661 188.477C114.909 188.477 115.917 187.901 116.365 186.909H116.397C116.541 187.917 116.989 188.397 118.333 188.397H118.509V187.229C117.885 187.213 117.741 186.941 117.741 186.269V182.829C117.741 180.573 116.717 179.693 114.621 179.693C112.605 179.693 111.469 180.717 111.437 182.205H112.813ZM120.729 177.981H122.249V176.429H120.729V177.981ZM120.761 188.333H122.217V179.901H120.761V188.333ZM130.75 188.333H132.19V182.461C132.19 180.461 131.118 179.693 129.502 179.693C128.158 179.693 127.182 180.461 126.782 181.325H126.75V179.901H125.39V188.333H126.83V183.277C126.83 181.901 127.55 180.893 129.118 180.893C129.678 180.893 130.158 181.053 130.446 181.453C130.75 181.853 130.75 182.525 130.75 183.133V188.333Z" fill="black"/>
<path d="M277.022 182.253C277.022 186.621 279.486 188.589 282.494 188.589C285.486 188.589 288.014 186.621 288.014 182.253C288.014 177.869 285.47 175.917 282.494 175.917C279.582 175.917 277.022 177.869 277.022 182.253ZM282.494 187.389C280.158 187.389 278.59 185.613 278.59 182.269C278.59 178.813 280.206 177.101 282.494 177.101C284.846 177.101 286.446 178.909 286.446 182.269C286.446 185.565 284.798 187.389 282.494 187.389ZM296.13 188.333H297.57V182.461C297.57 180.461 296.498 179.693 294.882 179.693C293.538 179.693 292.562 180.461 292.162 181.325H292.13V179.901H290.77V188.333H292.21V183.277C292.21 181.901 292.93 180.893 294.498 180.893C295.058 180.893 295.538 181.053 295.826 181.453C296.13 181.853 296.13 182.525 296.13 183.133V188.333Z" fill="black"/>
<rect x="28.5" y="169.833" width="25" height="25" rx="5.5" stroke="black"/>
<circle cx="40.5" cy="178.833" r="5.5" fill="black"/>
<path d="M39.5 190.833V183.833H41.5L44 186.333L42.5 187.833L44 189.333L41 192.333L39.5 190.833Z" fill="black"/>
<circle cx="40.5" cy="177.833" r="1.5" fill="white"/>
<path d="M308.75 186.833L313.25 182.333L308.75 177.833" stroke="black" stroke-width="1.2" stroke-linecap="square" stroke-linejoin="round"/>
</g>
<defs>
<filter id="filter0_d_21_787" x="149.114" y="41.1732" width="45.5817" height="9.11906" filterUnits="userSpaceOnUse" color-interpolation-filters="sRGB">
<feFlood flood-opacity="0" result="BackgroundImageFix"/>
<feColorMatrix in="SourceAlpha" type="matrix" values="0 0 0 0 0 0 0 0 0 0 0 0 0 0 0 0 0 0 127 0" result="hardAlpha"/>
<feOffset dy="1.33333"/>
<feGaussianBlur stdDeviation="0.666667"/>
<feColorMatrix type="matrix" values="0 0 0 0 1 0 0 0 0 1 0 0 0 0 1 0 0 0 0.217589 0"/>
<feBlend mode="normal" in2="BackgroundImageFix" result="effect1_dropShadow_21_787"/>
<feBlend mode="normal" in="SourceGraphic" in2="effect1_dropShadow_21_787" result="shape"/>
</filter>
</defs>
</svg>
