<svg width="24" height="17" viewBox="0 0 24 17" fill="none" xmlns="http://www.w3.org/2000/svg">
<path fill-rule="evenodd" clip-rule="evenodd" d="M21.2849 1.81188L3.67319 16.5447L3.46509 16.296L21.0768 1.56312L21.2849 1.81188Z" fill="black"/>
<path fill-rule="evenodd" clip-rule="evenodd" d="M3.28906 16.2803L21.0925 1.38702L21.461 1.82754L3.65757 16.7208L3.28906 16.2803ZM3.64122 16.3116L3.68891 16.3686L21.1088 1.79619L21.0611 1.73918L3.64122 16.3116Z" fill="black"/>
<path fill-rule="evenodd" clip-rule="evenodd" d="M3.11304 16.2646L21.1082 1.21093L21.6371 1.84319L3.64195 16.8969L3.11304 16.2646Z" fill="black"/>
<path fill-rule="evenodd" clip-rule="evenodd" d="M9.01307 3.30845C10.9554 1.05314 13.5439 0.312696 15.7308 0.919599C16.8605 1.23311 17.8927 1.90894 18.6791 2.93466L18.9281 2.72641C18.1032 1.6548 17.0175 0.940088 15.8175 0.607085C13.4952 -0.0373986 10.7814 0.758221 8.76733 3.09681C8.63239 3.25349 8.40224 3.31383 8.18568 3.25422C7.48108 3.06026 6.57661 3.05301 5.77149 3.41293C4.95881 3.77624 4.26138 4.5079 3.97612 5.75979C3.94108 5.91358 3.83621 6.04638 3.69681 6.11211C2.31185 6.76513 1.42577 7.61963 0.942439 8.55058C0.459001 9.48173 0.385132 10.4768 0.603253 11.3976C1.02229 13.1666 2.525 14.6793 4.30362 14.9603L4.66054 14.6618L4.52085 14.6623C2.81562 14.4759 1.32427 13.0344 0.918843 11.3229C0.716902 10.4704 0.785993 9.55576 1.23028 8.70002C1.67468 7.84407 2.50109 7.03447 3.83513 6.40546C4.06793 6.2957 4.23596 6.07927 4.29234 5.83185C4.55565 4.67628 5.18713 4.02943 5.90386 3.70902C6.62815 3.38523 7.4536 3.38908 8.0996 3.56691C8.41933 3.65492 8.78503 3.57325 9.01307 3.30845ZM5.42193 14.6591L5.0326 14.9848L5.54019 14.983L5.92952 14.6573L5.42193 14.6591ZM6.69091 14.6546L20.2218 14.6072C20.2692 14.607 20.3184 14.5985 20.3623 14.5827C21.5105 14.1698 22.2505 13.5766 22.6834 12.9143C23.116 12.2523 23.2503 11.5084 23.165 10.7778C22.9931 9.30686 21.9337 7.91076 20.671 7.4028C20.3842 7.28741 20.1562 7.02782 20.1177 6.70565C19.997 5.69592 19.7354 4.81027 19.366 4.05145L19.6218 3.83748C20.0265 4.64612 20.3111 5.59136 20.4398 6.66715C20.4624 6.85693 20.6006 7.02487 20.7921 7.10191C22.1705 7.65646 23.3022 9.15744 23.4871 10.7402C23.5801 11.5364 23.4341 12.3584 22.9548 13.0918C22.4758 13.8248 21.6721 14.4564 20.472 14.8879C20.3926 14.9164 20.3066 14.9312 20.2229 14.9315L6.30158 14.9803L6.69091 14.6546ZM19.3845 3.40174L19.1324 3.61263C19.077 3.51723 19.0197 3.42414 18.9607 3.33336L19.2111 3.12391C19.2706 3.21436 19.3284 3.30698 19.3845 3.40174Z" fill="black"/>
<path fill-rule="evenodd" clip-rule="evenodd" d="M15.7841 0.727493C13.514 0.0974983 10.8485 0.871833 8.86203 3.17834C8.69137 3.3765 8.40908 3.44532 8.15249 3.37469C7.47047 3.18695 6.59646 3.18102 5.8225 3.52701C5.0468 3.87378 4.37479 4.57275 4.09799 5.78752C4.05472 5.97743 3.92548 6.14245 3.75011 6.22513C2.38477 6.8689 1.52169 7.70609 1.05337 8.60813C0.585023 9.51022 0.512992 10.4743 0.724878 11.3688C1.12902 13.0748 2.56804 14.5327 4.26743 14.8276L4.34268 14.7647C2.64894 14.5006 1.20037 13.0536 0.797201 11.3516C0.589022 10.4728 0.659959 9.52718 1.11933 8.64238C1.57873 7.75753 2.42814 6.93063 3.78181 6.29236C3.97859 6.19958 4.1223 6.01539 4.17046 5.80403C4.44223 4.61134 5.09913 3.9318 5.85283 3.59486C6.60827 3.25715 7.46417 3.2623 8.13277 3.44635C8.4129 3.52346 8.72629 3.44985 8.91835 3.22684C10.8883 0.939418 13.5252 0.177729 15.7642 0.799111C16.882 1.10932 17.9056 1.76611 18.6979 2.75593L18.7549 2.70823C17.9561 1.71031 16.9222 1.04334 15.7841 0.727493ZM4.5275 14.5372L5.00622 14.5355L4.34023 15.0926L4.2841 15.0838C2.45043 14.794 0.911133 13.2396 0.481611 11.4264C0.257255 10.4793 0.332962 9.45316 0.831492 8.49294C1.32983 7.53308 2.23892 6.66128 3.64349 5.99901C3.74693 5.95024 3.82743 5.84965 3.85424 5.73198C4.14796 4.44297 4.87079 3.67862 5.72047 3.29878C6.55674 2.92493 7.49168 2.93349 8.21884 3.13366C8.39537 3.18225 8.57339 3.13039 8.6726 3.0152C10.7143 0.644529 13.4764 -0.172376 15.851 0.486597C17.0772 0.826898 18.1859 1.55723 19.0271 2.65012L19.1003 2.74523L18.6593 3.11419L18.5799 3.01068C17.8099 2.0064 16.8008 1.34622 15.6974 1.04001C13.5627 0.447584 11.0225 1.16678 9.10778 3.38998C8.84374 3.69657 8.42574 3.7863 8.06642 3.68738C7.443 3.51577 6.64802 3.51322 5.95486 3.82309C5.27512 4.12697 4.66906 4.74115 4.41421 5.85958C4.34961 6.14306 4.15725 6.39173 3.88843 6.51848C2.57402 7.13824 1.7706 7.93052 1.34121 8.75758C0.912011 9.58426 0.844765 10.4678 1.04047 11.294C1.43461 12.9578 2.88371 14.3541 4.5275 14.5372ZM19.2385 2.93802L19.3155 3.05517C19.3761 3.1473 19.435 3.24161 19.4921 3.33809L19.5461 3.42947L19.0988 3.80367L19.0243 3.67536C18.9699 3.58175 18.9138 3.49044 18.8559 3.40144L18.7955 3.30854L19.2385 2.93802ZM19.1252 3.35871C19.1384 3.37988 19.1516 3.40117 19.1647 3.42258L19.2222 3.37448C19.2091 3.3531 19.1959 3.33183 19.1826 3.31068L19.1252 3.35871ZM19.6628 3.64014L19.7335 3.78149C20.1453 4.6041 20.4337 5.56343 20.5639 6.65227C20.5805 6.79121 20.6841 6.92373 20.8387 6.98591C22.2618 7.55841 23.4213 9.09983 23.6112 10.7256C23.7072 11.5472 23.5567 12.3993 23.0595 13.1601C22.5626 13.9205 21.7344 14.5668 20.5143 15.0055C20.4212 15.039 20.321 15.0561 20.2234 15.0565L5.95588 15.1065L6.64533 14.5298L20.2213 14.4822C20.2548 14.482 20.2898 14.4759 20.32 14.465C21.4482 14.0593 22.1637 13.4809 22.5787 12.8459C22.9934 12.2113 23.1232 11.4975 23.0408 10.7923C22.874 9.36442 21.8424 8.00874 20.6243 7.51873C20.3009 7.38861 20.0382 7.09377 19.9936 6.72045C19.8744 5.72333 19.6164 4.85132 19.2536 4.10612L19.2108 4.01824L19.6628 3.64014ZM19.5206 4.08501C19.8743 4.83744 20.1242 5.70716 20.2418 6.69077C20.2742 6.96179 20.4674 7.18613 20.7177 7.28679C22.0249 7.81271 23.1122 9.24922 23.2891 10.7632C23.3774 11.5191 23.2386 12.2932 22.788 12.9827C22.3373 13.6722 21.5728 14.2802 20.4046 14.7003C20.347 14.721 20.2836 14.7319 20.2222 14.7322L6.73649 14.7794L6.64726 14.8541L20.2225 14.8065C20.2922 14.8062 20.364 14.7939 20.4297 14.7702C21.6099 14.3459 22.3889 13.7291 22.8502 13.0233C23.3115 12.3175 23.453 11.5256 23.3629 10.7546C23.1831 9.21498 22.0792 7.75443 20.7454 7.21784C20.517 7.12594 20.3444 6.92256 20.3156 6.68195C20.1961 5.6821 19.9404 4.79871 19.5794 4.03589L19.5206 4.08501ZM6.27521 14.5311L5.58576 15.1078L4.6869 15.111L5.37634 14.5342L6.27521 14.5311ZM5.4675 14.7839L5.37828 14.8585L5.4946 14.8581L5.58383 14.7835L5.4675 14.7839Z" fill="black"/>
<path fill-rule="evenodd" clip-rule="evenodd" d="M8.57788 2.93365C10.6472 0.530909 13.4576 -0.307296 15.8844 0.36617C17.1369 0.713768 18.2686 1.45973 19.1262 2.5739L19.2644 2.7534L19.2658 2.75219L19.4199 2.98648C19.4817 3.08029 19.5416 3.1763 19.5996 3.27449L19.7007 3.44546L19.7038 3.44286L19.8453 3.72557C20.264 4.56216 20.5562 5.53556 20.688 6.63745C20.6985 6.72575 20.7679 6.82272 20.8853 6.86996C22.3531 7.46043 23.5404 9.04228 23.7354 10.7111C23.8343 11.558 23.6793 12.4402 23.1641 13.2285C22.6494 14.0161 21.7967 14.6772 20.5566 15.1231C20.4498 15.1615 20.3354 15.1811 20.2238 15.1815L4.3412 15.2372L4.35913 15.2222L4.26459 15.2073C2.37584 14.9088 0.799972 13.3127 0.359968 11.4552C0.129379 10.4818 0.206921 9.42465 0.720544 8.43536C1.2339 7.44659 2.16598 6.55749 3.59018 5.88597C3.65767 5.85414 3.71378 5.78574 3.73235 5.70423C4.03453 4.37811 4.78277 3.58107 5.66945 3.18468C6.53689 2.7969 7.50228 2.80678 8.25201 3.01316C8.38826 3.05067 8.51424 3.00754 8.57788 2.93365ZM20.2209 14.3572C20.2403 14.3571 20.2612 14.3533 20.2777 14.3474C21.3859 13.9489 22.0769 13.3853 22.4741 12.7775C22.8708 12.1705 22.996 11.4867 22.9166 10.8068C22.7549 9.42205 21.7511 8.10678 20.5777 7.63472C20.2177 7.4899 19.9202 7.15986 19.8695 6.73531C19.7518 5.7508 19.4974 4.89244 19.1412 4.16086L19.0556 3.9851L19.0583 3.9829L18.9162 3.73815C18.8628 3.64634 18.8078 3.55682 18.7511 3.46958L18.6303 3.28377L18.6312 3.28304L18.4807 3.08676C17.7272 2.10392 16.7411 1.4594 15.6639 1.16047C13.5814 0.582528 11.0895 1.2805 9.20249 3.47158C8.90239 3.82003 8.43203 3.9177 8.03323 3.80792C7.43242 3.64253 6.66789 3.64128 6.00587 3.93723C5.36311 4.22458 4.78247 4.80607 4.53608 5.88737C4.46327 6.2069 4.24658 6.48783 3.94173 6.63157C2.64696 7.24206 1.86653 8.01704 1.45214 8.81519C1.03803 9.61283 0.972629 10.4654 1.16209 11.2652C1.54492 12.8813 2.95176 14.2323 4.53429 14.4122L20.2209 14.3572ZM18.8559 2.63437C18.7752 2.53338 18.6921 2.43568 18.6068 2.34131C18.6909 2.43436 18.7729 2.53064 18.8525 2.63014L18.8559 2.63437ZM18.6036 2.83821C18.6291 2.87001 18.6542 2.90215 18.6791 2.93464L18.6802 2.93379L18.6036 2.83821ZM19.0182 3.42335C18.9992 3.3931 18.9801 3.3631 18.9607 3.33334L19.0182 3.42335ZM19.2867 3.24137L19.2885 3.24422C19.302 3.26576 19.3154 3.28742 19.3288 3.30921C19.3148 3.28647 19.3008 3.26386 19.2867 3.24137ZM19.0593 3.48982C19.084 3.53032 19.1083 3.57125 19.1323 3.61261L19.1336 3.61157L19.0593 3.48982ZM19.4075 4.13821C19.3938 4.1091 19.38 4.08017 19.366 4.05143L19.4075 4.13821ZM4.51365 14.6614C3.74788 14.5761 3.0255 14.2378 2.42559 13.7357C2.98567 14.2045 3.65255 14.5306 4.36192 14.6412L4.63436 14.6836L4.66052 14.6617L4.52077 14.6622L4.51365 14.6614Z" fill="black"/>
</svg>
