<svg width="25" height="24" viewBox="0 0 25 24" fill="none" xmlns="http://www.w3.org/2000/svg">
<path fill-rule="evenodd" clip-rule="evenodd" d="M12.2493 23.937C18.8417 23.937 24.1859 18.5927 24.1859 12.0002C24.1859 5.40772 18.8417 0.0634766 12.2493 0.0634766C5.65674 0.0634766 0.3125 5.40772 0.3125 12.0002C0.3125 18.5927 5.65674 23.937 12.2493 23.937ZM8.54266 4.94929V4.72477V4.50025H9.33515H10.1276L10.4246 4.65403L10.7215 4.80781L10.7229 6.15061L10.7243 7.4934L11.7476 7.48978C12.3104 7.4878 13.7054 7.48335 14.8477 7.4799L16.9244 7.47364L17.2287 7.78154C17.3961 7.95088 17.5325 8.09116 17.5319 8.09326C17.5313 8.09537 16.8701 8.76093 16.0626 9.57228C13.8007 11.845 13.7398 11.9064 13.7515 11.903C13.7576 11.9013 13.7873 11.8908 13.8176 11.8797C14.0387 11.7985 14.3244 11.737 14.476 11.738C14.6412 11.739 14.9236 11.7826 15.1288 11.8387C15.3803 11.9074 15.555 11.978 15.8401 12.1262C16.0253 12.2224 16.0795 12.2533 16.1838 12.3218C16.3594 12.4372 16.4806 12.5363 16.6361 12.6918C16.8231 12.8788 16.9379 13.0274 17.1047 13.2983C17.2655 13.5593 17.4075 13.8732 17.4949 14.1605C17.6002 14.5065 17.6706 14.9106 17.6997 15.3367C17.7135 15.5386 17.7074 15.8332 17.6847 16.0639C17.6304 16.6143 17.4647 17.1822 17.2137 17.678C16.9788 18.1421 16.6324 18.5332 16.2001 18.8222C15.9063 19.0188 15.4854 19.2064 15.0737 19.3245C14.4784 19.4952 13.828 19.542 13.1526 19.4629C12.5167 19.3884 12.007 19.1933 11.6305 18.8802C11.5603 18.8218 11.378 18.6411 11.3098 18.5622C11.0064 18.2117 10.8066 17.7646 10.7495 17.3089C10.716 17.0411 10.7261 16.8649 10.7853 16.6842C10.8465 16.4974 10.9573 16.3427 11.1154 16.223C11.2311 16.1355 11.392 16.0735 11.581 16.0436C11.6659 16.0302 11.8503 16.0303 11.9335 16.0437C12.1937 16.0858 12.3791 16.1779 12.5254 16.3378C12.6633 16.4886 12.7554 16.6978 12.7789 16.9134C12.7863 16.9822 12.7864 17.1661 12.7789 17.2264C12.7477 17.4782 12.6257 17.7178 12.4561 17.8605C12.3786 17.9257 12.2806 17.9839 12.1924 18.017C12.1743 18.0239 12.1594 18.0321 12.1594 18.0353C12.1594 18.0477 12.2532 18.1481 12.3123 18.1989C12.4459 18.3139 12.6038 18.401 12.7599 18.446C13.1353 18.5541 13.4206 18.6004 13.7543 18.6074C14.0397 18.6134 14.2528 18.5837 14.498 18.5037C14.7025 18.437 14.9274 18.3225 15.0777 18.2087C15.3743 17.9841 15.6095 17.6812 15.7533 17.339C15.8538 17.0996 15.9591 16.7137 16.0102 16.3972C16.0501 16.1505 16.0617 16.0102 16.0682 15.7003C16.0763 15.3082 16.0631 15.0749 16.0156 14.7775C15.9542 14.3916 15.8173 13.9421 15.6794 13.6729C15.5378 13.3965 15.3262 13.1485 15.0706 12.9595C14.7373 12.7129 14.2788 12.5617 13.8589 12.5598C13.5556 12.5585 13.1768 12.6723 12.8508 12.8629C12.7801 12.9042 12.0491 13.2763 12.0387 13.2763C12.0369 13.2763 12.0354 13.1925 12.0354 13.0902V12.9041L13.7267 10.6355C14.6569 9.38785 15.418 8.3659 15.418 8.36456C15.418 8.36322 14.3625 8.36275 13.0725 8.36351L10.727 8.36489V10.8109C10.727 13.114 10.7276 13.2615 10.7367 13.3341C10.7662 13.5684 10.8371 13.7828 10.95 13.9789C10.9691 14.0121 10.9953 14.0529 11.0081 14.0696C11.1388 14.2389 11.32 14.3524 11.5382 14.4016C11.5859 14.4123 11.6076 14.4136 11.7324 14.4136C11.8899 14.4136 11.9472 14.4071 12.0712 14.3753C12.2971 14.3174 12.4667 14.2223 12.7131 14.0152C12.8014 13.941 12.9641 13.7778 13.0377 13.6896C13.1183 13.5931 13.199 13.4832 13.2177 13.4445C13.2382 13.4024 13.2829 13.3583 13.3277 13.3362C13.3606 13.3201 13.3659 13.3191 13.4085 13.3215C13.5175 13.3277 13.6168 13.3872 13.6714 13.4791C13.741 13.5962 13.7526 13.7 13.7161 13.8772C13.6984 13.9634 13.6845 14.0002 13.6253 14.1182C13.4679 14.4321 13.2344 14.7088 12.9499 14.9189C12.6685 15.1266 12.3361 15.2533 11.9666 15.2935C11.8355 15.3077 11.4525 15.3002 11.2091 15.2785C10.4589 15.2118 9.91537 15.0005 9.62288 14.6617C9.31229 14.3019 9.12611 13.8616 9.08255 13.3837C9.07896 13.3443 9.07704 12.4566 9.07705 10.8426L9.07707 8.36213H7.88433H6.6916V7.92691V7.4917H7.88983H9.08806V6.49315V5.4946L8.81536 5.22194L8.54266 4.94929Z" fill="black"/>
</svg>
