<svg width="25" height="25" viewBox="0 0 25 25" fill="none" xmlns="http://www.w3.org/2000/svg">
    <path d="M12.5 24.085C6.14872 24.085 1 18.9362 1 12.585" stroke="black" stroke-width="1.5" stroke-dasharray="4 4"/>
    <path d="M1 12.585C1 6.23369 6.14872 1.08496 12.5 1.08496" stroke="black" stroke-width="1.5" stroke-dasharray="4 4"/>
    <path d="M12.5 1.08496C18.8513 1.08496 24 6.23369 24 12.585" stroke="black" stroke-width="1.5"/>
    <path d="M24 12.585C24 18.9362 18.8513 24.085 12.5 24.085" stroke="black" stroke-width="1.5"/>
    <path fill-rule="evenodd" clip-rule="evenodd" d="M10.9594 5.70476C10.9511 5.72913 10.901 5.96844 10.8483 6.23655C10.5879 7.55974 10.2973 8.46239 9.94234 9.05005C9.49445 9.79158 8.83993 10.2676 7.7928 10.6135C7.41127 10.7395 6.60183 10.9408 6.03358 11.051C5.76546 11.103 5.52616 11.1529 5.50178 11.1619C5.47741 11.1709 5.70564 11.2283 6.00894 11.2894C7.54531 11.5991 8.44915 11.9117 9.06184 12.3454C9.3371 12.5402 9.64176 12.8492 9.82292 13.1173C10.0088 13.3923 10.2521 13.8997 10.3903 14.3004C10.532 14.7112 10.7058 15.3917 10.8338 16.0362C10.8912 16.3255 10.946 16.5954 10.9556 16.636C10.967 16.6846 11.0162 16.4975 11.0992 16.0895C11.4863 14.1879 11.8298 13.3461 12.4865 12.6894C13.1407 12.0352 13.9567 11.701 15.8695 11.3038C16.2039 11.2344 16.4574 11.1701 16.4331 11.1609C16.4087 11.1518 16.1428 11.0958 15.8422 11.0366C15.1805 10.9062 14.5135 10.7368 14.0975 10.5933C13.6867 10.4516 13.1748 10.2045 12.9029 10.0165C12.4837 9.72667 12.1216 9.30629 11.8804 8.82927C11.5715 8.21857 11.3629 7.54003 11.115 6.33995C11.0378 5.96622 10.9678 5.68038 10.9594 5.70476ZM15.9814 12.5635C15.7404 13.7024 15.601 14.1721 15.394 14.5418C15.2252 14.8433 14.9325 15.1459 14.6459 15.3152C14.3891 15.4668 13.9781 15.6288 13.6161 15.7209C13.4861 15.7541 13.1876 15.8221 12.9528 15.8721C12.7179 15.9222 12.5216 15.9673 12.5164 15.9725C12.5112 15.9777 12.6901 16.0178 12.9138 16.0616C13.6994 16.2154 14.2997 16.4134 14.6843 16.6455C14.8975 16.7742 15.1722 17.0437 15.3145 17.264C15.5424 17.6165 15.7292 18.1638 15.8927 18.9573C15.9495 19.233 15.9995 19.4622 16.0039 19.4666C16.0083 19.471 16.062 19.2328 16.1232 18.9373C16.2588 18.2834 16.3998 17.8343 16.5795 17.4845C16.7476 17.1573 16.9423 16.92 17.1831 16.7492C17.5975 16.4552 18.097 16.271 18.9707 16.0899C19.2662 16.0286 19.5043 15.9749 19.4999 15.9705C19.4956 15.9662 19.2664 15.9161 18.9906 15.8593C18.1971 15.6959 17.6499 15.509 17.2973 15.2812C17.0771 15.1388 16.8076 14.8641 16.6789 14.6509C16.4478 14.2679 16.2682 13.7316 16.1119 12.9578C16.0632 12.7165 16.0188 12.5058 16.0133 12.4896C16.0078 12.4734 15.9934 12.5066 15.9814 12.5635Z" fill="black"/>
</svg>
