<svg width="25" height="25" viewBox="0 0 25 25" fill="none" xmlns="http://www.w3.org/2000/svg">
<g clip-path="url(#clip0_371_20154)">
<path d="M6.42139 18.585L10.2614 10.425L18.4214 6.58496L14.5814 14.745L6.42139 18.585ZM12.4214 11.505C12.135 11.505 11.8603 11.6187 11.6577 11.8213C11.4552 12.0238 11.3414 12.2985 11.3414 12.585C11.3414 12.8714 11.4552 13.1461 11.6577 13.3486C11.8603 13.5512 12.135 13.665 12.4214 13.665C12.7078 13.665 12.9825 13.5512 13.1851 13.3486C13.3876 13.1461 13.5014 12.8714 13.5014 12.585C13.5014 12.2985 13.3876 12.0238 13.1851 11.8213C12.9825 11.6187 12.7078 11.505 12.4214 11.505Z" fill="black"/>
<circle cx="12.4214" cy="12.585" r="11.25" stroke="black" stroke-width="1.5"/>
</g>
<defs>
<clipPath id="clip0_371_20154">
<rect width="24" height="24" fill="white" transform="translate(0.421387 0.584961)"/>
</clipPath>
</defs>
</svg>
