<svg width="25" height="24" viewBox="0 0 25 24" fill="none" xmlns="http://www.w3.org/2000/svg">
<mask id="path-1-inside-1_7590_8482" fill="white">
<path fill-rule="evenodd" clip-rule="evenodd" d="M12.279 23.8293C18.8593 23.8293 24.1937 18.4949 24.1937 11.9146C24.1937 5.33437 18.8593 0 12.279 0C5.69873 0 0.364358 5.33437 0.364358 11.9146C0.364358 14.0209 0.910866 15.9994 1.86981 17.7163L0.318604 24L6.35427 22.2541C8.09937 23.2562 10.1223 23.8293 12.279 23.8293Z"/>
</mask>
<path d="M1.86981 17.7163L3.32609 18.0758L3.46789 17.5013L3.17938 16.9848L1.86981 17.7163ZM0.318604 24L-1.13768 23.6405L-1.76035 26.1629L0.73541 25.4409L0.318604 24ZM6.35427 22.2541L7.10125 20.9533L6.5491 20.6363L5.93746 20.8132L6.35427 22.2541ZM22.6937 11.9146C22.6937 17.6665 18.0309 22.3293 12.279 22.3293V25.3293C19.6877 25.3293 25.6937 19.3234 25.6937 11.9146H22.6937ZM12.279 1.5C18.0309 1.5 22.6937 6.1628 22.6937 11.9146H25.6937C25.6937 4.50594 19.6877 -1.5 12.279 -1.5V1.5ZM1.86436 11.9146C1.86436 6.1628 6.52716 1.5 12.279 1.5V-1.5C4.8703 -1.5 -1.13564 4.50594 -1.13564 11.9146H1.86436ZM3.17938 16.9848C2.34208 15.4858 1.86436 13.7582 1.86436 11.9146H-1.13564C-1.13564 14.2835 -0.520353 16.5131 0.560243 18.4477L3.17938 16.9848ZM1.77489 24.3595L3.32609 18.0758L0.413528 17.3568L-1.13768 23.6405L1.77489 24.3595ZM5.93746 20.8132L-0.0982029 22.5591L0.73541 25.4409L6.77107 23.695L5.93746 20.8132ZM12.279 22.3293C10.3913 22.3293 8.6251 21.8284 7.10125 20.9533L5.60729 23.5549C7.57364 24.6841 9.85325 25.3293 12.279 25.3293V22.3293Z" fill="black" mask="url(#path-1-inside-1_7590_8482)"/>
<path d="M13.2062 10.9085L13.2062 10.9085L13.2018 10.9122L12.4723 11.5375C12.4723 11.5375 12.4722 11.5375 12.4722 11.5376C12.4118 11.5892 12.353 11.6388 12.2962 11.6868C11.9849 11.9496 11.7294 12.1653 11.5566 12.4129C11.3356 12.7296 11.2529 13.0852 11.2529 13.619V14.5721V14.8221H11.5029H12.7241H12.9741V14.5721V13.8424C12.9741 13.5108 13.0223 13.374 13.1054 13.2591C13.153 13.1934 13.2191 13.1255 13.3192 13.035C13.3667 12.9919 13.4193 12.946 13.4793 12.8937L13.4872 12.8868C13.5494 12.8324 13.6184 12.7721 13.6937 12.7044L14.2415 12.2306C14.2418 12.2304 14.242 12.2302 14.2423 12.23C14.6432 11.8884 15.0749 11.5104 15.402 11.0098C15.7339 10.5017 15.9528 9.87709 15.9528 9.04672C15.9528 8.26655 15.6753 7.46035 15.0752 6.8481C14.4723 6.23288 13.5629 5.83295 12.3369 5.83295C11.1959 5.83295 10.222 6.2396 9.54383 6.96818C8.86641 7.69601 8.5034 8.72423 8.5424 9.93348L8.55021 10.1754H8.79227H10.0582H10.3126L10.3082 9.92111C10.294 9.09682 10.4936 8.49465 10.8367 8.10157C11.176 7.71287 11.6854 7.49463 12.3667 7.49463C12.9213 7.49463 13.3584 7.67627 13.6556 7.96551C13.9525 8.25455 14.1273 8.66796 14.1273 9.16586C14.1273 9.90468 13.8212 10.4053 13.2062 10.9085ZM12.9773 18.2029H13.2273V17.9529V16.1955V15.9455H12.9773H11.2199H10.9699V16.1955V17.9529V18.2029H11.2199H12.9773Z" fill="black" stroke="black" stroke-width="0.5"/>
</svg>
