<svg width="23" height="23" viewBox="0 0 23 23" fill="none" xmlns="http://www.w3.org/2000/svg">
<path fill-rule="evenodd" clip-rule="evenodd" d="M3.01875 0.265222C1.88586 0.669713 0.973946 1.62195 0.669599 2.71843C0.601799 2.96271 0.546052 3.6586 0.545675 4.26465L0.544922 5.36679L3.1502 5.33274L5.75549 5.29881L5.78938 2.69142L5.82341 0.0840234L4.65938 0.0895522C4.0134 0.092568 3.28329 0.170853 3.01875 0.265222ZM8.95716 6.86451V13.655H15.7422H22.5271L22.4908 8.15752V3.85079C22.4908 3.85079 22.4908 2.70341 22.1111 2.08355C21.7313 1.4637 21.2543 0.848776 20.4601 0.423551C19.9533 0.152256 19.8362 0.146098 14.4502 0.110411L8.95716 0.0740967V6.86451ZM0.544922 11.0791V13.655H3.18159H5.81826V11.0791V8.50308H3.18159H0.544922V11.0791ZM0.586857 16.9939C0.544168 17.1052 0.541281 17.6918 0.580454 18.2973C0.628417 19.0375 0.738529 19.5793 0.916441 19.9507C1.25293 20.6535 1.48822 20.9319 2.15241 21.4135C2.76676 21.8587 3.96192 22.1215 5.06493 22.0537L5.75549 22.0113V19.4353V16.8593L3.21009 16.8253C0.964529 16.7952 0.655411 16.8151 0.586857 16.9939ZM8.95716 19.4353V22.0741H11.531H14.1049V19.4353V16.7965H11.531H8.95716V19.4353ZM17.2998 16.9572C17.2659 17.0457 17.2536 18.219 17.2725 19.5646L17.3066 22.0113L18.5622 21.9967C19.9393 21.9809 20.4651 21.8259 21.2477 21.2056C21.5041 21.0022 21.879 20.535 22.0807 20.1671C22.4084 19.5696 22.4529 19.3537 22.4963 18.1473L22.5449 16.7965H19.9532C17.9639 16.7965 17.3472 16.8338 17.2998 16.9572Z" fill="#152534"/>
</svg>
