<svg width="25" height="24" viewBox="0 0 25 24" fill="none" xmlns="http://www.w3.org/2000/svg">
<rect x="2.5" y="2.25" width="7.5" height="7.5" stroke="black" stroke-width="1.5"/>
<rect x="2.5" y="14.25" width="7.5" height="7.5" stroke="black" stroke-width="1.5"/>
<rect x="14.5" y="2.25" width="7.5" height="7.5" stroke="black" stroke-width="1.5"/>
<circle cx="15.25" cy="15" r="0.75" fill="black" stroke="black" stroke-width="1.5"/>
<path d="M22 15C22 15.4142 21.6642 15.75 21.25 15.75C20.8358 15.75 20.5 15.4142 20.5 15C20.5 14.5858 20.8358 14.25 21.25 14.25C21.6642 14.25 22 14.5858 22 15Z" fill="black" stroke="black" stroke-width="1.5"/>
<path d="M22 21C22 21.4142 21.6642 21.75 21.25 21.75C20.8358 21.75 20.5 21.4142 20.5 21C20.5 20.5858 20.8358 20.25 21.25 20.25C21.6642 20.25 22 20.5858 22 21Z" fill="black" stroke="black" stroke-width="1.5"/>
<path d="M16 21C16 21.4142 15.6642 21.75 15.25 21.75C14.8358 21.75 14.5 21.4142 14.5 21C14.5 20.5858 14.8358 20.25 15.25 20.25C15.6642 20.25 16 20.5858 16 21Z" fill="black" stroke="black" stroke-width="1.5"/>
</svg>
