<svg width="25" height="25" viewBox="0 0 25 25" fill="none" xmlns="http://www.w3.org/2000/svg">
<path fill-rule="evenodd" clip-rule="evenodd" d="M24.6849 12.9445C24.6849 19.537 19.3408 24.8814 12.7483 24.8814C6.15576 24.8814 0.811523 19.537 0.811523 12.9445C0.811523 6.35205 6.15576 1.00781 12.7483 1.00781C19.3407 1.00781 24.6849 6.35205 24.6849 12.9445ZM12.7102 15.002V15.002L9.33472 13.0067L9.33475 13.0067L9.33472 13.0067L9.33477 13.0066L12.7102 7.40595L16.0857 13.0067L12.7102 15.002ZM12.7102 18.8626L9.33472 14.106L12.7102 16.1002L16.0877 14.106L12.7102 18.8626V18.8626L12.7102 18.8626L12.7102 18.8626Z" fill="black"/>
</svg>
