<svg width="24" height="25" viewBox="0 0 24 25" fill="none" xmlns="http://www.w3.org/2000/svg">
<g clip-path="url(#clip0_7593_8496)">
<path d="M0 1.25C0 1.05109 0.0790176 0.860322 0.21967 0.71967C0.360322 0.579018 0.551088 0.5 0.75 0.5H5.25C5.44891 0.5 5.63968 0.579018 5.78033 0.71967C5.92098 0.860322 6 1.05109 6 1.25C6 1.44891 5.92098 1.63968 5.78033 1.78033C5.63968 1.92098 5.44891 2 5.25 2H1.5V5.75C1.5 5.94891 1.42098 6.13968 1.28033 6.28033C1.13968 6.42098 0.948912 6.5 0.75 6.5C0.551088 6.5 0.360322 6.42098 0.21967 6.28033C0.0790176 6.13968 0 5.94891 0 5.75V1.25ZM18 1.25C18 1.05109 18.079 0.860322 18.2197 0.71967C18.3603 0.579018 18.5511 0.5 18.75 0.5H23.25C23.4489 0.5 23.6397 0.579018 23.7803 0.71967C23.921 0.860322 24 1.05109 24 1.25V5.75C24 5.94891 23.921 6.13968 23.7803 6.28033C23.6397 6.42098 23.4489 6.5 23.25 6.5C23.0511 6.5 22.8603 6.42098 22.7197 6.28033C22.579 6.13968 22.5 5.94891 22.5 5.75V2H18.75C18.5511 2 18.3603 1.92098 18.2197 1.78033C18.079 1.63968 18 1.44891 18 1.25ZM0.75 18.5C0.948912 18.5 1.13968 18.579 1.28033 18.7197C1.42098 18.8603 1.5 19.0511 1.5 19.25V23H5.25C5.44891 23 5.63968 23.079 5.78033 23.2197C5.92098 23.3603 6 23.5511 6 23.75C6 23.9489 5.92098 24.1397 5.78033 24.2803C5.63968 24.421 5.44891 24.5 5.25 24.5H0.75C0.551088 24.5 0.360322 24.421 0.21967 24.2803C0.0790176 24.1397 0 23.9489 0 23.75V19.25C0 19.0511 0.0790176 18.8603 0.21967 18.7197C0.360322 18.579 0.551088 18.5 0.75 18.5ZM23.25 18.5C23.4489 18.5 23.6397 18.579 23.7803 18.7197C23.921 18.8603 24 19.0511 24 19.25V23.75C24 23.9489 23.921 24.1397 23.7803 24.2803C23.6397 24.421 23.4489 24.5 23.25 24.5H18.75C18.5511 24.5 18.3603 24.421 18.2197 24.2803C18.079 24.1397 18 23.9489 18 23.75C18 23.5511 18.079 23.3603 18.2197 23.2197C18.3603 23.079 18.5511 23 18.75 23H22.5V19.25C22.5 19.0511 22.579 18.8603 22.7197 18.7197C22.8603 18.579 23.0511 18.5 23.25 18.5ZM6 6.5H7.5V8H6V6.5Z" fill="black"/>
<path d="M10.5 3.5H3V11H10.5V3.5ZM4.5 5H9V9.5H4.5V5ZM7.5 17H6V18.5H7.5V17Z" fill="black"/>
<path d="M10.5 14H3V21.5H10.5V14ZM4.5 15.5H9V20H4.5V15.5ZM16.5 6.5H18V8H16.5V6.5Z" fill="black"/>
<path d="M13.5 3.5H21V11H13.5V3.5ZM15 5V9.5H19.5V5H15ZM12 12.5V15.5H13.5V17H12V18.5H15V15.5H16.5V18.5H18V17H21V15.5H16.5V12.5H12ZM15 15.5H13.5V14H15V15.5ZM21 18.5H19.5V20H16.5V21.5H21V18.5ZM15 21.5V20H12V21.5H15Z" fill="black"/>
<path d="M18 14H21V12.5H18V14Z" fill="black"/>
</g>
<defs>
<clipPath id="clip0_7593_8496">
<rect width="24" height="24" fill="white" transform="translate(0 0.5)"/>
</clipPath>
</defs>
</svg>
