<svg width="25" height="24" viewBox="0 0 25 24" fill="none" xmlns="http://www.w3.org/2000/svg">
<g clip-path="url(#clip0_41_1219)">
<path d="M8.76732 13.5867H8.89232V13.4617V12.4617V12.3367H8.76732H2.97998H2.85498V12.4617V13.4617V13.5867H2.97998H8.76732Z" fill="black" stroke="black" stroke-width="0.25"/>
<path d="M21.5669 13.5867H21.6919V13.4617V12.4617V12.3367H21.5669H15.7329H15.6079V12.4617V13.4617V13.5867H15.7329H21.5669Z" fill="black" stroke="black" stroke-width="0.25"/>
<path d="M8.875 12.957V12.832H8.75H7.75H7.625V12.957C7.625 15.5113 9.69568 17.582 12.25 17.582C14.8043 17.582 16.875 15.5113 16.875 12.957V12.832H16.75H15.75H15.625V12.957C15.625 14.821 14.114 16.332 12.25 16.332C10.386 16.332 8.875 14.821 8.875 12.957Z" fill="black" stroke="black" stroke-width="0.25"/>
<path fill-rule="evenodd" clip-rule="evenodd" d="M17.6104 11.0113C20.651 11.0113 23.1159 8.54628 23.1159 5.50559C23.1159 2.46494 20.651 0 17.6104 0C14.5697 0 12.1047 2.46494 12.1047 5.50559C12.1047 8.54628 14.5697 11.0113 17.6104 11.0113ZM20.0858 5.65252L20.575 6.14173L17.6397 9.07699L14.7045 6.14172L15.1937 5.65251L17.2938 7.75265L17.3115 2.24049L18.0033 2.24049L17.9857 7.75265L20.0858 5.65252Z" fill="black"/>
<path fill-rule="evenodd" clip-rule="evenodd" d="M17.9997 3.3667L18.0033 2.24052L17.3115 2.24052L17.3079 3.3667H12.5357C12.7685 2.81507 13.0886 2.30929 13.4787 1.8667H20.75H21.742C21.9279 2.07754 22.0978 2.30271 22.25 2.54036V3.3667V8.47093C21.8574 9.0839 21.3467 9.61394 20.75 10.0289V3.3667H17.9997ZM11.3514 3.3667H3.75V20.3667H20.75V11.3268C21.3019 11.0285 21.8066 10.654 22.25 10.2173V20.3667V21.8667H20.75H3.75H2.25V20.3667V3.3667V1.8667H3.75H12.0882C11.7828 2.32934 11.5339 2.83262 11.3514 3.3667Z" fill="black"/>
</g>
<defs>
<clipPath id="clip0_41_1219">
<rect width="24" height="24" fill="white" transform="translate(0.25)"/>
</clipPath>
</defs>
</svg>
