<svg width="25" height="25" viewBox="0 0 25 25" fill="none" xmlns="http://www.w3.org/2000/svg">
<path fill-rule="evenodd" clip-rule="evenodd" d="M12.4983 24.8038C19.0908 24.8038 24.4349 19.4595 24.4349 12.867C24.4349 6.27454 19.0907 0.930298 12.4983 0.930298C5.90576 0.930298 0.561523 6.27454 0.561523 12.867C0.561523 19.4595 5.90576 24.8038 12.4983 24.8038ZM17.3171 15.6271C17.3171 17.8899 15.4143 18.8671 12.9114 18.8671H8.3V6.86707H12.5C14.8829 6.86707 16.82 7.68993 16.82 9.90136C16.82 11.5128 15.4486 12.5585 13.7857 12.6614V12.6956C15.7057 12.7642 17.3171 13.6728 17.3171 15.6271ZM12.2429 7.86136H9.98V12.1985H12.2086C13.8029 12.1985 15.0714 11.7014 15.0714 10.0042C15.0714 8.49565 13.9743 7.86136 12.2429 7.86136ZM15.5686 15.5585C15.5686 13.8956 14.3343 13.2099 12.3629 13.2099H9.98V17.8728H12.5857C14.3514 17.8728 15.5686 17.2214 15.5686 15.5585Z" fill="black"/>
</svg>
