<svg width="25" height="25" viewBox="0 0 25 25" fill="none" xmlns="http://www.w3.org/2000/svg">
<g clip-path="url(#clip0_4353_32630)">
<path d="M14.3352 14.8133C14.2172 14.6362 14.0205 14.4985 13.7648 14.3411C13.509 14.2034 13.1746 14.046 12.7615 13.8887V17.8231C14.0008 17.6657 14.6303 17.0362 14.6303 15.8952C14.6303 15.6395 14.6107 15.4428 14.5713 15.2854C14.532 15.128 14.4729 14.9903 14.3352 14.8133Z" fill="black"/>
<path d="M12.25 0.944336C5.62049 0.944336 0.25 6.31483 0.25 12.9443C0.25 19.5738 5.62049 24.9443 12.25 24.9443C18.8795 24.9443 24.25 19.5738 24.25 12.9443C24.25 6.31483 18.8795 0.944336 12.25 0.944336ZM16.8926 17.705C16.6566 18.2165 16.3221 18.6296 15.8893 18.9247C15.4566 19.2394 14.9844 19.4755 14.4729 19.6329C13.9615 19.8099 13.391 19.9083 12.7615 19.9476V21.8755H11.7975V19.9673C10.8926 19.9279 10.0467 19.7706 9.24016 19.4952C8.43361 19.2197 7.78443 18.846 7.31229 18.3738L8.35492 16.6034C8.76803 16.9378 9.31885 17.2132 9.96803 17.4493C10.6172 17.6853 11.227 17.823 11.7975 17.8624V13.5738C11.7189 13.5542 11.5811 13.5148 11.4238 13.4558C11.2664 13.3968 11.109 13.3575 10.991 13.3181C10.8533 13.2788 10.7352 13.2394 10.6369 13.2001C9.47623 12.7673 8.63033 12.2361 8.09918 11.646C7.56803 11.0558 7.31229 10.2296 7.31229 9.20663C7.31229 8.0263 7.72541 7.12138 8.55164 6.45253C9.37787 5.78368 10.4598 5.42958 11.7975 5.37057V3.97384H12.7615V5.37057C13.8238 5.40991 14.6697 5.54761 15.2992 5.78368C15.9287 6.03942 16.5189 6.43286 17.109 6.98368L15.85 8.61647C15.0828 7.8886 14.0598 7.51483 12.7615 7.47548V11.4099C13.509 11.6656 13.9811 11.823 14.1779 11.882C15.3385 12.3345 16.1254 12.8656 16.5779 13.4558C17.0303 14.046 17.2664 14.8722 17.2664 15.9345C17.2664 16.623 17.1484 17.2132 16.8926 17.705Z" fill="black"/>
<path d="M9.94836 9.10795C9.94836 9.61943 10.0664 9.9932 10.3025 10.2686C10.5385 10.544 11.0303 10.8194 11.8172 11.0948V7.53418C11.2467 7.61287 10.7943 7.78992 10.4598 8.04566C10.1057 8.30139 9.94836 8.65549 9.94836 9.10795Z" fill="black"/>
</g>
<defs>
<clipPath id="clip0_4353_32630">
<rect width="24" height="24" fill="white" transform="translate(0.25 0.944336)"/>
</clipPath>
</defs>
</svg>
