<svg width="25" height="25" viewBox="0 0 25 25" fill="none" xmlns="http://www.w3.org/2000/svg">
<path fill-rule="evenodd" clip-rule="evenodd" d="M4.76135 2.09991C4.12483 2.09991 3.51438 2.35276 3.0643 2.80285C2.61421 3.25294 2.36135 3.86339 2.36135 4.49991V8.49991H0.761353V4.49991C0.761353 3.43904 1.18278 2.42163 1.93293 1.67148C2.68307 0.921336 3.70049 0.499908 4.76135 0.499908L8.76135 0.499908V2.09991H4.76135ZM20.7614 2.09991H16.7614V0.499908H20.7614C21.8222 0.499908 22.8396 0.921336 23.5898 1.67148C24.3399 2.42163 24.7614 3.43904 24.7614 4.49991V8.49991H23.1614V4.49991C23.1614 3.86339 22.9085 3.25294 22.4584 2.80285C22.0083 2.35276 21.3979 2.09991 20.7614 2.09991ZM21.5614 13.2999H3.96135V11.6999H21.5614V13.2999ZM0.761353 20.4999V16.4999H2.36135V20.4999C2.36135 21.1364 2.61421 21.7469 3.0643 22.197C3.51438 22.6471 4.12483 22.8999 4.76135 22.8999H8.76135V24.4999H4.76135C3.70049 24.4999 2.68307 24.0785 1.93293 23.3283C1.18278 22.5782 0.761353 21.5608 0.761353 20.4999H0.761353ZM23.1614 20.4999V16.4999H24.7614V20.4999C24.7614 21.5608 24.3399 22.5782 23.5898 23.3283C22.8396 24.0785 21.8222 24.4999 20.7614 24.4999H16.7614V22.8999H20.7614C21.3979 22.8999 22.0083 22.6471 22.4584 22.197C22.9085 21.7469 23.1614 21.1364 23.1614 20.4999Z" fill="black"/>
</svg>
