<svg width="25" height="24" viewBox="0 0 25 24" fill="none" xmlns="http://www.w3.org/2000/svg">
<path d="M12.5 1.5C6.70156 1.5 2 6.20156 2 12C2 17.7984 6.70156 22.5 12.5 22.5C18.2984 22.5 23 17.7984 23 12C23 6.20156 18.2984 1.5 12.5 1.5ZM12.5 20.7188C7.68594 20.7188 3.78125 16.8141 3.78125 12C3.78125 7.18594 7.68594 3.28125 12.5 3.28125C17.3141 3.28125 21.2188 7.18594 21.2188 12C21.2188 16.8141 17.3141 20.7188 12.5 20.7188Z" fill="white"/>
<path d="M11.375 7.875C11.375 8.17337 11.4935 8.45952 11.7045 8.6705C11.9155 8.88147 12.2016 9 12.5 9C12.7984 9 13.0845 8.88147 13.2955 8.6705C13.5065 8.45952 13.625 8.17337 13.625 7.875C13.625 7.57663 13.5065 7.29048 13.2955 7.0795C13.0845 6.86853 12.7984 6.75 12.5 6.75C12.2016 6.75 11.9155 6.86853 11.7045 7.0795C11.4935 7.29048 11.375 7.57663 11.375 7.875ZM13.0625 10.5H11.9375C11.8344 10.5 11.75 10.5844 11.75 10.6875V17.0625C11.75 17.1656 11.8344 17.25 11.9375 17.25H13.0625C13.1656 17.25 13.25 17.1656 13.25 17.0625V10.6875C13.25 10.5844 13.1656 10.5 13.0625 10.5Z" fill="white"/>
</svg>
