<svg width="22" height="22" viewBox="0 0 22 22" fill="none" xmlns="http://www.w3.org/2000/svg">
<rect x="1.42578" y="1.18457" width="7.5" height="7.5" stroke="black" stroke-width="1.5"/>
<rect x="1.42578" y="13.1846" width="7.5" height="7.5" stroke="black" stroke-width="1.5"/>
<rect x="13.4258" y="1.18457" width="7.5" height="7.5" stroke="black" stroke-width="1.5"/>
<circle cx="14.1758" cy="13.9346" r="0.75" fill="black" stroke="black" stroke-width="1.5"/>
<path d="M20.9258 13.9346C20.9258 14.3488 20.59 14.6846 20.1758 14.6846C19.7616 14.6846 19.4258 14.3488 19.4258 13.9346C19.4258 13.5204 19.7616 13.1846 20.1758 13.1846C20.59 13.1846 20.9258 13.5204 20.9258 13.9346Z" fill="black" stroke="black" stroke-width="1.5"/>
<path d="M20.9258 19.9346C20.9258 20.3488 20.59 20.6846 20.1758 20.6846C19.7616 20.6846 19.4258 20.3488 19.4258 19.9346C19.4258 19.5204 19.7616 19.1846 20.1758 19.1846C20.59 19.1846 20.9258 19.5204 20.9258 19.9346Z" fill="black" stroke="black" stroke-width="1.5"/>
<path d="M14.9258 19.9346C14.9258 20.3488 14.59 20.6846 14.1758 20.6846C13.7616 20.6846 13.4258 20.3488 13.4258 19.9346C13.4258 19.5204 13.7616 19.1846 14.1758 19.1846C14.59 19.1846 14.9258 19.5204 14.9258 19.9346Z" fill="black" stroke="black" stroke-width="1.5"/>
</svg>
