<svg width="25" height="24" viewBox="0 0 25 24" fill="none" xmlns="http://www.w3.org/2000/svg">
<g clip-path="url(#clip0_155_692)">
<path d="M12.25 23C18.3251 23 23.25 18.0751 23.25 12C23.25 5.92487 18.3251 1 12.25 1C6.17487 1 1.25 5.92487 1.25 12C1.25 18.0751 6.17487 23 12.25 23Z" stroke="black" stroke-linecap="round" stroke-linejoin="round"/>
<path d="M12.2502 17.5C15.2878 17.5 17.7502 15.0376 17.7502 12C17.7502 8.96243 15.2878 6.5 12.2502 6.5C9.21268 6.5 6.75024 8.96243 6.75024 12C6.75024 15.0376 9.21268 17.5 12.2502 17.5Z" stroke="black" stroke-linecap="round" stroke-linejoin="round"/>
<path d="M8.125 7.875L4.6875 4.4375M16.375 7.875L19.8125 4.4375L16.375 7.875ZM16.375 16.125L19.8125 19.5625L16.375 16.125ZM8.125 16.125L4.6875 19.5625L8.125 16.125Z" stroke="black" stroke-linecap="round" stroke-linejoin="round"/>
</g>
<defs>
<clipPath id="clip0_155_692">
<rect width="24" height="24" fill="white" transform="translate(0.25)"/>
</clipPath>
</defs>
</svg>
