<svg width="149" height="159" viewBox="0 0 149 159" fill="none" xmlns="http://www.w3.org/2000/svg">
<mask id="mask0_35_2025" style="mask-type:alpha" maskUnits="userSpaceOnUse" x="10" y="9" width="129" height="140">
<path d="M22.6244 148.247H10.377L10.377 9.8884H138.865L138.865 72.1257H128.237V85.61H107.761V99.2006H87.4256V112.798H66.3554V125.288H44.3309V136.878H22.6244V148.247Z" fill="#C4C4C4"/>
</mask>
<g mask="url(#mask0_35_2025)">
<path d="M1.82422 0.264404H109.406V49.0507H138.621V148.247H1.82422V0.264404Z" fill="white"/>
<path fill-rule="evenodd" clip-rule="evenodd" d="M75.6829 79.0933L84.1984 93.7529L67.245 93.7978L75.6829 79.0933ZM68.0574 62.9797L85.9304 93.7483L100.276 93.7104L66.8414 35.7996L24.5887 108.983L32.8307 121.747L66.7594 62.9814L68.0574 62.9797ZM32.3316 123.739L32.3626 123.719L32.6768 124.263H118.94L119.6 123.869L127.476 109.228L127.434 109.205L127.76 108.64L84.6087 34.2265L83.9595 33.8528L67.185 33.8618L67.1851 33.9246L66.1919 33.9246L23.0605 108.63L23.08 109.412L32.3316 123.739ZM102.222 94.082L68.3204 35.3612L83.528 35.353L125.81 108.266L58.9431 108.265L66.383 95.3L101.575 95.207L102.222 94.082Z" fill="#6D6B6B"/>
</g>
<path fill-rule="evenodd" clip-rule="evenodd" d="M111.282 4.74317e-06V9.88312L10.3831 9.88311V148.247H22.6258V158.13L10.3831 158.13H0.499972L0.498047 158.13V148.247H0.499972V1.39734e-05H0.500732V0L111.282 4.74317e-06Z" fill="#6D6B6B"/>
<path d="M148.496 72.394H138.613L138.613 46.7L148.496 46.7L148.496 72.394Z" fill="#6D6B6B"/>
<rect x="109.012" y="49.3879" width="9.88311" height="39.4876" transform="rotate(-90 109.012 49.3879)" fill="#999999"/>
<rect x="128.732" y="39.5049" width="9.88" height="19.8005" transform="rotate(-180 128.732 39.5049)" fill="white"/>
<rect x="138.613" y="39.5049" width="9.88" height="9.88311" transform="rotate(-180 138.613 39.5049)" fill="white"/>
<path fill-rule="evenodd" clip-rule="evenodd" d="M109.013 40.5053H118.893L118.893 19.7685H128.734V29.6197H138.614V19.7397H128.772V9.88848H118.893L118.893 0H109.013L109.013 9.88848H109.012V19.7685H109.013L109.013 40.5053ZM138.616 39.6673H148.496V29.6196H138.616L138.616 39.6673Z" fill="#999999"/>
<path d="M86.0312 136.926V148.247H138.759V112.859H129.77V125.328H107.733V136.926H86.0312Z" fill="white"/>
<path fill-rule="evenodd" clip-rule="evenodd" d="M138.613 158.13H148.496L148.496 105.255H138.613L138.613 148.247L85.9863 148.247V158.13H138.613V158.13Z" fill="#6D6B6B"/>
</svg>
