<svg width="148" height="159" viewBox="0 0 148 159" fill="none" xmlns="http://www.w3.org/2000/svg">
<mask id="mask0_20_3117" style="mask-type:alpha" maskUnits="userSpaceOnUse" x="10" y="9" width="130" height="140">
<path d="M22.2396 148.494H10.1328L11.2447 9.75977H139.602V72.2369H119.329V87.4496H108.198V99.3601H87.6661V112.982H66.3926L65.8539 125.494H44.1556V135.535H22.6347L22.2396 148.494Z" fill="#C4C4C4"/>
</mask>
<g mask="url(#mask0_20_3117)">
<path d="M1.23828 0.247314H106.74V51.3924H139.355V148.247H1.23828V0.247314Z" fill="white"/>
<path fill-rule="evenodd" clip-rule="evenodd" d="M75.1887 79.1016L83.7042 93.7612L66.7509 93.8061L75.1887 79.1016ZM67.5633 62.988L85.4363 93.7566L99.7816 93.7187L66.3473 35.8079L24.0946 108.992L32.3365 121.755L66.2652 62.9897L67.5633 62.988ZM31.8375 123.747L31.8684 123.727L32.1827 124.272H118.445L119.106 123.877L126.981 109.236L126.94 109.214L127.266 108.648L84.1146 34.2348L83.4654 33.8611L66.6909 33.8701L66.6909 33.9329L65.6978 33.9329L22.5664 108.639L22.5859 109.421L31.8375 123.747ZM101.728 94.0903L67.8262 35.3695L83.0339 35.3613L125.315 108.274L58.4489 108.274L65.8888 95.3083L101.081 95.2153L101.728 94.0903Z" fill="#6D6B6B"/>
</g>
<path fill-rule="evenodd" clip-rule="evenodd" d="M105.75 4.62245e-06V9.88312L9.88311 9.88311V148.247H21.2488V158.13H0.000121638L0 158.13V9.23028e-06H0.00101471V0L105.75 4.62245e-06Z" fill="#6D6B6B"/>
<path fill-rule="evenodd" clip-rule="evenodd" d="M138.117 158.13H148L148 105.256H138.117L138.117 148.247L85.4902 148.247V158.13H138.117V158.13Z" fill="#6D6B6B"/>
<path fill-rule="evenodd" clip-rule="evenodd" d="M105.008 42.4973V52.3804L138.114 52.3804V72.3939H147.997L147.997 52.3804H147.999V42.4973L105.008 42.4973Z" fill="#6D6B6B"/>
<rect x="126.504" y="42.4973" width="11.1185" height="21.2487" transform="rotate(-180 126.504 42.4973)" fill="white"/>
<rect x="136.387" y="42.4973" width="9.88311" height="9.88311" transform="rotate(-180 136.387 42.4973)" fill="white"/>
<path fill-rule="evenodd" clip-rule="evenodd" d="M105.504 42.4974H115.387L115.387 21.2486H126.506V11.3655H115.387L115.387 0H105.504L105.504 42.4974ZM136.389 32.6143H126.506L126.506 21.2487L136.389 21.2487L136.389 32.6143H146.272V42.4974H136.389L136.389 32.6143Z" fill="#818181"/>
<path d="M86.6016 138.734V148.247H138.364V114.644H125.269V128.234H108.715V138.734H86.6016Z" fill="white"/>
</svg>
