<svg width="24" height="24" viewBox="0 0 24 24" fill="none" xmlns="http://www.w3.org/2000/svg">
<g clip-path="url(#clip0_7418_8442)">
<path d="M16.5 5.32434V16.8243C16.5 19.0343 14.71 20.8243 12.5 20.8243C10.29 20.8243 8.5 19.0343 8.5 16.8243V4.32434C8.5 3.6613 8.76339 3.02541 9.23223 2.55657C9.70107 2.08773 10.337 1.82434 11 1.82434C11.663 1.82434 12.2989 2.08773 12.7678 2.55657C13.2366 3.02541 13.5 3.6613 13.5 4.32434V14.8243C13.5 15.3743 13.05 15.8243 12.5 15.8243C11.95 15.8243 11.5 15.3743 11.5 14.8243V5.32434H10V14.8243C10 15.4874 10.2634 16.1233 10.7322 16.5921C11.2011 17.0609 11.837 17.3243 12.5 17.3243C13.163 17.3243 13.7989 17.0609 14.2678 16.5921C14.7366 16.1233 15 15.4874 15 14.8243V4.32434C15 2.11434 13.21 0.324341 11 0.324341C8.79 0.324341 7 2.11434 7 4.32434V16.8243C7 19.8643 9.46 22.3243 12.5 22.3243C15.54 22.3243 18 19.8643 18 16.8243V5.32434H16.5Z" fill="black"/>
</g>
<defs>
<clipPath id="clip0_7418_8442">
<rect width="24" height="24" fill="white"/>
</clipPath>
</defs>
</svg>
