<svg width="23" height="22" viewBox="0 0 23 22" fill="none" xmlns="http://www.w3.org/2000/svg">
<path fill-rule="evenodd" clip-rule="evenodd" d="M20.7501 1.47961H10.5651L9.29013 0.272577L8.76513 0.0595703H1.26514L0.515137 0.769592V16.3901L1.26514 17.1001H9.50013V15.68H1.98514V7.15978H8.72013L9.24513 6.94678L10.5351 5.72554H20.0001V7.85561L19.9986 8.57983H21.5151V2.18963L20.7501 1.47961ZM19.9851 4.3197H10.2351L9.71013 4.53271L8.42013 5.75394H2.00014V1.49381H8.43513L9.71013 2.70085L10.2501 2.91386H20.0001L19.9851 4.3197ZM18.5001 21.3602H17.0001V17.1001H12.5001V15.68H17.0001V11.4199H18.5001V15.68H23.0001V17.1001H18.5001V21.3602Z" fill="white"/>
</svg>
