<svg width="174" height="182" viewBox="0 0 174 182" fill="none" xmlns="http://www.w3.org/2000/svg">
<path d="M156.749 19.0173V18.2673H155.999H96.0289H95.2793L95.2789 19.017L95.2489 79.0169L95.248 80.8288L96.5292 79.5476L108.31 67.7673H155.999H156.749V67.0173V19.0173ZM128.249 54.2673H123.749V49.7673H128.249V54.2673ZM128.249 42.2673H123.749V31.7673H128.249V42.2673Z" fill="white" stroke="black" stroke-width="1.5"/>
<rect x="122.874" y="30.8821" width="6.25" height="12.25" fill="black" stroke="black" stroke-width="0.25"/>
<rect x="122.874" y="48.8965" width="6.25" height="6.2459" fill="black" stroke="black" stroke-width="0.25"/>
<g clip-path="url(#clip0_9_2331)">
<path d="M74.1328 132.785L56.1992 101.912L21.4671 162.069H107.73L115.605 147.428" stroke="black" stroke-width="1.5" stroke-linejoin="bevel"/>
<path d="M64.2083 116.603L46.4383 147.571L115.902 147.571L72.7502 73.158L55.9758 73.1671" stroke="black" stroke-width="1.5" stroke-linejoin="bevel"/>
<path d="M54.6596 133.107L90.3631 133.012L55.6318 72.8549L12.5004 147.561L21.752 161.887" stroke="black" stroke-width="1.5" stroke-linejoin="bevel"/>
<path d="M21.5804 162.068L56.3125 101.912L64.5794 116.172L46.6023 147.571H115.641L107.843 162.068H21.5804Z" fill="black"/>
</g>
<defs>
<clipPath id="clip0_9_2331">
<rect width="128.003" height="128.003" fill="white" transform="translate(0.00109863 53)"/>
</clipPath>
</defs>
</svg>
