<svg width="65" height="65" viewBox="0 0 65 65" fill="none" xmlns="http://www.w3.org/2000/svg">
<g clip-path="url(#clip0_701_24709)">
<path d="M45.4402 40.4387L37.4182 40.4387L28.4793 24.9984L11.3352 54.8382L6.77214 47.6637L28.1919 10.5635L45.4402 40.4387Z" fill="black"/>
<path d="M23.952 47.5143L28.0811 40.345L32.5249 40.345L37.6238 40.345L45.568 40.345L28.42 10.3949L36.7586 10.3949L58.1514 47.5145L23.952 47.5143Z" fill="black"/>
<path d="M37.5636 40.2123L28.5977 24.7773L11.2334 54.8528H54.3605L58.2979 47.5331" stroke="#999999" stroke-width="0.5" stroke-linejoin="bevel"/>
<path d="M32.6023 32.1215L23.7182 47.6037L58.4465 47.6039L36.8729 10.401L28.4865 10.4056" stroke="#999999" stroke-width="0.5" stroke-linejoin="bevel"/>
<path d="M27.8282 40.3733L45.6782 40.326L28.3142 10.2504L6.75069 47.5995L11.376 54.7622" stroke="#999999" stroke-width="0.5" stroke-linejoin="bevel"/>
<path d="M11.2354 54.8518L28.5697 24.8281L32.6957 31.9456L23.7235 47.616H58.1799L54.2881 54.8518H11.2354Z" fill="#999999"/>
<path d="M37.5202 40.2365L32.6957 31.9456M32.6957 31.9456L28.5697 24.8281L11.2354 54.8518H54.2881L58.1799 47.616H23.7235L32.6957 31.9456Z" stroke="#999999" stroke-width="0.5" stroke-linejoin="bevel"/>
</g>
<defs>
<clipPath id="clip0_701_24709">
<rect width="63.9953" height="63.9953" fill="white" transform="translate(0.501953 0.323242)"/>
</clipPath>
</defs>
</svg>
