<svg width="349" height="281" viewBox="0 0 349 281" fill="none" xmlns="http://www.w3.org/2000/svg">
<rect width="347" height="280" transform="translate(1)" fill="#EDEDED"/>
<rect width="164" height="40" transform="translate(1)" fill="#EDEDED"/>
<path d="M1 0H165V40H1V0Z" fill="white" stroke="white"/>
<rect width="60" height="40" transform="translate(165)" fill="#EDEDED"/>
<rect x="165" width="59.9487" height="40" fill="white" stroke="white"/>
<path d="M179.892 21.46H183.48V19.984H179.892V17.32H183.696V15.82H177.924V25H179.892V21.46ZM184.929 25H186.825V21.82C186.825 20.584 187.485 20.188 188.649 20.188H188.985V18.46H188.877C188.013 18.46 187.113 18.952 186.753 19.924H186.729V18.568H184.929V25ZM193.859 21.136H191.435C191.531 20.152 191.939 19.6 192.719 19.6C193.439 19.6 193.799 20.14 193.859 21.052V21.136ZM195.743 23.128H193.871C193.751 23.512 193.511 23.884 192.755 23.884C191.951 23.884 191.519 23.38 191.435 22.228H195.803V21.724C195.803 19.84 194.891 18.412 192.719 18.412C190.691 18.412 189.515 19.804 189.515 21.772C189.515 23.836 190.619 25.168 192.695 25.168C194.435 25.168 195.551 24.376 195.743 23.128ZM201.066 21.136H198.642C198.738 20.152 199.146 19.6 199.926 19.6C200.646 19.6 201.006 20.14 201.066 21.052V21.136ZM202.95 23.128H201.078C200.958 23.512 200.718 23.884 199.962 23.884C199.158 23.884 198.726 23.38 198.642 22.228H203.01V21.724C203.01 19.84 202.098 18.412 199.926 18.412C197.898 18.412 196.722 19.804 196.722 21.772C196.722 23.836 197.826 25.168 199.902 25.168C201.642 25.168 202.758 24.376 202.95 23.128Z" fill="black"/>
<rect width="123" height="40" transform="translate(225)" fill="#EDEDED"/>
<path d="M225 0H347.971V40H225V0Z" fill="white" stroke="white"/>
<path d="M244.62 18.316C244.56 16.888 243.576 15.688 241.248 15.688C239.052 15.688 237.804 16.876 237.804 18.496C237.804 19.96 238.752 20.812 240.168 21.088L241.536 21.352C242.496 21.532 242.844 21.868 242.844 22.504C242.844 23.2 242.34 23.752 241.248 23.752C240.228 23.752 239.676 23.164 239.58 22.372H237.528C237.624 24.088 238.908 25.192 241.2 25.192C243.54 25.192 244.884 24.112 244.884 22.144C244.884 20.788 244.092 19.912 242.46 19.612L241.068 19.36C240.192 19.204 239.856 18.832 239.856 18.22C239.856 17.572 240.384 17.116 241.236 17.116C242.148 17.116 242.556 17.704 242.604 18.316H244.62ZM248.055 18.568H246.147V22.852C246.147 24.364 246.807 25.12 248.355 25.12C249.411 25.12 250.035 24.604 250.371 23.956H250.395V25H252.231V18.568H250.323V22.084C250.323 23.176 249.903 23.752 249.063 23.752C248.691 23.752 248.415 23.632 248.247 23.38C248.091 23.14 248.055 22.78 248.055 22.324V18.568ZM253.847 25H255.671V24.112H255.695C256.031 24.724 256.631 25.156 257.591 25.156C259.247 25.156 260.315 23.956 260.315 21.76C260.315 19.384 259.223 18.424 257.735 18.424C256.775 18.424 256.103 18.94 255.779 19.528H255.755V15.544H253.847V25ZM257.051 23.884C256.163 23.884 255.731 23.14 255.731 22.132V21.436C255.731 20.368 256.271 19.732 257.039 19.732C257.951 19.732 258.371 20.428 258.371 21.784C258.371 23.164 257.891 23.884 257.051 23.884ZM266.597 20.356C266.513 19.228 265.685 18.412 264.005 18.412C262.181 18.412 261.341 19.408 261.341 20.524C261.341 21.688 262.025 22.276 263.225 22.444L264.257 22.588C264.857 22.672 265.025 22.864 265.025 23.248C265.025 23.716 264.617 23.956 264.005 23.956C263.249 23.956 262.949 23.584 262.925 23.128H261.173C261.257 24.28 262.073 25.18 263.993 25.18C265.625 25.18 266.789 24.412 266.789 22.984C266.789 21.82 266.105 21.244 264.929 21.088L263.837 20.944C263.285 20.872 263.093 20.656 263.093 20.296C263.093 19.912 263.405 19.624 263.993 19.624C264.581 19.624 264.881 19.948 264.917 20.356H266.597ZM273.907 20.872C273.859 19.252 272.647 18.412 270.931 18.412C268.927 18.412 267.679 19.696 267.679 21.784C267.679 23.884 268.843 25.156 270.919 25.156C272.611 25.156 273.883 24.304 273.931 22.612H272.083C272.059 23.236 271.759 23.848 270.919 23.848C269.839 23.848 269.635 22.756 269.635 21.76C269.635 20.692 269.935 19.684 270.931 19.684C271.651 19.684 271.975 20.188 272.035 20.872H273.907ZM275.117 25H277.013V21.82C277.013 20.584 277.673 20.188 278.837 20.188H279.173V18.46H279.065C278.201 18.46 277.301 18.952 276.941 19.924H276.917V18.568H275.117V25ZM280.226 17.452H282.158V15.724H280.226V17.452ZM280.238 25H282.146V18.568H280.238V25ZM285.661 22.132V21.436C285.661 20.368 286.213 19.732 286.969 19.732C287.881 19.732 288.301 20.428 288.301 21.784C288.301 23.164 287.821 23.884 286.981 23.884C286.093 23.884 285.661 23.14 285.661 22.132ZM283.777 27.256H285.685V24.196H285.721C285.985 24.7 286.561 25.156 287.485 25.156C289.153 25.156 290.245 23.908 290.245 21.76C290.245 19.384 289.153 18.424 287.665 18.424C286.621 18.424 285.937 19.036 285.637 19.612H285.613V18.568H283.777V27.256ZM291.971 16.756V17.248C291.971 18.412 291.827 18.58 291.011 18.58H290.795V19.888H291.743V23.092C291.743 24.544 292.523 25.084 293.783 25.084C294.323 25.084 294.803 25.036 295.055 25.012V23.62C295.055 23.62 294.743 23.668 294.515 23.668C293.867 23.668 293.627 23.38 293.627 22.732V19.888H295.043V18.568H293.603V16.756H291.971ZM296.222 17.452H298.154V15.724H296.222V17.452ZM296.234 25H298.142V18.568H296.234V25ZM302.606 25.168C304.538 25.168 305.87 23.884 305.87 21.784C305.87 19.66 304.586 18.412 302.618 18.412C300.602 18.412 299.354 19.672 299.354 21.784C299.354 23.884 300.578 25.168 302.606 25.168ZM302.618 19.696C303.554 19.696 303.89 20.548 303.89 21.784C303.89 22.972 303.578 23.884 302.618 23.884C301.682 23.884 301.322 23.032 301.322 21.784C301.322 20.596 301.67 19.696 302.618 19.696ZM311.31 25H313.218V20.824C313.218 19.24 312.582 18.436 311.034 18.436C309.93 18.436 309.294 18.976 308.946 19.624H308.922V18.568H307.086V25H308.994V21.28C308.994 20.344 309.438 19.804 310.29 19.804C310.65 19.804 310.938 19.924 311.118 20.176C311.286 20.416 311.31 20.788 311.31 21.244V25Z" fill="black"/>
<rect width="164" height="40" transform="translate(1 40)" fill="#EDEDED"/>
<rect x="1" y="40" width="163.846" height="40" fill="#EDEDED" stroke="black"/>
<path d="M16.372 65H17.476V61.004L20.704 55.82H19.516L16.936 60.056H16.912L14.428 55.82H13.132L16.372 61.076V65ZM23.3215 65.156C25.0975 65.156 26.1655 63.812 26.1655 61.832C26.1655 59.876 25.2295 58.52 23.3455 58.52C21.5815 58.52 20.5015 59.876 20.5015 61.832C20.5015 63.812 21.4615 65.156 23.3215 65.156ZM23.3335 59.348C24.5455 59.348 25.0495 60.296 25.0495 61.832C25.0495 63.38 24.5335 64.316 23.3575 64.316C22.1335 64.316 21.6175 63.38 21.6175 61.832C21.6175 60.296 22.1815 59.348 23.3335 59.348ZM28.9181 58.676H27.8501V63.08C27.8501 64.568 28.6661 65.156 29.8781 65.156C30.8861 65.156 31.5821 64.568 31.8701 63.92H31.8941V65H32.9261V58.676H31.8461V62.096C31.8461 63.488 31.2941 64.268 30.1181 64.268C29.6981 64.268 29.3621 64.136 29.1461 63.848C28.9181 63.548 28.9181 63.02 28.9181 62.564V58.676ZM35.1749 65H36.2549V61.556C36.2549 60.332 36.9989 59.684 38.1269 59.684H38.3309V58.556H38.2229C37.2989 58.556 36.5069 59.204 36.2189 59.864H36.1949V58.676H35.1749V65ZM45.3879 65.156C47.1639 65.156 48.2319 63.812 48.2319 61.832C48.2319 59.876 47.2959 58.52 45.4119 58.52C43.6479 58.52 42.5679 59.876 42.5679 61.832C42.5679 63.812 43.5279 65.156 45.3879 65.156ZM45.3999 59.348C46.6119 59.348 47.1159 60.296 47.1159 61.832C47.1159 63.38 46.5999 64.316 45.4239 64.316C44.1999 64.316 43.6839 63.38 43.6839 61.832C43.6839 60.296 44.2479 59.348 45.3999 59.348ZM51.0459 65H52.1859L53.3499 61.28C53.5299 60.704 53.7459 59.936 53.7459 59.936H53.7579C53.7579 59.936 53.9739 60.692 54.1539 61.28L55.3059 65H56.4459L58.4019 58.676H57.3579L56.1099 62.948C56.0019 63.32 55.9059 63.74 55.9059 63.74H55.8819C55.8819 63.74 55.7739 63.32 55.6539 62.948L54.3219 58.676H53.2179L51.8739 62.948C51.7539 63.32 51.6339 63.74 51.6339 63.74H51.6099C51.6099 63.74 51.5139 63.332 51.4059 62.936L50.1819 58.676H49.0779L51.0459 65ZM63.8746 65H64.9546V60.596C64.9546 59.096 64.1506 58.52 62.9386 58.52C61.9306 58.52 61.1986 59.096 60.8986 59.744H60.8746V58.676H59.8546V65H60.9346V61.208C60.9346 60.176 61.4746 59.42 62.6506 59.42C63.0706 59.42 63.4306 59.54 63.6466 59.84C63.8746 60.14 63.8746 60.644 63.8746 61.1V65ZM71.5049 63.068L72.5609 61.88L74.4089 65H75.6689L73.2929 61.052L75.4049 58.676H74.1449L71.5049 61.724V55.544H70.4249V65H71.5049V63.068ZM80.7325 61.28H77.4925C77.6245 60.128 78.1765 59.336 79.1845 59.336C80.2885 59.336 80.7085 60.152 80.7325 61.208V61.28ZM81.7525 63.344H80.7085C80.6005 63.716 80.3245 64.328 79.2685 64.328C78.0805 64.328 77.5525 63.44 77.4805 62.132H81.8365V61.58C81.8365 59.984 81.0925 58.52 79.1965 58.52C77.3845 58.52 76.3765 59.996 76.3765 61.868C76.3765 63.752 77.3005 65.156 79.2325 65.156C80.5885 65.156 81.5245 64.436 81.7525 63.344ZM85.0156 65L84.8956 65.336C84.6196 66.188 84.3556 66.488 83.5516 66.488C83.4436 66.488 83.2036 66.476 82.9996 66.428V67.316C83.1676 67.352 83.4076 67.388 83.6476 67.388C85.0156 67.388 85.4356 66.848 85.9396 65.396L88.2436 58.676H87.1636L85.8676 62.624C85.6636 63.236 85.5556 63.62 85.5556 63.62H85.5196C85.5196 63.62 85.4116 63.236 85.2076 62.636L83.8876 58.676H82.8076L85.0156 65ZM93.8659 60.26C93.7579 59.156 92.9779 58.52 91.6099 58.52C90.1699 58.52 89.3179 59.324 89.3179 60.44C89.3179 61.544 89.9179 62.012 91.0459 62.192L92.0179 62.336C92.8819 62.48 93.0139 62.756 93.0139 63.26C93.0139 63.92 92.4739 64.328 91.6099 64.328C90.4939 64.328 90.2179 63.704 90.1699 63.212H89.1139C89.1979 64.568 90.2779 65.156 91.5859 65.156C93.0259 65.156 94.0579 64.472 94.0579 63.2C94.0579 62.108 93.5779 61.568 92.2579 61.364L91.2859 61.22C90.6499 61.112 90.3379 60.872 90.3379 60.356C90.3379 59.768 90.8299 59.336 91.5739 59.336C92.3179 59.336 92.7739 59.696 92.8339 60.26H93.8659Z" fill="black"/>
<rect width="60" height="40" transform="translate(165 40)" fill="#EDEDED"/>
<rect x="165" y="39.9053" width="59.9001" height="40" fill="#EDEDED" stroke="black"/>
<path d="M181 61.6305L184.556 65.191L193 54.9053" stroke="black" stroke-width="1.3"/>
<rect width="123" height="40" transform="translate(225 40)" fill="#EDEDED"/>
<rect x="225" y="40" width="122.971" height="40" fill="#EDEDED" stroke="black"/>
<path d="M240.504 61.6305L244.059 65.191L252.504 54.9053" stroke="black" stroke-width="1.3"/>
<rect width="164" height="40" transform="translate(1 80)" fill="#EDEDED"/>
<rect x="1" y="80" width="163.977" height="40" fill="#EDEDED" stroke="black"/>
<path d="M17.584 105C19.432 105 20.98 104.4 20.98 102.336C20.98 101.232 20.164 100.32 19.012 100.128V100.104C20.068 99.864 20.692 99.168 20.692 98.052C20.692 96.552 19.432 95.82 17.86 95.82H14.248V105H17.584ZM15.364 99.684V96.72H17.8C18.82 96.72 19.528 97.164 19.528 98.16C19.528 99.336 18.628 99.684 17.656 99.684H15.364ZM15.364 104.1V100.608H17.5C18.952 100.608 19.816 101.052 19.816 102.264C19.816 103.644 18.94 104.1 17.596 104.1H15.364ZM22.8931 97.236H24.0331V96.072H22.8931V97.236ZM22.9171 105H24.0091V98.676H22.9171V105ZM26.6166 96.84V97.296C26.6166 98.508 26.4246 98.712 25.5726 98.712H25.3806V99.504H26.5326V103.416C26.5326 104.496 27.0246 105.096 28.2606 105.096C28.8126 105.096 29.2566 105.024 29.2566 105.024V104.112C29.2566 104.112 28.8846 104.172 28.5606 104.172C27.8766 104.172 27.6006 103.908 27.6006 103.236V99.504H29.1606V98.676H27.6006V96.84H26.6166ZM30.6866 105H31.7666V101.184C31.7666 100.176 32.2946 99.42 33.4706 99.42C33.8906 99.42 34.2386 99.54 34.4546 99.84C34.6826 100.152 34.6826 100.632 34.6826 101.088V105H35.7626V101.208C35.7626 100.176 36.2906 99.42 37.4666 99.42C37.8866 99.42 38.2346 99.528 38.4506 99.828C38.6786 100.14 38.6786 100.632 38.6786 101.088V105H39.7586V100.596C39.7586 99.096 38.9426 98.52 37.7546 98.52C36.7106 98.52 35.9306 99.168 35.6906 99.828H35.6666C35.4386 98.952 34.7186 98.52 33.7586 98.52C32.7506 98.52 32.0186 99.096 31.7306 99.744H31.7066V98.676H30.6866V105ZM43.592 104.232C42.908 104.232 42.488 103.884 42.488 103.236C42.488 102.9 42.596 102.636 42.836 102.456C43.244 102.156 44.024 102.048 45.392 101.988V102.132C45.392 103.692 44.396 104.232 43.592 104.232ZM42.752 100.404C42.788 99.864 43.136 99.324 44.072 99.324C44.96 99.324 45.392 99.768 45.392 100.908V101.184C43.976 101.232 42.992 101.352 42.332 101.7C41.684 102.024 41.384 102.6 41.384 103.296C41.384 104.424 42.128 105.108 43.388 105.108C44.324 105.108 45.08 104.676 45.416 103.932H45.44C45.548 104.688 45.884 105.048 46.892 105.048H47.024V104.172C46.556 104.16 46.448 103.956 46.448 103.452V100.872C46.448 99.18 45.68 98.52 44.108 98.52C42.596 98.52 41.744 99.288 41.72 100.404H42.752ZM48.5928 105H49.6728V101.556C49.6728 100.332 50.4168 99.684 51.5448 99.684H51.7488V98.556H51.6408C50.7168 98.556 49.9248 99.204 49.6368 99.864H49.6128V98.676H48.5928V105ZM54.3603 103.068L55.4163 101.88L57.2643 105H58.5243L56.1483 101.052L58.2603 98.676H57.0003L54.3603 101.724V95.544H53.2803V105H54.3603V103.068ZM63.3613 105H64.4293V97.296H64.4533C64.4533 97.296 64.5733 97.584 64.9333 98.184L69.0013 105H70.4293V95.82H69.3733V103.548H69.3373C69.3373 103.548 69.1813 103.152 68.8693 102.648L64.7893 95.82H63.3613V105ZM74.0163 101.1H78.0123V100.128H74.0163V96.816H78.3843V95.82H72.9003V105H74.0163V101.1ZM87.0427 95.82H79.5667V96.792H82.7467V105H83.8627V96.792H87.0427V95.82ZM91.7917 100.26C91.6837 99.156 90.9037 98.52 89.5357 98.52C88.0957 98.52 87.2437 99.324 87.2437 100.44C87.2437 101.544 87.8437 102.012 88.9717 102.192L89.9437 102.336C90.8077 102.48 90.9397 102.756 90.9397 103.26C90.9397 103.92 90.3997 104.328 89.5357 104.328C88.4197 104.328 88.1437 103.704 88.0957 103.212H87.0397C87.1237 104.568 88.2037 105.156 89.5117 105.156C90.9517 105.156 91.9837 104.472 91.9837 103.2C91.9837 102.108 91.5037 101.568 90.1837 101.364L89.2117 101.22C88.5757 101.112 88.2637 100.872 88.2637 100.356C88.2637 99.768 88.7557 99.336 89.4997 99.336C90.2437 99.336 90.6997 99.696 90.7597 100.26H91.7917Z" fill="black"/>
<rect width="60" height="40" transform="translate(165 80)" fill="#EDEDED"/>
<rect x="165" y="80" width="59.9999" height="40" fill="#EDEDED" stroke="black"/>
<path d="M181 101.631L184.556 105.191L193 94.9053" stroke="black" stroke-width="1.3"/>
<rect width="123" height="40" transform="translate(225 80)" fill="#EDEDED"/>
<rect x="225" y="80" width="123" height="40" fill="#EDEDED" stroke="black"/>
<path d="M240.504 101.631L244.059 105.191L252.504 94.9053" stroke="black" stroke-width="1.3"/>
<rect width="164" height="40" transform="translate(1 120)" fill="#EDEDED"/>
<rect x="1" y="120" width="163.977" height="40" fill="#EDEDED" stroke="black"/>
<path d="M14.248 145H20.176V144.004H15.364V140.848H19.732V139.876H15.364V136.816H20.116V135.82H14.248V145ZM22.5971 136.84V137.296C22.5971 138.508 22.4051 138.712 21.5531 138.712H21.3611V139.504H22.5131V143.416C22.5131 144.496 23.0051 145.096 24.2411 145.096C24.7931 145.096 25.2371 145.024 25.2371 145.024V144.112C25.2371 144.112 24.8651 144.172 24.5411 144.172C23.8571 144.172 23.5811 143.908 23.5811 143.236V139.504H25.1411V138.676H23.5811V136.84H22.5971ZM30.6285 145H31.7085V140.596C31.7085 139.096 30.9045 138.52 29.6925 138.52C28.6605 138.52 27.9885 139.108 27.7125 139.72H27.6885V135.544H26.6085V145H27.6885V141.208C27.6885 140.176 28.2285 139.42 29.4045 139.42C29.8245 139.42 30.1845 139.54 30.4005 139.84C30.6285 140.14 30.6285 140.632 30.6285 141.088V145ZM37.7013 141.28H34.4613C34.5933 140.128 35.1453 139.336 36.1533 139.336C37.2573 139.336 37.6773 140.152 37.7013 141.208V141.28ZM38.7213 143.344H37.6773C37.5693 143.716 37.2933 144.328 36.2373 144.328C35.0493 144.328 34.5213 143.44 34.4493 142.132H38.8053V141.58C38.8053 139.984 38.0613 138.52 36.1653 138.52C34.3533 138.52 33.3453 139.996 33.3453 141.868C33.3453 143.752 34.2693 145.156 36.2013 145.156C37.5573 145.156 38.4933 144.436 38.7213 143.344ZM40.4483 145H41.5283V141.556C41.5283 140.332 42.2723 139.684 43.4003 139.684H43.6043V138.556H43.4963C42.5723 138.556 41.7803 139.204 41.4923 139.864H41.4683V138.676H40.4483V145ZM48.8106 141.28H45.5706C45.7026 140.128 46.2546 139.336 47.2626 139.336C48.3666 139.336 48.7866 140.152 48.8106 141.208V141.28ZM49.8306 143.344H48.7866C48.6786 143.716 48.4026 144.328 47.3466 144.328C46.1586 144.328 45.6306 143.44 45.5586 142.132H49.9146V141.58C49.9146 139.984 49.1706 138.52 47.2746 138.52C45.4626 138.52 44.4546 139.996 44.4546 141.868C44.4546 143.752 45.3786 145.156 47.3106 145.156C48.6666 145.156 49.6026 144.436 49.8306 143.344ZM52.6603 138.676H51.5923V143.08C51.5923 144.568 52.4083 145.156 53.6203 145.156C54.6283 145.156 55.3243 144.568 55.6123 143.92H55.6363V145H56.6683V138.676H55.5883V142.096C55.5883 143.488 55.0363 144.268 53.8603 144.268C53.4403 144.268 53.1043 144.136 52.8883 143.848C52.6603 143.548 52.6603 143.02 52.6603 142.564V138.676ZM58.9171 145H59.9971V141.184C59.9971 140.176 60.5251 139.42 61.7011 139.42C62.1211 139.42 62.4691 139.54 62.6851 139.84C62.9131 140.152 62.9131 140.632 62.9131 141.088V145H63.9931V141.208C63.9931 140.176 64.5211 139.42 65.6971 139.42C66.1171 139.42 66.4651 139.528 66.6811 139.828C66.9091 140.14 66.9091 140.632 66.9091 141.088V145H67.9891V140.596C67.9891 139.096 67.1731 138.52 65.9851 138.52C64.9411 138.52 64.1611 139.168 63.9211 139.828H63.8971C63.6691 138.952 62.9491 138.52 61.9891 138.52C60.9811 138.52 60.2491 139.096 59.9611 139.744H59.9371V138.676H58.9171V145ZM73.58 145H74.648V137.296H74.672C74.672 137.296 74.792 137.584 75.152 138.184L79.22 145H80.648V135.82H79.592V143.548H79.556C79.556 143.548 79.4 143.152 79.088 142.648L75.008 135.82H73.58V145ZM84.2351 141.1H88.2311V140.128H84.2351V136.816H88.6031V135.82H83.1191V145H84.2351V141.1ZM97.2615 135.82H89.7855V136.792H92.9655V145H94.0815V136.792H97.2615V135.82ZM102.01 140.26C101.902 139.156 101.122 138.52 99.7545 138.52C98.3145 138.52 97.4625 139.324 97.4625 140.44C97.4625 141.544 98.0625 142.012 99.1905 142.192L100.162 142.336C101.026 142.48 101.158 142.756 101.158 143.26C101.158 143.92 100.618 144.328 99.7545 144.328C98.6385 144.328 98.3625 143.704 98.3145 143.212H97.2585C97.3425 144.568 98.4225 145.156 99.7305 145.156C101.17 145.156 102.202 144.472 102.202 143.2C102.202 142.108 101.722 141.568 100.402 141.364L99.4305 141.22C98.7945 141.112 98.4825 140.872 98.4825 140.356C98.4825 139.768 98.9745 139.336 99.7185 139.336C100.462 139.336 100.918 139.696 100.978 140.26H102.01Z" fill="black"/>
<rect width="60" height="40" transform="translate(165 120)" fill="#EDEDED"/>
<rect x="165" y="120" width="59.9999" height="40" fill="#EDEDED" stroke="black"/>
<path d="M181 141.631L184.556 145.191L193 134.905" stroke="black" stroke-width="1.3"/>
<rect width="123" height="40" transform="translate(225 120)" fill="#EDEDED"/>
<rect x="225" y="120" width="123" height="40" fill="#EDEDED" stroke="black"/>
<path d="M240.504 141.631L244.059 145.191L252.504 134.905" stroke="black" stroke-width="1.3"/>
<rect width="164" height="40" transform="translate(1 160)" fill="#EDEDED"/>
<rect x="1" y="160" width="163.977" height="40" fill="#EDEDED" stroke="black"/>
<path d="M20.656 175.82H13.18V176.792H16.36V185H17.476V176.792H20.656V175.82ZM24.7403 181.28H21.5003C21.6323 180.128 22.1843 179.336 23.1923 179.336C24.2963 179.336 24.7163 180.152 24.7403 181.208V181.28ZM25.7603 183.344H24.7163C24.6083 183.716 24.3323 184.328 23.2763 184.328C22.0883 184.328 21.5603 183.44 21.4883 182.132H25.8443V181.58C25.8443 179.984 25.1003 178.52 23.2043 178.52C21.3923 178.52 20.3843 179.996 20.3843 181.868C20.3843 183.752 21.3083 185.156 23.2403 185.156C24.5963 185.156 25.5323 184.436 25.7603 183.344ZM27.21 179.552H30.726L27.042 184.052V185H32.058V184.112H28.266L31.974 179.612V178.676H27.21V179.552ZM36.0012 185.156C37.7772 185.156 38.8452 183.812 38.8452 181.832C38.8452 179.876 37.9092 178.52 36.0252 178.52C34.2612 178.52 33.1812 179.876 33.1812 181.832C33.1812 183.812 34.1412 185.156 36.0012 185.156ZM36.0132 179.348C37.2252 179.348 37.7292 180.296 37.7292 181.832C37.7292 183.38 37.2132 184.316 36.0372 184.316C34.8132 184.316 34.2972 183.38 34.2972 181.832C34.2972 180.296 34.8612 179.348 36.0132 179.348ZM44.7644 180.26C44.6564 179.156 43.8764 178.52 42.5084 178.52C41.0684 178.52 40.2164 179.324 40.2164 180.44C40.2164 181.544 40.8164 182.012 41.9444 182.192L42.9164 182.336C43.7804 182.48 43.9124 182.756 43.9124 183.26C43.9124 183.92 43.3724 184.328 42.5084 184.328C41.3924 184.328 41.1164 183.704 41.0684 183.212H40.0124C40.0964 184.568 41.1764 185.156 42.4844 185.156C43.9244 185.156 44.9564 184.472 44.9564 183.2C44.9564 182.108 44.4764 181.568 43.1564 181.364L42.1844 181.22C41.5484 181.112 41.2364 180.872 41.2364 180.356C41.2364 179.768 41.7284 179.336 42.4724 179.336C43.2164 179.336 43.6724 179.696 43.7324 180.26H44.7644ZM50.0371 185H51.1051V177.296H51.1291C51.1291 177.296 51.2491 177.584 51.6091 178.184L55.6771 185H57.1051V175.82H56.0491V183.548H56.0131C56.0131 183.548 55.8571 183.152 55.5451 182.648L51.4651 175.82H50.0371V185ZM60.6921 181.1H64.6881V180.128H60.6921V176.816H65.0601V175.82H59.5761V185H60.6921V181.1ZM73.7185 175.82H66.2425V176.792H69.4225V185H70.5385V176.792H73.7185V175.82ZM78.4675 180.26C78.3595 179.156 77.5795 178.52 76.2115 178.52C74.7715 178.52 73.9195 179.324 73.9195 180.44C73.9195 181.544 74.5195 182.012 75.6475 182.192L76.6195 182.336C77.4835 182.48 77.6155 182.756 77.6155 183.26C77.6155 183.92 77.0755 184.328 76.2115 184.328C75.0955 184.328 74.8195 183.704 74.7715 183.212H73.7155C73.7995 184.568 74.8795 185.156 76.1875 185.156C77.6275 185.156 78.6595 184.472 78.6595 183.2C78.6595 182.108 78.1795 181.568 76.8595 181.364L75.8875 181.22C75.2515 181.112 74.9395 180.872 74.9395 180.356C74.9395 179.768 75.4315 179.336 76.1755 179.336C76.9195 179.336 77.3755 179.696 77.4355 180.26H78.4675Z" fill="black"/>
<rect width="60" height="40" transform="translate(165 160)" fill="#EDEDED"/>
<rect x="165" y="160" width="59.9999" height="40" fill="#EDEDED" stroke="black"/>
<path d="M181 181.631L184.556 185.191L193 174.905" stroke="black" stroke-width="1.3"/>
<rect width="123" height="40" transform="translate(225 160)" fill="#EDEDED"/>
<rect x="225" y="160" width="123" height="40" fill="#EDEDED" stroke="black"/>
<path d="M240.504 181.631L244.059 185.191L252.504 174.905" stroke="black" stroke-width="1.3"/>
<rect width="164" height="40" transform="translate(1 200)" fill="#EDEDED"/>
<rect x="1" y="200" width="163.977" height="40" fill="#EDEDED" stroke="black"/>
<path d="M16.78 225H18.076L21.34 215.82H20.212L17.86 222.6C17.548 223.512 17.452 224.004 17.452 224.004H17.428C17.428 224.004 17.344 223.512 17.032 222.576L14.668 215.82H13.48L16.78 225ZM22.6938 217.236H23.8338V216.072H22.6938V217.236ZM22.7178 225H23.8098V218.676H22.7178V225ZM29.8614 221.28H26.6214C26.7534 220.128 27.3054 219.336 28.3134 219.336C29.4174 219.336 29.8374 220.152 29.8614 221.208V221.28ZM30.8814 223.344H29.8374C29.7294 223.716 29.4534 224.328 28.3974 224.328C27.2094 224.328 26.6814 223.44 26.6094 222.132H30.9654V221.58C30.9654 219.984 30.2214 218.52 28.3254 218.52C26.5134 218.52 25.5054 219.996 25.5054 221.868C25.5054 223.752 26.4294 225.156 28.3614 225.156C29.7174 225.156 30.6534 224.436 30.8814 223.344ZM33.8311 225H34.9711L36.1351 221.28C36.3151 220.704 36.5311 219.936 36.5311 219.936H36.5431C36.5431 219.936 36.7591 220.692 36.9391 221.28L38.0911 225H39.2311L41.1871 218.676H40.1431L38.8951 222.948C38.7871 223.32 38.6911 223.74 38.6911 223.74H38.6671C38.6671 223.74 38.5591 223.32 38.4391 222.948L37.1071 218.676H36.0031L34.6591 222.948C34.5391 223.32 34.4191 223.74 34.4191 223.74H34.3951C34.3951 223.74 34.2991 223.332 34.1911 222.936L32.9671 218.676H31.8631L33.8311 225ZM48.1653 225.156C49.9413 225.156 51.0093 223.812 51.0093 221.832C51.0093 219.876 50.0733 218.52 48.1893 218.52C46.4253 218.52 45.3453 219.876 45.3453 221.832C45.3453 223.812 46.3053 225.156 48.1653 225.156ZM48.1773 219.348C49.3893 219.348 49.8933 220.296 49.8933 221.832C49.8933 223.38 49.3773 224.316 48.2013 224.316C46.9773 224.316 46.4613 223.38 46.4613 221.832C46.4613 220.296 47.0253 219.348 48.1773 219.348ZM56.7378 225H57.8178V220.596C57.8178 219.096 57.0138 218.52 55.8018 218.52C54.7938 218.52 54.0618 219.096 53.7618 219.744H53.7378V218.676H52.7178V225H53.7978V221.208C53.7978 220.176 54.3378 219.42 55.5138 219.42C55.9338 219.42 56.2938 219.54 56.5098 219.84C56.7378 220.14 56.7378 220.644 56.7378 221.1V225ZM69.8162 215.82H62.3402V216.792H65.5202V225H66.6362V216.792H69.8162V215.82ZM74.0144 225H75.3104L78.5744 215.82H77.4464L75.0944 222.6C74.7824 223.512 74.6864 224.004 74.6864 224.004H74.6624C74.6624 224.004 74.5784 223.512 74.2664 222.576L71.9024 215.82H70.7144L74.0144 225ZM77.9353 226.56H78.9073L84.3553 215.544H83.3833L77.9353 226.56ZM85.8243 222.072V221.4C85.8243 220.332 86.5083 219.384 87.6243 219.384C88.9203 219.384 89.3163 220.404 89.3163 221.748C89.3163 223.404 88.7643 224.304 87.6363 224.304C86.4363 224.304 85.8243 223.32 85.8243 222.072ZM84.7803 227.256H85.8603V224.076H85.8843C86.1243 224.64 86.8683 225.156 87.7923 225.156C89.2203 225.156 90.4083 224.052 90.4083 221.748C90.4083 219.348 89.2083 218.52 87.8643 218.52C86.9043 218.52 86.2203 219.06 85.8483 219.732H85.8243V218.676H84.7803V227.256ZM92.1163 225H93.1963V221.556C93.1963 220.332 93.9403 219.684 95.0683 219.684H95.2723V218.556H95.1643C94.2403 218.556 93.4483 219.204 93.1603 219.864H93.1363V218.676H92.1163V225ZM98.9426 225.156C100.719 225.156 101.787 223.812 101.787 221.832C101.787 219.876 100.851 218.52 98.9666 218.52C97.2026 218.52 96.1226 219.876 96.1226 221.832C96.1226 223.812 97.0826 225.156 98.9426 225.156ZM98.9546 219.348C100.167 219.348 100.671 220.296 100.671 221.832C100.671 223.38 100.155 224.316 98.9786 224.316C97.7546 224.316 97.2386 223.38 97.2386 221.832C97.2386 220.296 97.8026 219.348 98.9546 219.348ZM103.471 217.236H104.611V216.072H103.471V217.236ZM102.763 227.388C103.783 227.388 104.587 226.908 104.587 225.648V218.676H103.495V225.564C103.495 226.236 103.207 226.464 102.667 226.464C102.451 226.464 102.271 226.44 102.115 226.392V227.304C102.283 227.352 102.523 227.388 102.763 227.388ZM110.639 221.28H107.399C107.531 220.128 108.083 219.336 109.091 219.336C110.195 219.336 110.615 220.152 110.639 221.208V221.28ZM111.659 223.344H110.615C110.507 223.716 110.231 224.328 109.175 224.328C107.987 224.328 107.459 223.44 107.387 222.132H111.743V221.58C111.743 219.984 110.999 218.52 109.103 218.52C107.291 218.52 106.283 219.996 106.283 221.868C106.283 223.752 107.207 225.156 109.139 225.156C110.495 225.156 111.431 224.436 111.659 223.344ZM118.279 220.584C118.171 219.096 117.031 218.52 115.771 218.52C113.995 218.52 112.939 219.936 112.939 221.868C112.939 223.872 113.923 225.144 115.747 225.144C117.115 225.144 118.159 224.4 118.315 222.936H117.307C117.271 223.416 116.959 224.304 115.759 224.304C114.487 224.304 114.043 223.284 114.043 221.82C114.043 220.344 114.643 219.348 115.783 219.348C116.695 219.348 117.151 219.936 117.223 220.584H118.279ZM120.285 216.84V217.296C120.285 218.508 120.093 218.712 119.241 218.712H119.049V219.504H120.201V223.416C120.201 224.496 120.693 225.096 121.929 225.096C122.481 225.096 122.925 225.024 122.925 225.024V224.112C122.925 224.112 122.553 224.172 122.229 224.172C121.545 224.172 121.269 223.908 121.269 223.236V219.504H122.829V218.676H121.269V216.84H120.285ZM126.669 225.156C128.445 225.156 129.513 223.812 129.513 221.832C129.513 219.876 128.577 218.52 126.693 218.52C124.929 218.52 123.849 219.876 123.849 221.832C123.849 223.812 124.809 225.156 126.669 225.156ZM126.681 219.348C127.893 219.348 128.397 220.296 128.397 221.832C128.397 223.38 127.881 224.316 126.705 224.316C125.481 224.316 124.965 223.38 124.965 221.832C124.965 220.296 125.529 219.348 126.681 219.348ZM131.222 225H132.302V221.556C132.302 220.332 133.046 219.684 134.174 219.684H134.378V218.556H134.27C133.346 218.556 132.554 219.204 132.266 219.864H132.242V218.676H131.222V225ZM137.588 218.28L138.5 219.984L139.352 219.348L138.032 217.98V217.956L139.844 217.572L139.484 216.576L137.84 217.44L137.816 217.416L138.092 215.544H137.048L137.324 217.416L137.3 217.44L135.644 216.576L135.296 217.572L137.108 217.956V217.98L135.788 219.348L136.64 219.984L137.564 218.28H137.588Z" fill="black"/>
<rect width="60" height="40" transform="translate(165 200)" fill="#EDEDED"/>
<rect x="165" y="200" width="59.9999" height="40" fill="#EDEDED" stroke="black"/>
<path d="M182.449 221.088H177.994V222.182H182.449V221.088Z" fill="black"/>
<rect width="123" height="40" transform="translate(225 200)" fill="#EDEDED"/>
<rect x="225" y="200" width="123" height="40" fill="#EDEDED" stroke="black"/>
<path d="M240.504 221.631L244.059 225.191L252.504 214.905" stroke="black" stroke-width="1.3"/>
<rect width="163" height="40" transform="translate(1 240)" fill="#EDEDED"/>
<path d="M1 240H165V280H1V240Z" fill="#EDEDED" stroke="black"/>
<path d="M16.912 261.496C18.796 261.496 20.164 260.584 20.164 258.64C20.164 256.66 18.784 255.82 17.008 255.82H14.248V265H15.364V261.496H16.912ZM15.364 260.596V256.72H16.948C18.244 256.72 19.012 257.272 19.012 258.64C19.012 259.948 18.244 260.596 16.912 260.596H15.364ZM21.3116 265H22.3916V261.556C22.3916 260.332 23.1356 259.684 24.2636 259.684H24.4676V258.556H24.3596C23.4356 258.556 22.6436 259.204 22.3556 259.864H22.3316V258.676H21.3116V265ZM25.9751 257.236H27.1151V256.072H25.9751V257.236ZM25.9991 265H27.0911V258.676H25.9991V265ZM31.6067 265.156C33.3827 265.156 34.4507 263.812 34.4507 261.832C34.4507 259.876 33.5147 258.52 31.6307 258.52C29.8667 258.52 28.7867 259.876 28.7867 261.832C28.7867 263.812 29.7467 265.156 31.6067 265.156ZM31.6187 259.348C32.8307 259.348 33.3347 260.296 33.3347 261.832C33.3347 263.38 32.8187 264.316 31.6427 264.316C30.4187 264.316 29.9027 263.38 29.9027 261.832C29.9027 260.296 30.4667 259.348 31.6187 259.348ZM36.1593 265H37.2393V261.556C37.2393 260.332 37.9833 259.684 39.1113 259.684H39.3153V258.556H39.2073C38.2833 258.556 37.4913 259.204 37.2033 259.864H37.1793V258.676H36.1593V265ZM40.8228 257.236H41.9628V256.072H40.8228V257.236ZM40.8468 265H41.9388V258.676H40.8468V265ZM44.5463 256.84V257.296C44.5463 258.508 44.3543 258.712 43.5023 258.712H43.3103V259.504H44.4623V263.416C44.4623 264.496 44.9543 265.096 46.1903 265.096C46.7423 265.096 47.1863 265.024 47.1863 265.024V264.112C47.1863 264.112 46.8143 264.172 46.4903 264.172C45.8063 264.172 45.5303 263.908 45.5303 263.236V259.504H47.0903V258.676H45.5303V256.84H44.5463ZM50.2695 265L50.1495 265.336C49.8735 266.188 49.6095 266.488 48.8055 266.488C48.6975 266.488 48.4575 266.476 48.2535 266.428V267.316C48.4215 267.352 48.6615 267.388 48.9015 267.388C50.2695 267.388 50.6895 266.848 51.1935 265.396L53.4975 258.676H52.4175L51.1215 262.624C50.9175 263.236 50.8095 263.62 50.8095 263.62H50.7735C50.7735 263.62 50.6655 263.236 50.4615 262.636L49.1415 258.676H48.0615L50.2695 265ZM64.5134 258.28C64.4294 256.72 63.4214 255.688 61.4774 255.688C59.5934 255.688 58.3694 256.768 58.3694 258.256C58.3694 259.456 59.0054 260.416 60.8054 260.752L62.0894 260.98C63.2174 261.172 63.6494 261.724 63.6494 262.516C63.6494 263.488 63.1094 264.28 61.4774 264.28C60.0014 264.28 59.3174 263.404 59.1854 262.42H58.0214C58.1174 264.04 59.3294 265.18 61.4534 265.18C63.6494 265.18 64.7894 264.1 64.7894 262.42C64.7894 261.112 64.1654 260.236 62.3774 259.912L61.0814 259.684C60.0014 259.48 59.5454 259 59.5454 258.16C59.5454 257.284 60.2174 256.576 61.4654 256.576C62.7494 256.576 63.2654 257.38 63.3734 258.28H64.5134ZM67.8478 258.676H66.7798V263.08C66.7798 264.568 67.5958 265.156 68.8078 265.156C69.8158 265.156 70.5118 264.568 70.7998 263.92H70.8238V265H71.8558V258.676H70.7758V262.096C70.7758 263.488 70.2238 264.268 69.0478 264.268C68.6278 264.268 68.2918 264.136 68.0758 263.848C67.8478 263.548 67.8478 263.02 67.8478 262.564V258.676ZM75.1486 262.072V261.4C75.1486 260.332 75.8326 259.384 76.9486 259.384C78.2446 259.384 78.6406 260.404 78.6406 261.748C78.6406 263.404 78.0886 264.304 76.9606 264.304C75.7606 264.304 75.1486 263.32 75.1486 262.072ZM74.1046 267.256H75.1846V264.076H75.2086C75.4486 264.64 76.1926 265.156 77.1166 265.156C78.5446 265.156 79.7326 264.052 79.7326 261.748C79.7326 259.348 78.5326 258.52 77.1886 258.52C76.2286 258.52 75.5446 259.06 75.1726 259.732H75.1486V258.676H74.1046V267.256ZM82.4845 262.072V261.4C82.4845 260.332 83.1685 259.384 84.2845 259.384C85.5805 259.384 85.9765 260.404 85.9765 261.748C85.9765 263.404 85.4245 264.304 84.2965 264.304C83.0965 264.304 82.4845 263.32 82.4845 262.072ZM81.4405 267.256H82.5205V264.076H82.5445C82.7845 264.64 83.5285 265.156 84.4525 265.156C85.8805 265.156 87.0685 264.052 87.0685 261.748C87.0685 259.348 85.8685 258.52 84.5245 258.52C83.5645 258.52 82.8805 259.06 82.5085 259.732H82.4845V258.676H81.4405V267.256ZM91.1496 265.156C92.9256 265.156 93.9936 263.812 93.9936 261.832C93.9936 259.876 93.0576 258.52 91.1736 258.52C89.4096 258.52 88.3296 259.876 88.3296 261.832C88.3296 263.812 89.2896 265.156 91.1496 265.156ZM91.1616 259.348C92.3736 259.348 92.8776 260.296 92.8776 261.832C92.8776 263.38 92.3616 264.316 91.1856 264.316C89.9616 264.316 89.4456 263.38 89.4456 261.832C89.4456 260.296 90.0096 259.348 91.1616 259.348ZM95.7022 265H96.7822V261.556C96.7822 260.332 97.5262 259.684 98.6542 259.684H98.8582V258.556H98.7502C97.8262 258.556 97.0342 259.204 96.7462 259.864H96.7222V258.676H95.7022V265ZM100.914 256.84V257.296C100.914 258.508 100.722 258.712 99.8695 258.712H99.6775V259.504H100.83V263.416C100.83 264.496 101.322 265.096 102.558 265.096C103.11 265.096 103.554 265.024 103.554 265.024V264.112C103.554 264.112 103.182 264.172 102.858 264.172C102.174 264.172 101.898 263.908 101.898 263.236V259.504H103.458V258.676H101.898V256.84H100.914Z" fill="black"/>
<rect width="60" height="40" transform="translate(165 240)" fill="#EDEDED"/>
<rect x="165" y="240" width="59.9999" height="40" fill="#EDEDED" stroke="black"/>
<path d="M182.449 261.088H177.994V262.182H182.449V261.088Z" fill="black"/>
<rect width="123" height="40" transform="translate(225 240)" fill="#EDEDED"/>
<path d="M225 240H348V280H225V240Z" fill="#EDEDED" stroke="black"/>
<path d="M240.504 261.631L244.059 265.191L252.504 254.905" stroke="black" stroke-width="1.3"/>
</svg>
