<svg width="349" height="322" viewBox="0 0 349 322" fill="none" xmlns="http://www.w3.org/2000/svg">
<rect width="347" height="320" transform="translate(1 0.829529)" fill="#EDEDED"/>
<rect width="164" height="40" transform="translate(1 0.829529)" fill="#EDEDED"/>
<path d="M1 0.829529H165V40.8295H1V0.829529Z" fill="black" stroke="black"/>
<rect width="60" height="40" transform="translate(165 0.829529)" fill="#EDEDED"/>
<rect x="165" y="0.829529" width="59.9487" height="40" fill="black" stroke="black"/>
<path d="M179.892 22.2895H183.48V20.8135H179.892V18.1495H183.696V16.6495H177.924V25.8295H179.892V22.2895ZM184.929 25.8295H186.825V22.6495C186.825 21.4135 187.485 21.0175 188.649 21.0175H188.985V19.2895H188.877C188.013 19.2895 187.113 19.7815 186.753 20.7535H186.729V19.3975H184.929V25.8295ZM193.859 21.9655H191.435C191.531 20.9815 191.939 20.4295 192.719 20.4295C193.439 20.4295 193.799 20.9695 193.859 21.8815V21.9655ZM195.743 23.9575H193.871C193.751 24.3415 193.511 24.7135 192.755 24.7135C191.951 24.7135 191.519 24.2095 191.435 23.0575H195.803V22.5535C195.803 20.6695 194.891 19.2415 192.719 19.2415C190.691 19.2415 189.515 20.6335 189.515 22.6015C189.515 24.6655 190.619 25.9975 192.695 25.9975C194.435 25.9975 195.551 25.2055 195.743 23.9575ZM201.066 21.9655H198.642C198.738 20.9815 199.146 20.4295 199.926 20.4295C200.646 20.4295 201.006 20.9695 201.066 21.8815V21.9655ZM202.95 23.9575H201.078C200.958 24.3415 200.718 24.7135 199.962 24.7135C199.158 24.7135 198.726 24.2095 198.642 23.0575H203.01V22.5535C203.01 20.6695 202.098 19.2415 199.926 19.2415C197.898 19.2415 196.722 20.6335 196.722 22.6015C196.722 24.6655 197.826 25.9975 199.902 25.9975C201.642 25.9975 202.758 25.2055 202.95 23.9575Z" fill="#EDEDED"/>
<rect width="123" height="40" transform="translate(225 0.829529)" fill="#EDEDED"/>
<path d="M225 0.829529H347.971V40.8295H225V0.829529Z" fill="black" stroke="black"/>
<path d="M240.528 20.3695C239.808 20.2255 239.436 19.8415 239.436 19.2535C239.436 18.7615 239.748 18.3175 240.528 18.2095V20.3695ZM241.368 24.5335V22.2775C242.184 22.4455 242.58 22.7335 242.58 23.3815C242.58 23.9695 242.232 24.4255 241.392 24.5335H241.368ZM241.368 27.2215V25.9615C243.384 25.8295 244.488 24.7855 244.488 23.0815C244.488 21.7135 243.612 20.8855 241.812 20.5855L241.368 20.5135V18.2215C242.088 18.3775 242.4 18.8935 242.436 19.4095H244.308C244.188 18.1015 243.288 17.0095 241.368 16.8655V15.8935H240.528V16.8655C238.656 17.0095 237.552 18.0775 237.552 19.4455C237.552 21.0895 238.584 21.7855 240.12 22.0495L240.528 22.1215V24.5215C239.736 24.3895 239.364 23.8975 239.28 23.2495H237.408C237.504 24.8935 238.632 25.8415 240.528 25.9615V27.2215H241.368ZM247.353 22.4215L249.261 19.5415C249.609 19.0135 249.765 18.5815 249.765 18.5815H249.789V22.4215H247.353ZM252.705 23.8615V22.3975H251.625V16.9375H249.369L245.553 22.5295V23.8615H249.753V25.8295H251.625V23.8615H252.705ZM253.798 25.8295H255.826V23.9215H253.798V25.8295ZM260.352 18.2935C261.036 18.2935 261.756 18.7855 261.756 19.8055C261.756 20.8015 261.132 21.3175 260.352 21.3175C259.608 21.3175 258.96 20.7895 258.96 19.8055C258.96 18.7375 259.692 18.2935 260.352 18.2935ZM257.208 23.6815C257.376 25.0975 258.408 26.0095 260.148 26.0095C262.368 26.0095 263.832 24.4735 263.832 21.1135C263.832 18.2095 262.536 16.8055 260.388 16.8055C258.24 16.8055 257.016 18.1975 257.016 19.8655C257.016 21.7375 258.408 22.6975 259.848 22.6975C260.76 22.6975 261.48 22.3015 261.828 21.6655H261.864C261.828 23.5855 261.288 24.6055 260.196 24.6055C259.596 24.6055 259.092 24.2935 258.972 23.6815H257.208ZM268.286 18.2935C268.97 18.2935 269.69 18.7855 269.69 19.8055C269.69 20.8015 269.066 21.3175 268.286 21.3175C267.542 21.3175 266.894 20.7895 266.894 19.8055C266.894 18.7375 267.626 18.2935 268.286 18.2935ZM265.142 23.6815C265.31 25.0975 266.342 26.0095 268.082 26.0095C270.302 26.0095 271.766 24.4735 271.766 21.1135C271.766 18.2095 270.47 16.8055 268.322 16.8055C266.174 16.8055 264.95 18.1975 264.95 19.8655C264.95 21.7375 266.342 22.6975 267.782 22.6975C268.694 22.6975 269.414 22.3015 269.762 21.6655H269.798C269.762 23.5855 269.222 24.6055 268.13 24.6055C267.53 24.6055 267.026 24.2935 266.906 23.6815H265.142ZM271.602 27.3895H273.054L278.502 16.3735H277.062L271.602 27.3895ZM278.668 25.8295H280.576V22.0975C280.576 21.1735 281.02 20.6335 281.824 20.6335C282.172 20.6335 282.46 20.7535 282.628 21.0055C282.796 21.2455 282.82 21.6055 282.82 22.0615V25.8295H284.728V22.1095C284.728 21.1735 285.172 20.6335 285.976 20.6335C286.324 20.6335 286.612 20.7415 286.78 21.0055C286.948 21.2455 286.972 21.6055 286.972 22.0615V25.8295H288.88V21.6535C288.88 20.0695 288.232 19.2655 286.72 19.2655C285.544 19.2655 284.848 19.9975 284.596 20.5975H284.572C284.332 19.7935 283.756 19.2655 282.568 19.2655C281.512 19.2655 280.864 19.8295 280.528 20.4535H280.504V19.3975H278.668V25.8295ZM293.337 25.9975C295.269 25.9975 296.601 24.7135 296.601 22.6135C296.601 20.4895 295.317 19.2415 293.349 19.2415C291.333 19.2415 290.085 20.5015 290.085 22.6135C290.085 24.7135 291.309 25.9975 293.337 25.9975ZM293.349 20.5255C294.285 20.5255 294.621 21.3775 294.621 22.6135C294.621 23.8015 294.309 24.7135 293.349 24.7135C292.413 24.7135 292.053 23.8615 292.053 22.6135C292.053 21.4255 292.401 20.5255 293.349 20.5255ZM302.04 25.8295H303.948V21.6535C303.948 20.0695 303.312 19.2655 301.764 19.2655C300.66 19.2655 300.024 19.8055 299.676 20.4535H299.652V19.3975H297.816V25.8295H299.724V22.1095C299.724 21.1735 300.168 20.6335 301.02 20.6335C301.38 20.6335 301.668 20.7535 301.848 21.0055C302.016 21.2455 302.04 21.6175 302.04 22.0735V25.8295ZM306.057 17.5855V18.0775C306.057 19.2415 305.913 19.4095 305.097 19.4095H304.881V20.7175H305.829V23.9215C305.829 25.3735 306.609 25.9135 307.869 25.9135C308.409 25.9135 308.889 25.8655 309.141 25.8415V24.4495C309.141 24.4495 308.829 24.4975 308.601 24.4975C307.953 24.4975 307.713 24.2095 307.713 23.5615V20.7175H309.129V19.3975H307.689V17.5855H306.057ZM314.485 25.8295H316.393V21.6535C316.393 20.0695 315.757 19.2655 314.209 19.2655C313.153 19.2655 312.481 19.8415 312.193 20.4295H312.169V16.3735H310.261V25.8295H312.169V22.1095C312.169 21.1735 312.613 20.6335 313.465 20.6335C313.825 20.6335 314.113 20.7535 314.293 21.0055C314.461 21.2455 314.485 21.6055 314.485 22.0615V25.8295Z" fill="#EDEDED"/>
<rect width="164" height="40" transform="translate(1 40.8295)" fill="#EDEDED"/>
<rect x="1" y="40.8295" width="163.846" height="40" fill="#EDEDED" stroke="black"/>
<path d="M16.372 65.8295H17.476V61.8335L20.704 56.6495H19.516L16.936 60.8855H16.912L14.428 56.6495H13.132L16.372 61.9055V65.8295ZM23.3215 65.9855C25.0975 65.9855 26.1655 64.6415 26.1655 62.6615C26.1655 60.7055 25.2295 59.3495 23.3455 59.3495C21.5815 59.3495 20.5015 60.7055 20.5015 62.6615C20.5015 64.6415 21.4615 65.9855 23.3215 65.9855ZM23.3335 60.1775C24.5455 60.1775 25.0495 61.1255 25.0495 62.6615C25.0495 64.2095 24.5335 65.1455 23.3575 65.1455C22.1335 65.1455 21.6175 64.2095 21.6175 62.6615C21.6175 61.1255 22.1815 60.1775 23.3335 60.1775ZM28.9181 59.5055H27.8501V63.9095C27.8501 65.3975 28.6661 65.9855 29.8781 65.9855C30.8861 65.9855 31.5821 65.3975 31.8701 64.7495H31.8941V65.8295H32.9261V59.5055H31.8461V62.9255C31.8461 64.3175 31.2941 65.0975 30.1181 65.0975C29.6981 65.0975 29.3621 64.9655 29.1461 64.6775C28.9181 64.3775 28.9181 63.8495 28.9181 63.3935V59.5055ZM35.1749 65.8295H36.2549V62.3855C36.2549 61.1615 36.9989 60.5135 38.1269 60.5135H38.3309V59.3855H38.2229C37.2989 59.3855 36.5069 60.0335 36.2189 60.6935H36.1949V59.5055H35.1749V65.8295ZM45.3879 65.9855C47.1639 65.9855 48.2319 64.6415 48.2319 62.6615C48.2319 60.7055 47.2959 59.3495 45.4119 59.3495C43.6479 59.3495 42.5679 60.7055 42.5679 62.6615C42.5679 64.6415 43.5279 65.9855 45.3879 65.9855ZM45.3999 60.1775C46.6119 60.1775 47.1159 61.1255 47.1159 62.6615C47.1159 64.2095 46.5999 65.1455 45.4239 65.1455C44.1999 65.1455 43.6839 64.2095 43.6839 62.6615C43.6839 61.1255 44.2479 60.1775 45.3999 60.1775ZM51.0459 65.8295H52.1859L53.3499 62.1095C53.5299 61.5335 53.7459 60.7655 53.7459 60.7655H53.7579C53.7579 60.7655 53.9739 61.5215 54.1539 62.1095L55.3059 65.8295H56.4459L58.4019 59.5055H57.3579L56.1099 63.7775C56.0019 64.1495 55.9059 64.5695 55.9059 64.5695H55.8819C55.8819 64.5695 55.7739 64.1495 55.6539 63.7775L54.3219 59.5055H53.2179L51.8739 63.7775C51.7539 64.1495 51.6339 64.5695 51.6339 64.5695H51.6099C51.6099 64.5695 51.5139 64.1615 51.4059 63.7655L50.1819 59.5055H49.0779L51.0459 65.8295ZM63.8746 65.8295H64.9546V61.4255C64.9546 59.9255 64.1506 59.3495 62.9386 59.3495C61.9306 59.3495 61.1986 59.9255 60.8986 60.5735H60.8746V59.5055H59.8546V65.8295H60.9346V62.0375C60.9346 61.0055 61.4746 60.2495 62.6506 60.2495C63.0706 60.2495 63.4306 60.3695 63.6466 60.6695C63.8746 60.9695 63.8746 61.4735 63.8746 61.9295V65.8295ZM71.5049 63.8975L72.5609 62.7095L74.4089 65.8295H75.6689L73.2929 61.8815L75.4049 59.5055H74.1449L71.5049 62.5535V56.3735H70.4249V65.8295H71.5049V63.8975ZM80.7325 62.1095H77.4925C77.6245 60.9575 78.1765 60.1655 79.1845 60.1655C80.2885 60.1655 80.7085 60.9815 80.7325 62.0375V62.1095ZM81.7525 64.1735H80.7085C80.6005 64.5455 80.3245 65.1575 79.2685 65.1575C78.0805 65.1575 77.5525 64.2695 77.4805 62.9615H81.8365V62.4095C81.8365 60.8135 81.0925 59.3495 79.1965 59.3495C77.3845 59.3495 76.3765 60.8255 76.3765 62.6975C76.3765 64.5815 77.3005 65.9855 79.2325 65.9855C80.5885 65.9855 81.5245 65.2655 81.7525 64.1735ZM85.0156 65.8295L84.8956 66.1655C84.6196 67.0175 84.3556 67.3175 83.5516 67.3175C83.4436 67.3175 83.2036 67.3055 82.9996 67.2575V68.1455C83.1676 68.1815 83.4076 68.2175 83.6476 68.2175C85.0156 68.2175 85.4356 67.6775 85.9396 66.2255L88.2436 59.5055H87.1636L85.8676 63.4535C85.6636 64.0655 85.5556 64.4495 85.5556 64.4495H85.5196C85.5196 64.4495 85.4116 64.0655 85.2076 63.4655L83.8876 59.5055H82.8076L85.0156 65.8295ZM93.8659 61.0895C93.7579 59.9855 92.9779 59.3495 91.6099 59.3495C90.1699 59.3495 89.3179 60.1535 89.3179 61.2695C89.3179 62.3735 89.9179 62.8415 91.0459 63.0215L92.0179 63.1655C92.8819 63.3095 93.0139 63.5855 93.0139 64.0895C93.0139 64.7495 92.4739 65.1575 91.6099 65.1575C90.4939 65.1575 90.2179 64.5335 90.1699 64.0415H89.1139C89.1979 65.3975 90.2779 65.9855 91.5859 65.9855C93.0259 65.9855 94.0579 65.3015 94.0579 64.0295C94.0579 62.9375 93.5779 62.3975 92.2579 62.1935L91.2859 62.0495C90.6499 61.9415 90.3379 61.7015 90.3379 61.1855C90.3379 60.5975 90.8299 60.1655 91.5739 60.1655C92.3179 60.1655 92.7739 60.5255 92.8339 61.0895H93.8659Z" fill="black"/>
<rect width="60" height="40" transform="translate(165 40.8295)" fill="#EDEDED"/>
<rect x="165" y="40.7348" width="59.9001" height="40" fill="#EDEDED" stroke="black"/>
<path d="M181 62.4601L184.556 66.0205L193 55.7348" stroke="black" stroke-width="1.3"/>
<rect width="123" height="40" transform="translate(225 40.8295)" fill="#EDEDED"/>
<rect x="225" y="40.8295" width="122.971" height="40" fill="#EDEDED" stroke="black"/>
<path d="M240.504 62.4601L244.059 66.0205L252.504 55.7348" stroke="black" stroke-width="1.3"/>
<rect width="164" height="40" transform="translate(1 80.8295)" fill="#EDEDED"/>
<rect x="1" y="80.8295" width="163.977" height="40" fill="#EDEDED" stroke="black"/>
<path d="M17.584 105.83C19.432 105.83 20.98 105.23 20.98 103.166C20.98 102.062 20.164 101.15 19.012 100.958V100.934C20.068 100.694 20.692 99.9975 20.692 98.8815C20.692 97.3815 19.432 96.6495 17.86 96.6495H14.248V105.83H17.584ZM15.364 100.514V97.5495H17.8C18.82 97.5495 19.528 97.9935 19.528 98.9895C19.528 100.166 18.628 100.514 17.656 100.514H15.364ZM15.364 104.93V101.438H17.5C18.952 101.438 19.816 101.882 19.816 103.094C19.816 104.474 18.94 104.93 17.596 104.93H15.364ZM22.8931 98.0655H24.0331V96.9015H22.8931V98.0655ZM22.9171 105.83H24.0091V99.5055H22.9171V105.83ZM26.6166 97.6695V98.1255C26.6166 99.3375 26.4246 99.5415 25.5726 99.5415H25.3806V100.334H26.5326V104.246C26.5326 105.326 27.0246 105.926 28.2606 105.926C28.8126 105.926 29.2566 105.854 29.2566 105.854V104.942C29.2566 104.942 28.8846 105.002 28.5606 105.002C27.8766 105.002 27.6006 104.738 27.6006 104.066V100.334H29.1606V99.5055H27.6006V97.6695H26.6166ZM30.6866 105.83H31.7666V102.014C31.7666 101.006 32.2946 100.25 33.4706 100.25C33.8906 100.25 34.2386 100.37 34.4546 100.67C34.6826 100.982 34.6826 101.462 34.6826 101.918V105.83H35.7626V102.038C35.7626 101.006 36.2906 100.25 37.4666 100.25C37.8866 100.25 38.2346 100.358 38.4506 100.658C38.6786 100.97 38.6786 101.462 38.6786 101.918V105.83H39.7586V101.426C39.7586 99.9255 38.9426 99.3495 37.7546 99.3495C36.7106 99.3495 35.9306 99.9975 35.6906 100.658H35.6666C35.4386 99.7815 34.7186 99.3495 33.7586 99.3495C32.7506 99.3495 32.0186 99.9255 31.7306 100.574H31.7066V99.5055H30.6866V105.83ZM43.592 105.062C42.908 105.062 42.488 104.714 42.488 104.066C42.488 103.73 42.596 103.466 42.836 103.286C43.244 102.986 44.024 102.878 45.392 102.818V102.962C45.392 104.522 44.396 105.062 43.592 105.062ZM42.752 101.234C42.788 100.694 43.136 100.154 44.072 100.154C44.96 100.154 45.392 100.598 45.392 101.738V102.014C43.976 102.062 42.992 102.182 42.332 102.53C41.684 102.854 41.384 103.43 41.384 104.126C41.384 105.254 42.128 105.938 43.388 105.938C44.324 105.938 45.08 105.506 45.416 104.762H45.44C45.548 105.518 45.884 105.878 46.892 105.878H47.024V105.002C46.556 104.99 46.448 104.786 46.448 104.282V101.702C46.448 100.01 45.68 99.3495 44.108 99.3495C42.596 99.3495 41.744 100.118 41.72 101.234H42.752ZM48.5928 105.83H49.6728V102.386C49.6728 101.162 50.4168 100.514 51.5448 100.514H51.7488V99.3855H51.6408C50.7168 99.3855 49.9248 100.034 49.6368 100.694H49.6128V99.5055H48.5928V105.83ZM54.3603 103.898L55.4163 102.71L57.2643 105.83H58.5243L56.1483 101.882L58.2603 99.5055H57.0003L54.3603 102.554V96.3735H53.2803V105.83H54.3603V103.898ZM63.3613 105.83H64.4293V98.1255H64.4533C64.4533 98.1255 64.5733 98.4135 64.9333 99.0135L69.0013 105.83H70.4293V96.6495H69.3733V104.378H69.3373C69.3373 104.378 69.1813 103.982 68.8693 103.478L64.7893 96.6495H63.3613V105.83ZM74.0163 101.93H78.0123V100.958H74.0163V97.6455H78.3843V96.6495H72.9003V105.83H74.0163V101.93ZM87.0427 96.6495H79.5667V97.6215H82.7467V105.83H83.8627V97.6215H87.0427V96.6495ZM91.7917 101.09C91.6837 99.9855 90.9037 99.3495 89.5357 99.3495C88.0957 99.3495 87.2437 100.154 87.2437 101.27C87.2437 102.374 87.8437 102.842 88.9717 103.022L89.9437 103.166C90.8077 103.31 90.9397 103.586 90.9397 104.09C90.9397 104.75 90.3997 105.158 89.5357 105.158C88.4197 105.158 88.1437 104.534 88.0957 104.042H87.0397C87.1237 105.398 88.2037 105.986 89.5117 105.986C90.9517 105.986 91.9837 105.302 91.9837 104.03C91.9837 102.938 91.5037 102.398 90.1837 102.194L89.2117 102.05C88.5757 101.942 88.2637 101.702 88.2637 101.186C88.2637 100.598 88.7557 100.166 89.4997 100.166C90.2437 100.166 90.6997 100.526 90.7597 101.09H91.7917Z" fill="black"/>
<rect width="60" height="40" transform="translate(165 80.8295)" fill="#EDEDED"/>
<rect x="165" y="80.8295" width="59.9999" height="40" fill="#EDEDED" stroke="black"/>
<path d="M181 102.46L184.556 106.021L193 95.7348" stroke="black" stroke-width="1.3"/>
<rect width="123" height="40" transform="translate(225 80.8295)" fill="#EDEDED"/>
<rect x="225" y="80.8295" width="123" height="40" fill="#EDEDED" stroke="black"/>
<path d="M240.504 102.46L244.059 106.021L252.504 95.7348" stroke="black" stroke-width="1.3"/>
<rect width="164" height="40" transform="translate(1 120.83)" fill="#EDEDED"/>
<rect x="1" y="120.83" width="163.977" height="40" fill="#EDEDED" stroke="black"/>
<path d="M14.248 145.83H20.176V144.834H15.364V141.678H19.732V140.706H15.364V137.646H20.116V136.65H14.248V145.83ZM22.5971 137.67V138.126C22.5971 139.338 22.4051 139.542 21.5531 139.542H21.3611V140.334H22.5131V144.246C22.5131 145.326 23.0051 145.926 24.2411 145.926C24.7931 145.926 25.2371 145.854 25.2371 145.854V144.942C25.2371 144.942 24.8651 145.002 24.5411 145.002C23.8571 145.002 23.5811 144.738 23.5811 144.066V140.334H25.1411V139.506H23.5811V137.67H22.5971ZM30.6285 145.83H31.7085V141.426C31.7085 139.926 30.9045 139.35 29.6925 139.35C28.6605 139.35 27.9885 139.938 27.7125 140.55H27.6885V136.374H26.6085V145.83H27.6885V142.038C27.6885 141.006 28.2285 140.25 29.4045 140.25C29.8245 140.25 30.1845 140.37 30.4005 140.67C30.6285 140.97 30.6285 141.462 30.6285 141.918V145.83ZM37.7013 142.11H34.4613C34.5933 140.958 35.1453 140.166 36.1533 140.166C37.2573 140.166 37.6773 140.982 37.7013 142.038V142.11ZM38.7213 144.174H37.6773C37.5693 144.546 37.2933 145.158 36.2373 145.158C35.0493 145.158 34.5213 144.27 34.4493 142.962H38.8053V142.41C38.8053 140.814 38.0613 139.35 36.1653 139.35C34.3533 139.35 33.3453 140.826 33.3453 142.698C33.3453 144.582 34.2693 145.986 36.2013 145.986C37.5573 145.986 38.4933 145.266 38.7213 144.174ZM40.4483 145.83H41.5283V142.386C41.5283 141.162 42.2723 140.514 43.4003 140.514H43.6043V139.386H43.4963C42.5723 139.386 41.7803 140.034 41.4923 140.694H41.4683V139.506H40.4483V145.83ZM48.8106 142.11H45.5706C45.7026 140.958 46.2546 140.166 47.2626 140.166C48.3666 140.166 48.7866 140.982 48.8106 142.038V142.11ZM49.8306 144.174H48.7866C48.6786 144.546 48.4026 145.158 47.3466 145.158C46.1586 145.158 45.6306 144.27 45.5586 142.962H49.9146V142.41C49.9146 140.814 49.1706 139.35 47.2746 139.35C45.4626 139.35 44.4546 140.826 44.4546 142.698C44.4546 144.582 45.3786 145.986 47.3106 145.986C48.6666 145.986 49.6026 145.266 49.8306 144.174ZM52.6603 139.506H51.5923V143.91C51.5923 145.398 52.4083 145.986 53.6203 145.986C54.6283 145.986 55.3243 145.398 55.6123 144.75H55.6363V145.83H56.6683V139.506H55.5883V142.926C55.5883 144.318 55.0363 145.098 53.8603 145.098C53.4403 145.098 53.1043 144.966 52.8883 144.678C52.6603 144.378 52.6603 143.85 52.6603 143.394V139.506ZM58.9171 145.83H59.9971V142.014C59.9971 141.006 60.5251 140.25 61.7011 140.25C62.1211 140.25 62.4691 140.37 62.6851 140.67C62.9131 140.982 62.9131 141.462 62.9131 141.918V145.83H63.9931V142.038C63.9931 141.006 64.5211 140.25 65.6971 140.25C66.1171 140.25 66.4651 140.358 66.6811 140.658C66.9091 140.97 66.9091 141.462 66.9091 141.918V145.83H67.9891V141.426C67.9891 139.926 67.1731 139.35 65.9851 139.35C64.9411 139.35 64.1611 139.998 63.9211 140.658H63.8971C63.6691 139.782 62.9491 139.35 61.9891 139.35C60.9811 139.35 60.2491 139.926 59.9611 140.574H59.9371V139.506H58.9171V145.83ZM73.58 145.83H74.648V138.126H74.672C74.672 138.126 74.792 138.414 75.152 139.014L79.22 145.83H80.648V136.65H79.592V144.378H79.556C79.556 144.378 79.4 143.982 79.088 143.478L75.008 136.65H73.58V145.83ZM84.2351 141.93H88.2311V140.958H84.2351V137.646H88.6031V136.65H83.1191V145.83H84.2351V141.93ZM97.2615 136.65H89.7855V137.622H92.9655V145.83H94.0815V137.622H97.2615V136.65ZM102.01 141.09C101.902 139.986 101.122 139.35 99.7545 139.35C98.3145 139.35 97.4625 140.154 97.4625 141.27C97.4625 142.374 98.0625 142.842 99.1905 143.022L100.162 143.166C101.026 143.31 101.158 143.586 101.158 144.09C101.158 144.75 100.618 145.158 99.7545 145.158C98.6385 145.158 98.3625 144.534 98.3145 144.042H97.2585C97.3425 145.398 98.4225 145.986 99.7305 145.986C101.17 145.986 102.202 145.302 102.202 144.03C102.202 142.938 101.722 142.398 100.402 142.194L99.4305 142.05C98.7945 141.942 98.4825 141.702 98.4825 141.186C98.4825 140.598 98.9745 140.166 99.7185 140.166C100.462 140.166 100.918 140.526 100.978 141.09H102.01Z" fill="black"/>
<rect width="60" height="40" transform="translate(165 120.83)" fill="#EDEDED"/>
<rect x="165" y="120.83" width="59.9999" height="40" fill="#EDEDED" stroke="black"/>
<path d="M181 142.46L184.556 146.021L193 135.735" stroke="black" stroke-width="1.3"/>
<rect width="123" height="40" transform="translate(225 120.83)" fill="#EDEDED"/>
<rect x="225" y="120.83" width="123" height="40" fill="#EDEDED" stroke="black"/>
<path d="M240.504 142.46L244.059 146.021L252.504 135.735" stroke="black" stroke-width="1.3"/>
<rect width="164" height="40" transform="translate(1 160.83)" fill="#EDEDED"/>
<rect x="1" y="160.83" width="163.977" height="40" fill="#EDEDED" stroke="black"/>
<path d="M20.656 176.65H13.18V177.622H16.36V185.83H17.476V177.622H20.656V176.65ZM24.7403 182.11H21.5003C21.6323 180.958 22.1843 180.166 23.1923 180.166C24.2963 180.166 24.7163 180.982 24.7403 182.038V182.11ZM25.7603 184.174H24.7163C24.6083 184.546 24.3323 185.158 23.2763 185.158C22.0883 185.158 21.5603 184.27 21.4883 182.962H25.8443V182.41C25.8443 180.814 25.1003 179.35 23.2043 179.35C21.3923 179.35 20.3843 180.826 20.3843 182.698C20.3843 184.582 21.3083 185.986 23.2403 185.986C24.5963 185.986 25.5323 185.266 25.7603 184.174ZM27.21 180.382H30.726L27.042 184.882V185.83H32.058V184.942H28.266L31.974 180.442V179.506H27.21V180.382ZM36.0012 185.986C37.7772 185.986 38.8452 184.642 38.8452 182.662C38.8452 180.706 37.9092 179.35 36.0252 179.35C34.2612 179.35 33.1812 180.706 33.1812 182.662C33.1812 184.642 34.1412 185.986 36.0012 185.986ZM36.0132 180.178C37.2252 180.178 37.7292 181.126 37.7292 182.662C37.7292 184.21 37.2132 185.146 36.0372 185.146C34.8132 185.146 34.2972 184.21 34.2972 182.662C34.2972 181.126 34.8612 180.178 36.0132 180.178ZM44.7644 181.09C44.6564 179.986 43.8764 179.35 42.5084 179.35C41.0684 179.35 40.2164 180.154 40.2164 181.27C40.2164 182.374 40.8164 182.842 41.9444 183.022L42.9164 183.166C43.7804 183.31 43.9124 183.586 43.9124 184.09C43.9124 184.75 43.3724 185.158 42.5084 185.158C41.3924 185.158 41.1164 184.534 41.0684 184.042H40.0124C40.0964 185.398 41.1764 185.986 42.4844 185.986C43.9244 185.986 44.9564 185.302 44.9564 184.03C44.9564 182.938 44.4764 182.398 43.1564 182.194L42.1844 182.05C41.5484 181.942 41.2364 181.702 41.2364 181.186C41.2364 180.598 41.7284 180.166 42.4724 180.166C43.2164 180.166 43.6724 180.526 43.7324 181.09H44.7644ZM50.0371 185.83H51.1051V178.126H51.1291C51.1291 178.126 51.2491 178.414 51.6091 179.014L55.6771 185.83H57.1051V176.65H56.0491V184.378H56.0131C56.0131 184.378 55.8571 183.982 55.5451 183.478L51.4651 176.65H50.0371V185.83ZM60.6921 181.93H64.6881V180.958H60.6921V177.646H65.0601V176.65H59.5761V185.83H60.6921V181.93ZM73.7185 176.65H66.2425V177.622H69.4225V185.83H70.5385V177.622H73.7185V176.65ZM78.4675 181.09C78.3595 179.986 77.5795 179.35 76.2115 179.35C74.7715 179.35 73.9195 180.154 73.9195 181.27C73.9195 182.374 74.5195 182.842 75.6475 183.022L76.6195 183.166C77.4835 183.31 77.6155 183.586 77.6155 184.09C77.6155 184.75 77.0755 185.158 76.2115 185.158C75.0955 185.158 74.8195 184.534 74.7715 184.042H73.7155C73.7995 185.398 74.8795 185.986 76.1875 185.986C77.6275 185.986 78.6595 185.302 78.6595 184.03C78.6595 182.938 78.1795 182.398 76.8595 182.194L75.8875 182.05C75.2515 181.942 74.9395 181.702 74.9395 181.186C74.9395 180.598 75.4315 180.166 76.1755 180.166C76.9195 180.166 77.3755 180.526 77.4355 181.09H78.4675Z" fill="black"/>
<rect width="60" height="40" transform="translate(165 160.83)" fill="#EDEDED"/>
<rect x="165" y="160.83" width="59.9999" height="40" fill="#EDEDED" stroke="black"/>
<path d="M181 182.46L184.556 186.021L193 175.735" stroke="black" stroke-width="1.3"/>
<rect width="123" height="40" transform="translate(225 160.83)" fill="#EDEDED"/>
<rect x="225" y="160.83" width="123" height="40" fill="#EDEDED" stroke="black"/>
<path d="M240.504 182.46L244.059 186.021L252.504 175.735" stroke="black" stroke-width="1.3"/>
<rect width="164" height="40" transform="translate(1 200.83)" fill="#EDEDED"/>
<rect x="1" y="200.83" width="163.977" height="40" fill="#EDEDED" stroke="black"/>
<path d="M16.78 216.83H18.076L21.34 207.65H20.212L17.86 214.43C17.548 215.342 17.452 215.834 17.452 215.834H17.428C17.428 215.834 17.344 215.342 17.032 214.406L14.668 207.65H13.48L16.78 216.83ZM22.6938 209.066H23.8338V207.902H22.6938V209.066ZM22.7178 216.83H23.8098V210.506H22.7178V216.83ZM29.8614 213.11H26.6214C26.7534 211.958 27.3054 211.166 28.3134 211.166C29.4174 211.166 29.8374 211.982 29.8614 213.038V213.11ZM30.8814 215.174H29.8374C29.7294 215.546 29.4534 216.158 28.3974 216.158C27.2094 216.158 26.6814 215.27 26.6094 213.962H30.9654V213.41C30.9654 211.814 30.2214 210.35 28.3254 210.35C26.5134 210.35 25.5054 211.826 25.5054 213.698C25.5054 215.582 26.4294 216.986 28.3614 216.986C29.7174 216.986 30.6534 216.266 30.8814 215.174ZM33.8311 216.83H34.9711L36.1351 213.11C36.3151 212.534 36.5311 211.766 36.5311 211.766H36.5431C36.5431 211.766 36.7591 212.522 36.9391 213.11L38.0911 216.83H39.2311L41.1871 210.506H40.1431L38.8951 214.778C38.7871 215.15 38.6911 215.57 38.6911 215.57H38.6671C38.6671 215.57 38.5591 215.15 38.4391 214.778L37.1071 210.506H36.0031L34.6591 214.778C34.5391 215.15 34.4191 215.57 34.4191 215.57H34.3951C34.3951 215.57 34.2991 215.162 34.1911 214.766L32.9671 210.506H31.8631L33.8311 216.83ZM46.3731 213.11H43.1331C43.2651 211.958 43.8171 211.166 44.8251 211.166C45.9291 211.166 46.3491 211.982 46.3731 213.038V213.11ZM47.3931 215.174H46.3491C46.2411 215.546 45.9651 216.158 44.9091 216.158C43.7211 216.158 43.1931 215.27 43.1211 213.962H47.4771V213.41C47.4771 211.814 46.7331 210.35 44.8371 210.35C43.0251 210.35 42.0171 211.826 42.0171 213.698C42.0171 215.582 42.9411 216.986 44.8731 216.986C46.2291 216.986 47.1651 216.266 47.3931 215.174ZM49.1202 216.83H50.2002V213.386C50.2002 212.162 50.9442 211.514 52.0722 211.514H52.2762V210.386H52.1682C51.2442 210.386 50.4522 211.034 50.1642 211.694H50.1402V210.506H49.1202V216.83ZM16.552 235.39C15.868 233.914 15.244 232.318 15.244 229.882C15.244 227.434 15.868 225.838 16.552 224.374H15.736C15.052 225.73 14.14 227.446 14.14 229.882C14.14 232.306 15.052 234.034 15.736 235.39H16.552ZM21.3524 225.766H21.3764C21.3764 225.766 21.5444 226.354 21.7364 226.906L22.8884 230.194H19.8404L20.9804 226.906C21.1604 226.39 21.3284 225.826 21.3524 225.766ZM24.1604 233.83H25.3484L22.0484 224.65H20.7284L17.4644 233.83H18.5804L19.5284 231.094H23.2004L24.1604 233.83ZM26.9243 226.066H28.0643V224.902H26.9243V226.066ZM26.9483 233.83H28.0403V227.506H26.9483V233.83ZM30.2999 233.83H31.3799V230.386C31.3799 229.162 32.1239 228.514 33.2519 228.514H33.4559V227.386H33.3479C32.4239 227.386 31.6319 228.034 31.3439 228.694H31.3199V227.506H30.2999V233.83ZM35.9142 230.902V230.23C35.9142 229.162 36.5982 228.214 37.7142 228.214C39.0102 228.214 39.4062 229.234 39.4062 230.578C39.4062 232.234 38.8542 233.134 37.7262 233.134C36.5262 233.134 35.9142 232.15 35.9142 230.902ZM34.8702 236.086H35.9502V232.906H35.9742C36.2142 233.47 36.9582 233.986 37.8822 233.986C39.3102 233.986 40.4982 232.882 40.4982 230.578C40.4982 228.178 39.2982 227.35 37.9542 227.35C36.9942 227.35 36.3102 227.89 35.9382 228.562H35.9142V227.506H34.8702V236.086ZM42.2061 233.83H43.2861V224.374H42.2061V233.83ZM47.1077 233.062C46.4237 233.062 46.0037 232.714 46.0037 232.066C46.0037 231.73 46.1117 231.466 46.3517 231.286C46.7597 230.986 47.5397 230.878 48.9077 230.818V230.962C48.9077 232.522 47.9117 233.062 47.1077 233.062ZM46.2677 229.234C46.3037 228.694 46.6517 228.154 47.5877 228.154C48.4757 228.154 48.9077 228.598 48.9077 229.738V230.014C47.4917 230.062 46.5077 230.182 45.8477 230.53C45.1997 230.854 44.8997 231.43 44.8997 232.126C44.8997 233.254 45.6437 233.938 46.9037 233.938C47.8397 233.938 48.5957 233.506 48.9317 232.762H48.9557C49.0637 233.518 49.3997 233.878 50.4077 233.878H50.5397V233.002C50.0717 232.99 49.9637 232.786 49.9637 232.282V229.702C49.9637 228.01 49.1957 227.35 47.6237 227.35C46.1117 227.35 45.2597 228.118 45.2357 229.234H46.2677ZM53.5859 233.83L53.4659 234.166C53.1899 235.018 52.9259 235.318 52.1219 235.318C52.0139 235.318 51.7739 235.306 51.5699 235.258V236.146C51.7379 236.182 51.9779 236.218 52.2179 236.218C53.5859 236.218 54.0059 235.678 54.5099 234.226L56.8139 227.506H55.7339L54.4379 231.454C54.2339 232.066 54.1259 232.45 54.1259 232.45H54.0899C54.0899 232.45 53.9819 232.066 53.7779 231.466L52.4579 227.506H51.3779L53.5859 233.83ZM56.8539 235.234H57.6339L58.6059 232.354H57.2619L56.8539 235.234ZM66.6336 225.766H66.6576C66.6576 225.766 66.8256 226.354 67.0176 226.906L68.1696 230.194H65.1216L66.2616 226.906C66.4416 226.39 66.6096 225.826 66.6336 225.766ZM69.4416 233.83H70.6296L67.3296 224.65H66.0096L62.7456 233.83H63.8616L64.8096 231.094H68.4816L69.4416 233.83ZM76.2496 233.83H77.3296V229.426C77.3296 227.926 76.5256 227.35 75.3136 227.35C74.3056 227.35 73.5736 227.926 73.2736 228.574H73.2496V227.506H72.2296V233.83H73.3096V230.038C73.3096 229.006 73.8496 228.25 75.0256 228.25C75.4456 228.25 75.8056 228.37 76.0216 228.67C76.2496 228.97 76.2496 229.474 76.2496 229.93V233.83ZM83.5503 231.094C83.5503 232.246 82.8663 233.134 81.7503 233.134C80.4903 233.134 80.0703 232.09 80.0703 230.662C80.0703 229.174 80.6223 228.214 81.8343 228.214C82.8423 228.214 83.5503 229.078 83.5503 230.422V231.094ZM84.6063 224.374H83.5263V228.466H83.5023C83.2503 227.878 82.6383 227.35 81.6903 227.35C80.0943 227.35 78.9663 228.538 78.9663 230.71C78.9663 233.146 80.2023 233.986 81.5463 233.986C82.5183 233.986 83.2023 233.41 83.5383 232.786H83.5743V233.83H84.6063V224.374ZM86.8663 233.83H87.9463V230.386C87.9463 229.162 88.6903 228.514 89.8183 228.514H90.0223V227.386H89.9143C88.9903 227.386 88.1983 228.034 87.9103 228.694H87.8863V227.506H86.8663V233.83ZM93.6926 233.986C95.4686 233.986 96.5366 232.642 96.5366 230.662C96.5366 228.706 95.6006 227.35 93.7166 227.35C91.9526 227.35 90.8726 228.706 90.8726 230.662C90.8726 232.642 91.8326 233.986 93.6926 233.986ZM93.7046 228.178C94.9166 228.178 95.4206 229.126 95.4206 230.662C95.4206 232.21 94.9046 233.146 93.7286 233.146C92.5046 233.146 91.9886 232.21 91.9886 230.662C91.9886 229.126 92.5526 228.178 93.7046 228.178ZM98.2212 226.066H99.3612V224.902H98.2212V226.066ZM98.2452 233.83H99.3372V227.506H98.2452V233.83ZM105.617 231.094C105.617 232.246 104.933 233.134 103.817 233.134C102.557 233.134 102.137 232.09 102.137 230.662C102.137 229.174 102.689 228.214 103.901 228.214C104.909 228.214 105.617 229.078 105.617 230.422V231.094ZM106.673 224.374H105.593V228.466H105.569C105.317 227.878 104.705 227.35 103.757 227.35C102.161 227.35 101.033 228.538 101.033 230.71C101.033 233.146 102.269 233.986 103.613 233.986C104.585 233.986 105.269 233.41 105.605 232.786H105.641V233.83H106.673V224.374ZM118.73 224.65H111.254V225.622H114.434V233.83H115.55V225.622H118.73V224.65ZM122.928 233.83H124.224L127.488 224.65H126.36L124.008 231.43C123.696 232.342 123.6 232.834 123.6 232.834H123.576C123.576 232.834 123.492 232.342 123.18 231.406L120.816 224.65H119.628L122.928 233.83ZM128.639 235.39H129.455C130.139 234.034 131.051 232.306 131.051 229.882C131.051 227.446 130.139 225.73 129.455 224.374H128.639C129.323 225.838 129.947 227.434 129.947 229.882C129.947 232.318 129.323 233.914 128.639 235.39ZM134.939 227.11L135.851 228.814L136.703 228.178L135.383 226.81V226.786L137.195 226.402L136.835 225.406L135.191 226.27L135.167 226.246L135.443 224.374H134.399L134.675 226.246L134.651 226.27L132.995 225.406L132.647 226.402L134.459 226.786V226.81L133.139 228.178L133.991 228.814L134.915 227.11H134.939Z" fill="black"/>
<rect width="60" height="40" transform="translate(165 200.83)" fill="#EDEDED"/>
<rect x="165" y="200.83" width="59.9999" height="40" fill="#EDEDED" stroke="black"/>
<path d="M182.449 221.918H177.994V223.011H182.449V221.918Z" fill="black"/>
<rect width="123" height="40" transform="translate(225 200.83)" fill="#EDEDED"/>
<rect x="225" y="200.83" width="123" height="40" fill="#EDEDED" stroke="black"/>
<path d="M240.504 222.46L244.059 226.021L252.504 215.735" stroke="black" stroke-width="1.3"/>
<rect width="164" height="40" transform="translate(1 240.83)" fill="#EDEDED"/>
<rect x="1" y="240.83" width="163.977" height="40" fill="#EDEDED" stroke="black"/>
<path d="M14.248 265.83H19.924V264.834H15.364V256.65H14.248V265.83ZM23.7317 265.986C25.5077 265.986 26.5757 264.642 26.5757 262.662C26.5757 260.706 25.6397 259.35 23.7557 259.35C21.9917 259.35 20.9117 260.706 20.9117 262.662C20.9117 264.642 21.8717 265.986 23.7317 265.986ZM23.7437 260.178C24.9557 260.178 25.4597 261.126 25.4597 262.662C25.4597 264.21 24.9437 265.146 23.7677 265.146C22.5437 265.146 22.0277 264.21 22.0277 262.662C22.0277 261.126 22.5917 260.178 23.7437 260.178ZM32.3043 265.83H33.3843V261.426C33.3843 259.926 32.5803 259.35 31.3683 259.35C30.3603 259.35 29.6283 259.926 29.3283 260.574H29.3043V259.506H28.2843V265.83H29.3643V262.038C29.3643 261.006 29.9043 260.25 31.0803 260.25C31.5003 260.25 31.8603 260.37 32.0763 260.67C32.3043 260.97 32.3043 261.474 32.3043 261.93V265.83ZM39.605 262.962C39.605 264.042 38.873 264.93 37.853 264.93C36.521 264.93 36.125 263.97 36.125 262.578C36.125 261.15 36.665 260.202 37.805 260.202C38.897 260.202 39.605 261.066 39.605 262.326V262.962ZM37.757 268.218C39.473 268.218 40.637 267.45 40.637 265.674V259.506H39.605V260.502H39.581C39.317 259.914 38.705 259.35 37.685 259.35C36.125 259.35 35.021 260.49 35.021 262.578C35.021 264.918 36.233 265.746 37.553 265.746C38.501 265.746 39.245 265.206 39.569 264.582H39.581V265.518C39.581 266.91 38.981 267.354 37.781 267.354C36.749 267.354 36.341 267.006 36.221 266.466H35.177C35.321 267.774 36.557 268.218 37.757 268.218ZM42.4309 262.386H45.7669V261.414H42.4309V262.386ZM47.851 257.67V258.126C47.851 259.338 47.659 259.542 46.807 259.542H46.615V260.334H47.767V264.246C47.767 265.326 48.259 265.926 49.495 265.926C50.047 265.926 50.491 265.854 50.491 265.854V264.942C50.491 264.942 50.119 265.002 49.795 265.002C49.111 265.002 48.835 264.738 48.835 264.066V260.334H50.395V259.506H48.835V257.67H47.851ZM55.7716 262.11H52.5316C52.6636 260.958 53.2156 260.166 54.2236 260.166C55.3276 260.166 55.7476 260.982 55.7716 262.038V262.11ZM56.7916 264.174H55.7476C55.6396 264.546 55.3636 265.158 54.3076 265.158C53.1196 265.158 52.5916 264.27 52.5196 262.962H56.8756V262.41C56.8756 260.814 56.1316 259.35 54.2356 259.35C52.4236 259.35 51.4156 260.826 51.4156 262.698C51.4156 264.582 52.3396 265.986 54.2716 265.986C55.6276 265.986 56.5636 265.266 56.7916 264.174ZM58.5186 265.83H59.5986V262.386C59.5986 261.162 60.3426 260.514 61.4706 260.514H61.6746V259.386H61.5666C60.6426 259.386 59.8506 260.034 59.5626 260.694H59.5386V259.506H58.5186V265.83ZM63.0889 265.83H64.1689V262.014C64.1689 261.006 64.6969 260.25 65.8729 260.25C66.2929 260.25 66.6409 260.37 66.8569 260.67C67.0849 260.982 67.0849 261.462 67.0849 261.918V265.83H68.1649V262.038C68.1649 261.006 68.6929 260.25 69.8689 260.25C70.2889 260.25 70.6369 260.358 70.8529 260.658C71.0809 260.97 71.0809 261.462 71.0809 261.918V265.83H72.1609V261.426C72.1609 259.926 71.3449 259.35 70.1569 259.35C69.1129 259.35 68.3329 259.998 68.0929 260.658H68.0689C67.8409 259.782 67.1209 259.35 66.1609 259.35C65.1529 259.35 64.4209 259.926 64.1329 260.574H64.1089V259.506H63.0889V265.83ZM83.9079 259.11C83.8239 257.55 82.8159 256.518 80.8719 256.518C78.9879 256.518 77.7639 257.598 77.7639 259.086C77.7639 260.286 78.3999 261.246 80.1999 261.582L81.4839 261.81C82.6119 262.002 83.0439 262.554 83.0439 263.346C83.0439 264.318 82.5039 265.11 80.8719 265.11C79.3959 265.11 78.7119 264.234 78.5799 263.25H77.4159C77.5119 264.87 78.7239 266.01 80.8479 266.01C83.0439 266.01 84.1839 264.93 84.1839 263.25C84.1839 261.942 83.5599 261.066 81.7719 260.742L80.4759 260.514C79.3959 260.31 78.9399 259.83 78.9399 258.99C78.9399 258.114 79.6119 257.406 80.8599 257.406C82.1439 257.406 82.6599 258.21 82.7679 259.11H83.9079ZM86.5463 257.67V258.126C86.5463 259.338 86.3543 259.542 85.5023 259.542H85.3103V260.334H86.4623V264.246C86.4623 265.326 86.9543 265.926 88.1903 265.926C88.7423 265.926 89.1863 265.854 89.1863 265.854V264.942C89.1863 264.942 88.8143 265.002 88.4903 265.002C87.8063 265.002 87.5303 264.738 87.5303 264.066V260.334H89.0903V259.506H87.5303V257.67H86.5463ZM92.9309 265.986C94.7069 265.986 95.7749 264.642 95.7749 262.662C95.7749 260.706 94.8389 259.35 92.9549 259.35C91.1909 259.35 90.1109 260.706 90.1109 262.662C90.1109 264.642 91.0709 265.986 92.9309 265.986ZM92.9429 260.178C94.1549 260.178 94.6589 261.126 94.6589 262.662C94.6589 264.21 94.1429 265.146 92.9669 265.146C91.7429 265.146 91.2269 264.21 91.2269 262.662C91.2269 261.126 91.7909 260.178 92.9429 260.178ZM97.4835 265.83H98.5635V262.386C98.5635 261.162 99.3075 260.514 100.435 260.514H100.639V259.386H100.531C99.6075 259.386 98.8155 260.034 98.5275 260.694H98.5035V259.506H97.4835V265.83ZM103.686 265.062C103.002 265.062 102.582 264.714 102.582 264.066C102.582 263.73 102.69 263.466 102.93 263.286C103.338 262.986 104.118 262.878 105.486 262.818V262.962C105.486 264.522 104.49 265.062 103.686 265.062ZM102.846 261.234C102.882 260.694 103.23 260.154 104.166 260.154C105.054 260.154 105.486 260.598 105.486 261.738V262.014C104.07 262.062 103.086 262.182 102.426 262.53C101.778 262.854 101.478 263.43 101.478 264.126C101.478 265.254 102.222 265.938 103.482 265.938C104.418 265.938 105.174 265.506 105.51 264.762H105.534C105.642 265.518 105.978 265.878 106.986 265.878H107.118V265.002C106.65 264.99 106.542 264.786 106.542 264.282V261.702C106.542 260.01 105.774 259.35 104.202 259.35C102.69 259.35 101.838 260.118 101.814 261.234H102.846ZM112.765 262.962C112.765 264.042 112.033 264.93 111.013 264.93C109.681 264.93 109.285 263.97 109.285 262.578C109.285 261.15 109.825 260.202 110.965 260.202C112.057 260.202 112.765 261.066 112.765 262.326V262.962ZM110.917 268.218C112.633 268.218 113.797 267.45 113.797 265.674V259.506H112.765V260.502H112.741C112.477 259.914 111.865 259.35 110.845 259.35C109.285 259.35 108.181 260.49 108.181 262.578C108.181 264.918 109.393 265.746 110.713 265.746C111.661 265.746 112.405 265.206 112.729 264.582H112.741V265.518C112.741 266.91 112.141 267.354 110.941 267.354C109.909 267.354 109.501 267.006 109.381 266.466H108.337C108.481 267.774 109.717 268.218 110.917 268.218ZM119.85 262.11H116.61C116.742 260.958 117.294 260.166 118.302 260.166C119.406 260.166 119.826 260.982 119.85 262.038V262.11ZM120.87 264.174H119.826C119.718 264.546 119.442 265.158 118.386 265.158C117.198 265.158 116.67 264.27 116.598 262.962H120.954V262.41C120.954 260.814 120.21 259.35 118.314 259.35C116.502 259.35 115.494 260.826 115.494 262.698C115.494 264.582 116.418 265.986 118.35 265.986C119.706 265.986 120.642 265.266 120.87 264.174ZM124.158 259.11L125.07 260.814L125.922 260.178L124.602 258.81V258.786L126.414 258.402L126.054 257.406L124.41 258.27L124.386 258.246L124.662 256.374H123.618L123.894 258.246L123.87 258.27L122.214 257.406L121.866 258.402L123.678 258.786V258.81L122.358 260.178L123.21 260.814L124.134 259.11H124.158Z" fill="black"/>
<rect width="60" height="40" transform="translate(165 240.83)" fill="#EDEDED"/>
<rect x="165" y="240.83" width="59.9999" height="40" fill="#EDEDED" stroke="black"/>
<path d="M182.449 261.918H177.994V263.011H182.449V261.918Z" fill="black"/>
<rect width="123" height="40" transform="translate(225 240.83)" fill="#EDEDED"/>
<rect x="225" y="240.83" width="123" height="40" fill="#EDEDED" stroke="black"/>
<path d="M240.504 262.46L244.059 266.021L252.504 255.735" stroke="black" stroke-width="1.3"/>
<rect width="163" height="40" transform="translate(1 280.83)" fill="#EDEDED"/>
<path d="M1 280.83H165V320.83H1V280.83Z" fill="#EDEDED" stroke="black"/>
<path d="M16.912 302.326C18.796 302.326 20.164 301.414 20.164 299.47C20.164 297.49 18.784 296.65 17.008 296.65H14.248V305.83H15.364V302.326H16.912ZM15.364 301.426V297.55H16.948C18.244 297.55 19.012 298.102 19.012 299.47C19.012 300.778 18.244 301.426 16.912 301.426H15.364ZM21.3116 305.83H22.3916V302.386C22.3916 301.162 23.1356 300.514 24.2636 300.514H24.4676V299.386H24.3596C23.4356 299.386 22.6436 300.034 22.3556 300.694H22.3316V299.506H21.3116V305.83ZM25.9751 298.066H27.1151V296.902H25.9751V298.066ZM25.9991 305.83H27.0911V299.506H25.9991V305.83ZM31.6067 305.986C33.3827 305.986 34.4507 304.642 34.4507 302.662C34.4507 300.706 33.5147 299.35 31.6307 299.35C29.8667 299.35 28.7867 300.706 28.7867 302.662C28.7867 304.642 29.7467 305.986 31.6067 305.986ZM31.6187 300.178C32.8307 300.178 33.3347 301.126 33.3347 302.662C33.3347 304.21 32.8187 305.146 31.6427 305.146C30.4187 305.146 29.9027 304.21 29.9027 302.662C29.9027 301.126 30.4667 300.178 31.6187 300.178ZM36.1593 305.83H37.2393V302.386C37.2393 301.162 37.9833 300.514 39.1113 300.514H39.3153V299.386H39.2073C38.2833 299.386 37.4913 300.034 37.2033 300.694H37.1793V299.506H36.1593V305.83ZM40.8228 298.066H41.9628V296.902H40.8228V298.066ZM40.8468 305.83H41.9388V299.506H40.8468V305.83ZM44.5463 297.67V298.126C44.5463 299.338 44.3543 299.542 43.5023 299.542H43.3103V300.334H44.4623V304.246C44.4623 305.326 44.9543 305.926 46.1903 305.926C46.7423 305.926 47.1863 305.854 47.1863 305.854V304.942C47.1863 304.942 46.8143 305.002 46.4903 305.002C45.8063 305.002 45.5303 304.738 45.5303 304.066V300.334H47.0903V299.506H45.5303V297.67H44.5463ZM50.2695 305.83L50.1495 306.166C49.8735 307.018 49.6095 307.318 48.8055 307.318C48.6975 307.318 48.4575 307.306 48.2535 307.258V308.146C48.4215 308.182 48.6615 308.218 48.9015 308.218C50.2695 308.218 50.6895 307.678 51.1935 306.226L53.4975 299.506H52.4175L51.1215 303.454C50.9175 304.066 50.8095 304.45 50.8095 304.45H50.7735C50.7735 304.45 50.6655 304.066 50.4615 303.466L49.1415 299.506H48.0615L50.2695 305.83ZM64.5134 299.11C64.4294 297.55 63.4214 296.518 61.4774 296.518C59.5934 296.518 58.3694 297.598 58.3694 299.086C58.3694 300.286 59.0054 301.246 60.8054 301.582L62.0894 301.81C63.2174 302.002 63.6494 302.554 63.6494 303.346C63.6494 304.318 63.1094 305.11 61.4774 305.11C60.0014 305.11 59.3174 304.234 59.1854 303.25H58.0214C58.1174 304.87 59.3294 306.01 61.4534 306.01C63.6494 306.01 64.7894 304.93 64.7894 303.25C64.7894 301.942 64.1654 301.066 62.3774 300.742L61.0814 300.514C60.0014 300.31 59.5454 299.83 59.5454 298.99C59.5454 298.114 60.2174 297.406 61.4654 297.406C62.7494 297.406 63.2654 298.21 63.3734 299.11H64.5134ZM67.8478 299.506H66.7798V303.91C66.7798 305.398 67.5958 305.986 68.8078 305.986C69.8158 305.986 70.5118 305.398 70.7998 304.75H70.8238V305.83H71.8558V299.506H70.7758V302.926C70.7758 304.318 70.2238 305.098 69.0478 305.098C68.6278 305.098 68.2918 304.966 68.0758 304.678C67.8478 304.378 67.8478 303.85 67.8478 303.394V299.506ZM75.1486 302.902V302.23C75.1486 301.162 75.8326 300.214 76.9486 300.214C78.2446 300.214 78.6406 301.234 78.6406 302.578C78.6406 304.234 78.0886 305.134 76.9606 305.134C75.7606 305.134 75.1486 304.15 75.1486 302.902ZM74.1046 308.086H75.1846V304.906H75.2086C75.4486 305.47 76.1926 305.986 77.1166 305.986C78.5446 305.986 79.7326 304.882 79.7326 302.578C79.7326 300.178 78.5326 299.35 77.1886 299.35C76.2286 299.35 75.5446 299.89 75.1726 300.562H75.1486V299.506H74.1046V308.086ZM82.4845 302.902V302.23C82.4845 301.162 83.1685 300.214 84.2845 300.214C85.5805 300.214 85.9765 301.234 85.9765 302.578C85.9765 304.234 85.4245 305.134 84.2965 305.134C83.0965 305.134 82.4845 304.15 82.4845 302.902ZM81.4405 308.086H82.5205V304.906H82.5445C82.7845 305.47 83.5285 305.986 84.4525 305.986C85.8805 305.986 87.0685 304.882 87.0685 302.578C87.0685 300.178 85.8685 299.35 84.5245 299.35C83.5645 299.35 82.8805 299.89 82.5085 300.562H82.4845V299.506H81.4405V308.086ZM91.1496 305.986C92.9256 305.986 93.9936 304.642 93.9936 302.662C93.9936 300.706 93.0576 299.35 91.1736 299.35C89.4096 299.35 88.3296 300.706 88.3296 302.662C88.3296 304.642 89.2896 305.986 91.1496 305.986ZM91.1616 300.178C92.3736 300.178 92.8776 301.126 92.8776 302.662C92.8776 304.21 92.3616 305.146 91.1856 305.146C89.9616 305.146 89.4456 304.21 89.4456 302.662C89.4456 301.126 90.0096 300.178 91.1616 300.178ZM95.7022 305.83H96.7822V302.386C96.7822 301.162 97.5262 300.514 98.6542 300.514H98.8582V299.386H98.7502C97.8262 299.386 97.0342 300.034 96.7462 300.694H96.7222V299.506H95.7022V305.83ZM100.914 297.67V298.126C100.914 299.338 100.722 299.542 99.8695 299.542H99.6775V300.334H100.83V304.246C100.83 305.326 101.322 305.926 102.558 305.926C103.11 305.926 103.554 305.854 103.554 305.854V304.942C103.554 304.942 103.182 305.002 102.858 305.002C102.174 305.002 101.898 304.738 101.898 304.066V300.334H103.458V299.506H101.898V297.67H100.914Z" fill="black"/>
<rect width="60" height="40" transform="translate(165 280.83)" fill="#EDEDED"/>
<rect x="165" y="280.83" width="59.9999" height="40" fill="#EDEDED" stroke="black"/>
<path d="M182.449 301.918H177.994V303.011H182.449V301.918Z" fill="black"/>
<rect width="123" height="40" transform="translate(225 280.83)" fill="#EDEDED"/>
<path d="M225 280.83H348V320.83H225V280.83Z" fill="#EDEDED" stroke="black"/>
<path d="M240.504 302.46L244.059 306.021L252.504 295.735" stroke="black" stroke-width="1.3"/>
</svg>
