<svg width="24" height="24" viewBox="0 0 24 24" fill="none" xmlns="http://www.w3.org/2000/svg">
<path d="M21.7691 2.23077C21.6565 2.1187 21.5142 2.04111 21.359 2.00712C21.2038 1.97312 21.0422 1.98414 20.893 2.03888L2.53842 8.71329C2.38012 8.77333 2.24384 8.88011 2.14767 9.01944C2.05151 9.15877 2 9.32407 2 9.49336C2 9.66266 2.05151 9.82795 2.14767 9.96728C2.24384 10.1066 2.38012 10.2134 2.53842 10.2734L10.5477 13.4772L13.7514 21.4864C13.8116 21.6378 13.9148 21.7682 14.0482 21.8616C14.1817 21.955 14.3395 22.0073 14.5023 22.0121C14.6709 22.0086 14.8345 21.9541 14.9715 21.8558C15.1085 21.7575 15.2126 21.62 15.2699 21.4614L21.9443 3.10679C22.0011 2.95918 22.0148 2.79845 21.9838 2.64335C21.9528 2.48825 21.8783 2.34516 21.7691 2.23077ZM14.5023 18.8417L12.1746 13.0016L16.1709 9.0053L14.9945 7.82893L10.9649 11.8586L5.15812 9.49754L19.7834 4.21641L14.5023 18.8417Z" fill="white"/>
</svg>
