<svg width="20" height="22" viewBox="0 0 20 22" fill="none" xmlns="http://www.w3.org/2000/svg">
<path d="M19.7691 1.23077C19.6565 1.1187 19.5142 1.04111 19.359 1.00712C19.2038 0.973123 19.0422 0.984144 18.893 1.03888L0.538418 7.71329C0.380125 7.77333 0.243843 7.88011 0.147674 8.01944C0.0515052 8.15877 0 8.32407 0 8.49336C0 8.66266 0.0515052 8.82795 0.147674 8.96728C0.243843 9.10662 0.380125 9.2134 0.538418 9.27344L7.70507 12.1351L12.9945 6.82893L14.1709 8.0053L8.8564 13.3198L11.7264 20.4864C11.7882 20.6417 11.8952 20.7748 12.0336 20.8685C12.1719 20.9622 12.3352 21.0122 12.5023 21.0121C12.6709 21.0086 12.8345 20.9541 12.9715 20.8558C13.1085 20.7575 13.2126 20.62 13.2699 20.4614L19.9443 2.10679C20.0011 1.95918 20.0148 1.79845 19.9838 1.64335C19.9528 1.48825 19.8783 1.34516 19.7691 1.23077Z" fill="white"/>
</svg>
