<svg width="29" height="29" viewBox="0 0 29 29" fill="none" xmlns="http://www.w3.org/2000/svg">
<path fill-rule="evenodd" clip-rule="evenodd" d="M11.9983 28.5639C18.5908 28.5639 23.9349 23.2196 23.9349 16.6271C23.9349 10.0346 18.5907 4.69035 11.9983 4.69035C5.40576 4.69035 0.0615234 10.0346 0.0615234 16.6271C0.0615234 23.2196 5.40576 28.5639 11.9983 28.5639ZM8.29172 9.57616V9.35164V9.12712H9.08421H9.8767L10.1736 9.28091L10.4706 9.43468L10.472 10.7775L10.4733 12.1203L11.4967 12.1167C12.0595 12.1147 13.4545 12.1102 14.5967 12.1068L16.6735 12.1005L16.9778 12.4084C17.1451 12.5778 17.2816 12.718 17.2809 12.7201C17.2803 12.7222 16.6191 13.3878 15.8116 14.1992C13.5497 16.4719 13.4888 16.5333 13.5006 16.5299C13.5066 16.5282 13.5364 16.5176 13.5667 16.5065C13.7878 16.4254 14.0735 16.3639 14.225 16.3648C14.3902 16.3659 14.6727 16.4095 14.8779 16.4655C15.1293 16.5343 15.304 16.6049 15.5892 16.7531C15.7743 16.8493 15.8286 16.8802 15.9328 16.9487C16.1085 17.0641 16.2297 17.1632 16.3851 17.3186C16.5721 17.5056 16.6869 17.6542 16.8538 17.9252C17.0145 18.1862 17.1566 18.5001 17.244 18.7873C17.3493 19.1334 17.4196 19.5375 17.4487 19.9635C17.4625 20.1654 17.4565 20.4601 17.4337 20.6907C17.3795 21.2412 17.2138 21.8091 16.9628 22.3049C16.7279 22.7689 16.3814 23.16 15.9492 23.4491C15.6553 23.6456 15.2344 23.8333 14.8228 23.9513C14.2274 24.122 13.577 24.1689 12.9017 24.0898C12.2657 24.0153 11.7561 23.8201 11.3796 23.507C11.3094 23.4486 11.1271 23.268 11.0589 23.1891C10.7555 22.8385 10.5556 22.3915 10.4986 21.9358C10.4651 21.668 10.4752 21.4918 10.5344 21.3111C10.5956 21.1243 10.7063 20.9696 10.8645 20.8499C10.9802 20.7623 11.1411 20.7003 11.33 20.6705C11.4149 20.6571 11.5993 20.6572 11.6826 20.6706C11.9428 20.7126 12.1282 20.8048 12.2744 20.9647C12.4124 21.1155 12.5045 21.3246 12.5279 21.5403C12.5354 21.6091 12.5354 21.793 12.528 21.8533C12.4968 22.1051 12.3748 22.3447 12.2052 22.4873C12.1276 22.5526 12.0296 22.6107 11.9415 22.6439C11.9233 22.6507 11.9084 22.659 11.9084 22.6622C11.9084 22.6746 12.0022 22.7749 12.0613 22.8258C12.195 22.9407 12.3528 23.0279 12.5089 23.0728C12.8843 23.181 13.1696 23.2273 13.5033 23.2343C13.7887 23.2403 14.0019 23.2106 14.2471 23.1306C14.4516 23.0639 14.6765 22.9494 14.8268 22.8356C15.1233 22.611 15.3586 22.3081 15.5024 21.9658C15.6029 21.7265 15.7081 21.3406 15.7593 21.024C15.7991 20.7774 15.8108 20.6371 15.8172 20.3271C15.8254 19.9351 15.8121 19.7018 15.7647 19.4044C15.7032 19.0185 15.5664 18.569 15.4285 18.2998C15.2868 18.0234 15.0752 17.7754 14.8196 17.5864C14.4863 17.3398 14.0279 17.1886 13.608 17.1867C13.3047 17.1853 12.9259 17.2992 12.5998 17.4897C12.5292 17.531 11.7982 17.9031 11.7877 17.9031C11.786 17.9031 11.7845 17.8194 11.7845 17.717V17.531L13.4758 15.2624C14.406 14.0147 15.1671 12.9928 15.1671 12.9914C15.1671 12.9901 14.1116 12.9896 12.8216 12.9904L10.4761 12.9918V15.4378C10.4761 17.7409 10.4766 17.8884 10.4858 17.961C10.5153 18.1953 10.5862 18.4097 10.699 18.6057C10.7182 18.639 10.7443 18.6798 10.7572 18.6964C10.8878 18.8658 11.0691 18.9793 11.2872 19.0284C11.335 19.0392 11.3567 19.0405 11.4815 19.0405C11.6389 19.0404 11.6963 19.034 11.8203 19.0022C12.0462 18.9443 12.2158 18.8492 12.4621 18.6421C12.5504 18.5679 12.7131 18.4047 12.7868 18.3164C12.8674 18.2199 12.948 18.1101 12.9668 18.0714C12.9872 18.0292 13.032 17.9852 13.0768 17.9631C13.1097 17.9469 13.1149 17.946 13.1575 17.9484C13.2666 17.9545 13.3659 18.014 13.4205 18.1059C13.49 18.223 13.5017 18.3268 13.4652 18.504C13.4474 18.5903 13.4336 18.6271 13.3744 18.7451C13.2169 19.059 12.9835 19.3357 12.699 19.5457C12.4176 19.7535 12.0851 19.8801 11.7156 19.9203C11.5845 19.9346 11.2016 19.927 10.9581 19.9054C10.2079 19.8387 9.66443 19.6274 9.37194 19.2886C9.06135 18.9288 8.87517 18.4884 8.83161 18.0106C8.82802 17.9711 8.8261 17.0835 8.82611 15.4695L8.82613 12.989H7.63339H6.44066V12.5538V12.1186H7.63889H8.83712V11.12V10.1215L8.56442 9.84882L8.29172 9.57616Z" fill="black"/>
<rect x="11.75" y="0.376953" width="16.5" height="16.5" rx="8.25" fill="white"/>
<path d="M20.6908 10.867H21.9708L23.8208 8.28695L21.9708 5.71695H20.6908L22.1308 7.73695H17.7808L19.2108 5.71695H17.9408L16.0908 8.28695L17.9408 10.867H19.2108L17.7808 8.83695H22.1308L20.6908 10.867Z" fill="black"/>
<rect x="11.75" y="0.376953" width="16.5" height="16.5" rx="8.25" stroke="black" stroke-width="0.5"/>
</svg>
