<svg width="64" height="65" viewBox="0 0 64 65" fill="none" xmlns="http://www.w3.org/2000/svg">
<g clip-path="url(#clip0_4042_7419)">
<path d="M32.1019 1.53906C49.0669 1.53906 62.7812 15.2533 62.7812 32.2184C62.7812 49.1835 49.0669 62.8978 32.1019 62.8978C15.1367 62.8978 1.42243 49.1835 1.42243 32.2184C1.32084 15.2533 15.1367 1.53906 32.1019 1.53906Z" stroke="#1E1E1E" stroke-width="1.949"/>
<g clip-path="url(#clip1_4042_7419)">
<path fill-rule="evenodd" clip-rule="evenodd" d="M48.8169 19.9359L50.6341 30.8398V30.8406C51.0202 30.9217 51.3666 31.1332 51.6152 31.4394C51.8638 31.7457 51.9995 32.1282 51.9995 32.5227C51.9995 32.9171 51.8638 33.2996 51.6152 33.6059C51.3666 33.9122 51.0202 34.1236 50.6341 34.2047L48.8169 45.1086C49.0443 45.2438 49.2375 45.4297 49.3813 45.6517C49.5251 45.8738 49.6157 46.1261 49.646 46.3889C49.6764 46.6517 49.6456 46.918 49.5562 47.167C49.4668 47.4159 49.3211 47.6409 49.1304 47.8244C48.9398 48.0078 48.7094 48.1448 48.4572 48.2246C48.2049 48.3045 47.9377 48.325 47.6762 48.2846C47.4148 48.2442 47.1662 48.144 46.9498 47.9918C46.7334 47.8396 46.555 47.6395 46.4287 47.407L33.6669 49.0336C33.2341 50.7625 30.7654 50.7609 30.3326 49.0336L17.5708 47.407C17.4236 47.6786 17.2057 47.9053 16.9401 48.0631C16.6745 48.2208 16.3712 48.3038 16.0623 48.3031C14.3435 48.3031 13.6787 46.0055 15.1826 45.1078L13.3654 34.2039C12.9793 34.1228 12.6329 33.9114 12.3843 33.6051C12.1357 33.2988 12 32.9164 12 32.5219C12 32.1274 12.1357 31.7449 12.3843 31.4387C12.6329 31.1324 12.9793 30.9209 13.3654 30.8398L15.1826 19.9359C14.9552 19.8007 14.762 19.6149 14.6182 19.3928C14.4744 19.1707 14.3838 18.9185 14.3535 18.6557C14.3231 18.3928 14.3539 18.1266 14.4433 17.8776C14.5327 17.6286 14.6784 17.4036 14.8691 17.2202C15.0597 17.0367 15.2901 16.8997 15.5423 16.8199C15.7946 16.7401 16.0618 16.7196 16.3233 16.76C16.5847 16.8003 16.8333 16.9005 17.0497 17.0528C17.2661 17.205 17.4445 17.4051 17.5708 17.6375L30.3326 16.0109C30.7654 14.282 33.2341 14.2836 33.6669 16.0109L46.4287 17.6375C46.555 17.4051 46.7334 17.205 46.9498 17.0528C47.1662 16.9005 47.4148 16.8003 47.6762 16.76C47.9377 16.7196 48.2049 16.7401 48.4572 16.8199C48.7094 16.8997 48.9398 17.0367 49.1304 17.2202C49.3211 17.4036 49.4668 17.6286 49.5562 17.8776C49.6456 18.1266 49.6764 18.3928 49.646 18.6557C49.6157 18.9185 49.5251 19.1707 49.3813 19.3928C49.2375 19.6149 49.0443 19.8007 48.8169 19.9359ZM46.2693 18.8773L33.5083 17.2508C33.3137 17.6052 33.0011 17.8803 32.6248 18.0281V21.3451H37.1428L38.354 21.3424C40.1922 21.3382 41.3582 21.3355 42.1214 21.3451H44.1672L46.3623 19.15C46.3239 19.0618 46.2929 18.9706 46.2693 18.8773ZM45.3636 21.9174L47.249 20.032C47.3566 20.0798 47.4689 20.1162 47.5841 20.1406L49.4021 31.0445C49.0726 31.2397 48.8181 31.5399 48.6794 31.8969H45.3636V27.1154H18.5796V31.8969H15.3201C15.1819 31.5396 14.9276 31.2392 14.5982 31.0438L16.4162 20.1406C16.5312 20.1158 16.6435 20.0794 16.7513 20.032L18.6406 21.922V23.3702V23.8078C18.6404 23.8218 18.6403 23.8359 18.6404 23.85V24.9578H18.64V25.8894H45.3635V25.7546H45.3636V24.6742C45.3667 24.414 45.3693 24.183 45.3636 23.9719V21.9174ZM45.3636 33.1469V43.1259L47.2505 45.0109C47.3585 44.9636 47.4711 44.9274 47.5865 44.9031L49.4013 34C49.0719 33.8046 48.8176 33.5041 48.6794 33.1469H45.3636ZM44.186 43.7175H32.6248V47.0117C33.0016 47.1607 33.3143 47.4372 33.5083 47.793L46.2724 46.1664H46.2693C46.2929 46.0732 46.3239 45.982 46.3623 45.8938L44.186 43.7175ZM31.3748 43.7175H19.8135L17.6373 45.8938C17.6756 45.982 17.7066 46.0732 17.7302 46.1664L30.4912 47.793C30.6858 47.4385 30.9984 47.1635 31.3748 47.0156V43.7175ZM18.5796 43.1828V33.1469H15.3201C15.1816 33.5038 14.9274 33.8039 14.5982 33.9992L16.4162 44.9031C16.5315 44.9274 16.6441 44.9636 16.7521 45.0109L18.5796 43.1828ZM21.8955 21.3451H19.8323L17.6373 19.15C17.6756 19.0618 17.7066 18.9706 17.7302 18.8773H17.7271L30.4912 17.2508C30.6852 17.6066 30.9979 17.8831 31.3748 18.032V21.3451H26.781L25.6533 21.3427C23.8252 21.3386 22.6602 21.3361 21.8955 21.3451ZM21.3967 24.2284H20.2248V25.0096H21.3967V24.2284ZM22.1779 24.2284H23.3498V25.0096H22.1779V24.2284ZM25.3029 24.2284H24.1311V25.0096H25.3029V24.2284Z" fill="black"/>
</g>
</g>
<defs>
<clipPath id="clip0_4042_7419">
<rect width="64" height="64" fill="white" transform="translate(0 0.523438)"/>
</clipPath>
<clipPath id="clip1_4042_7419">
<rect width="40" height="35.625" fill="white" transform="translate(12 14.7109)"/>
</clipPath>
</defs>
</svg>
