<svg width="65" height="65" viewBox="0 0 65 65" fill="none" xmlns="http://www.w3.org/2000/svg">
<path d="M39.3088 1.62504C34.8055 0.506728 30.0669 0.346928 25.4559 1.33791C25.0996 1.4145 24.8731 1.76417 24.95 2.11893C25.0269 2.47369 25.3782 2.6992 25.7345 2.62261C30.1503 1.67357 34.699 1.83006 39.0257 2.90966C49.3727 5.49147 57.9853 13.2364 61.2656 23.3534C62.5342 27.266 63.0731 31.4321 63.181 35.7983C63.19 36.1611 63.4927 36.448 63.8571 36.4391C64.2216 36.4302 64.5097 36.1288 64.5008 35.766C64.3914 31.3399 63.8462 27.0666 62.5462 23.0249C59.1396 12.4331 50.138 4.31429 39.3088 1.62504Z" fill="black"/>
<path d="M22.1062 3.61327C22.4576 3.51676 22.6639 3.15489 22.5669 2.80503C22.47 2.45516 22.1065 2.24979 21.7551 2.3463C16.933 3.67067 10.1497 8.24683 5.9576 14.3602C5.95597 14.3626 5.95435 14.365 5.95275 14.3674C2.27179 19.89 -0.0356508 26.8301 0.60858 33.5645C0.609194 33.5709 0.609902 33.5773 0.610704 33.5837C0.7651 34.8134 1.02429 36.0407 1.28379 37.2696C1.83034 39.8577 2.37824 42.4523 1.95119 45.088C1.89313 45.4463 2.13783 45.7836 2.49773 45.8414C2.85763 45.8992 3.19644 45.6556 3.2545 45.2973C3.70091 42.5421 3.1466 39.8547 2.59218 37.1667C2.33578 35.9236 2.07935 34.6803 1.92187 33.4302C1.31596 27.0668 3.49842 20.4282 7.05036 15.0977C11.083 9.21894 17.6131 4.84726 22.1062 3.61327Z" fill="black"/>
<path d="M30.7681 5.08149C39.0554 4.57767 47.341 7.94479 52.9055 14.3956C53.143 14.6709 53.1113 15.0858 52.8347 15.3223C52.5582 15.5587 52.1414 15.5272 51.9039 15.2519C46.6123 9.1174 38.7279 5.91308 30.8446 6.39359C30.8418 6.39376 30.839 6.39391 30.8361 6.39405C20.8668 6.87429 11.5304 13.6073 8.0963 23.042C7.9721 23.3832 7.59357 23.5596 7.25082 23.4359C6.90808 23.3123 6.73092 22.9354 6.85512 22.5942C10.4728 12.6552 20.2766 5.58866 30.7681 5.08149Z" fill="black"/>
<path d="M54.9164 17.2665C54.7132 16.9652 54.3031 16.885 54.0004 17.0873C53.6978 17.2897 53.6172 17.6979 53.8205 17.9992C56.9052 22.5721 58.1807 27.5482 58.6849 33.4533C58.7158 33.815 59.0353 34.0832 59.3985 34.0525C59.7618 34.0217 60.0312 33.7036 60.0003 33.342C59.4851 27.3078 58.1697 22.0892 54.9164 17.2665Z" fill="black"/>
<path d="M59.559 36.132C59.9229 36.1094 60.2363 36.3847 60.259 36.7469C60.5078 40.7095 60.5101 45.1928 60.0698 48.5059C60.022 48.8657 59.6902 49.1188 59.3288 49.0712C58.9674 49.0236 58.7132 48.6933 58.761 48.3335C59.1854 45.1403 59.1877 40.7521 58.9414 36.8289C58.9187 36.4667 59.1952 36.1547 59.559 36.132Z" fill="black"/>
<path d="M7.09951 26.2249C7.18507 25.8721 6.96716 25.517 6.61279 25.4319C6.25842 25.3467 5.90179 25.5636 5.81623 25.9164C5.33174 27.9141 5.08023 29.9663 5.07027 32.0204C5.06 34.1376 5.45652 36.2041 5.8532 38.2715C6.1777 39.9627 6.5023 41.6545 6.6044 43.3748C6.73853 45.6347 6.26106 47.8979 5.43599 50.0519C5.3061 50.391 5.47693 50.7707 5.81755 50.9001C6.15818 51.0294 6.53961 50.8593 6.6695 50.5202C7.54162 48.2434 8.07025 45.7908 7.92226 43.2973C7.82086 41.5887 7.49629 39.9068 7.17184 38.2256C6.77595 36.1741 6.38024 34.1236 6.39041 32.0268C6.39988 30.0749 6.6389 28.1241 7.09951 26.2249Z" fill="black"/>
<path d="M24.4198 11.6217C24.5556 11.9585 24.3915 12.3411 24.0532 12.4764C17.21 15.2123 12.0712 21.3863 11.0229 28.6668C10.5849 31.7085 11.0581 34.7215 11.5311 37.7336C11.7975 39.4299 12.0639 41.126 12.1675 42.8268C12.392 46.5147 11.9701 50.5655 9.55925 54.2512C9.36031 54.5554 8.9514 54.6414 8.64591 54.4433C8.34042 54.2453 8.25404 53.8382 8.45297 53.534C10.6495 50.176 11.0653 46.4461 10.8497 42.9063C10.7446 41.1806 10.4799 39.4649 10.2154 37.7503C9.74078 34.674 9.26669 31.6011 9.71606 28.4803C10.8354 20.7067 16.3083 14.1565 23.5613 11.2567C23.8995 11.1215 24.2839 11.2849 24.4198 11.6217Z" fill="black"/>
<path d="M47.5924 15.363C42.1938 10.329 34.3692 8.5721 27.258 10.1249C26.9019 10.2027 26.6765 10.5531 26.7546 10.9076C26.8327 11.2621 27.1847 11.4865 27.5408 11.4087C34.2746 9.93829 41.6424 11.6157 46.69 16.3223C50.9444 20.2893 53.4149 26.0617 54.0616 32.3595C54.0987 32.7206 54.4227 32.9833 54.7854 32.9464C55.1481 32.9095 55.412 32.5869 55.3749 32.2259C54.7034 25.6863 52.1286 19.5928 47.5924 15.363Z" fill="black"/>
<path d="M55.2368 35.3555C55.5995 35.3184 55.9236 35.581 55.9609 35.942C56.5878 42.0187 56.3176 48.582 55.3712 54.9313C55.3177 55.2903 54.982 55.5381 54.6214 55.4848C54.2608 55.4316 54.0118 55.0974 54.0653 54.7384C54.9986 48.4773 55.2614 42.0255 54.6476 36.0763C54.6104 35.7153 54.8742 35.3926 55.2368 35.3555Z" fill="black"/>
<path d="M32.2239 14.037C22.109 14.037 13.8905 22.0708 13.8905 32.0035C13.8905 33.0645 13.9851 34.1041 14.1654 35.115C14.2291 35.4724 14.5718 35.7106 14.9307 35.6472C15.2896 35.5837 15.5289 35.2426 15.4652 34.8852C15.2983 33.9493 15.2107 32.9866 15.2107 32.0035C15.2107 22.8169 22.8176 15.3512 32.2239 15.3512C36.4746 15.3512 40.3583 16.8765 43.3393 19.3968C43.6171 19.6317 44.0337 19.5979 44.2697 19.3213C44.5057 19.0446 44.4717 18.6299 44.1938 18.395C40.9816 15.6791 36.7971 14.037 32.2239 14.037Z" fill="black"/>
<path d="M45.6728 20.8452C45.9359 20.594 46.3537 20.6027 46.6061 20.8646C49.5191 23.8889 50.4516 28.6421 51.0686 32.631C51.7636 37.1243 51.8697 41.5077 51.8697 43.5401C51.8697 43.903 51.5742 44.1972 51.2096 44.1972C50.8451 44.1972 50.5495 43.903 50.5495 43.5401C50.5495 41.5406 50.4444 37.2313 49.7638 32.8311C49.191 29.1278 48.3653 24.5899 45.6532 21.7743C45.4009 21.5124 45.4096 21.0964 45.6728 20.8452Z" fill="black"/>
<path d="M51.7021 47.3036C51.7311 46.9418 51.46 46.6251 51.0966 46.5963C50.7332 46.5674 50.4151 46.8373 50.3861 47.1991C50.0619 51.247 49.6384 55.2904 48.7789 59.0256C48.6975 59.3793 48.9195 59.7318 49.2749 59.8129C49.6302 59.8939 49.9843 59.6728 50.0657 59.3191C50.9478 55.4855 51.3771 51.3623 51.7021 47.3036Z" fill="black"/>
<path d="M15.2279 37.5337C15.5856 37.4635 15.9326 37.6954 16.0031 38.0515C17.3987 45.1074 16.4346 51.5171 12.7386 57.1318C12.5388 57.4353 12.1296 57.5202 11.8247 57.3212C11.5198 57.1223 11.4346 56.715 11.6344 56.4114C15.1119 51.1286 16.0478 45.0801 14.7078 38.3054C14.6373 37.9493 14.8702 37.6038 15.2279 37.5337Z" fill="black"/>
<path d="M32.2239 18.3127C25.6579 18.3127 19.2167 23.3727 18.5593 29.732C18.2715 32.5161 18.6758 35.2585 19.0803 38.002C19.4335 40.3976 19.7868 42.794 19.6795 45.2198C19.434 50.7715 17.7978 55.3542 14.9864 59.1287C14.7693 59.4202 14.8306 59.8318 15.1235 60.048C15.4163 60.2641 15.8297 60.2031 16.0469 59.9115C19.0287 55.9082 20.7423 51.0676 20.9984 45.2776C21.1052 42.8628 20.7508 40.474 20.3966 38.0867C19.9916 35.3568 19.5869 32.629 19.8725 29.8666C20.4501 24.28 26.2259 19.627 32.2239 19.627C35.0214 19.627 42.2596 21.1351 44.562 28.6021C46.0048 33.2814 46.3984 39.6142 46.0489 45.7665C45.6995 51.918 44.6124 57.8016 43.1507 61.5744C43.0195 61.9131 43.1889 62.2934 43.529 62.424C43.8691 62.5547 44.2512 62.386 44.3824 62.0474C45.9117 58.1002 47.0132 52.0677 47.3669 45.8407C47.7206 39.6146 47.3319 33.1065 45.824 28.2164C43.2682 19.9277 35.2565 18.3127 32.2239 18.3127Z" fill="black"/>
<path d="M22.0658 57.1328C22.3712 57.3311 22.4572 57.7382 22.2581 58.0422C21.8488 58.667 21.4887 59.3207 21.1286 59.9744C20.7685 60.6282 20.4084 61.282 19.999 61.9069C19.7998 62.2109 19.3908 62.2966 19.0855 62.0983C18.7801 61.9001 18.6941 61.4929 18.8932 61.1889C19.3025 60.5641 19.6626 59.9104 20.0227 59.2567C20.3828 58.6029 20.743 57.9491 21.1523 57.3242C21.3515 57.0202 21.7605 56.9345 22.0658 57.1328Z" fill="black"/>
<path d="M27.7179 25.1342C28.0209 24.9324 28.1022 24.5243 27.8995 24.2226C27.6969 23.9209 27.2869 23.8399 26.9839 24.0417C24.3701 25.7822 22.7665 28.1756 22.7665 31.6819C22.7665 33.7696 23.138 35.4762 23.519 37.2265C24.0892 39.8458 24.476 42.4593 24.4065 45.1496C24.3221 48.4165 23.68 51.4018 22.4458 54.2456C22.3012 54.5788 22.4553 54.9655 22.79 55.1095C23.1246 55.2534 23.5131 55.1 23.6577 54.7669C24.9627 51.76 25.6377 48.6082 25.7262 45.1834C25.7984 42.3878 25.4009 39.6708 24.8095 36.9486C24.4276 35.1906 24.0866 33.6211 24.0866 31.6819C24.0866 28.6777 25.4141 26.6682 27.7179 25.1342Z" fill="black"/>
<path d="M30.2942 22.8253C33.0333 22.2693 35.9808 22.9563 38.1504 24.7045C42.0256 27.8272 42.541 33.5219 42.9586 38.1366L42.9799 38.3717C43.5196 44.3201 42.9019 50.0979 41.6574 55.9003C41.5813 56.2552 41.2306 56.4815 40.874 56.4057C40.5175 56.3299 40.2902 55.9807 40.3663 55.6258C41.5921 49.9104 42.1896 44.2701 41.6651 38.4899C41.6478 38.2985 41.6305 38.1044 41.613 37.908L41.6128 37.9051C41.2418 33.735 40.7772 28.512 37.3198 25.7261C35.4649 24.2314 32.921 23.6334 30.5579 24.1131C30.2007 24.1856 29.8521 23.956 29.7792 23.6004C29.7064 23.2448 29.937 22.8977 30.2942 22.8253Z" fill="black"/>
<path d="M40.7245 59.1702C40.8144 58.8185 40.6009 58.4608 40.2477 58.3712C39.8944 58.2817 39.5351 58.4942 39.4451 58.8459C39.0461 60.4064 38.4312 61.8149 37.6515 63.1117C37.4643 63.4231 37.5661 63.8267 37.8789 64.0131C38.1917 64.1995 38.5971 64.0981 38.7843 63.7867C39.6245 62.3892 40.2915 60.8632 40.7245 59.1702Z" fill="black"/>
<path d="M37.4966 49.6338C37.8587 49.6764 38.1174 50.0032 38.0746 50.3636C37.4512 55.6083 36.0438 60.2859 33.7854 64.3429C33.6087 64.6603 33.207 64.7751 32.8881 64.5992C32.5693 64.4232 32.454 64.0233 32.6307 63.7058C34.792 59.8232 36.1566 55.3155 36.7636 50.2091C36.8064 49.8487 37.1346 49.5911 37.4966 49.6338Z" fill="black"/>
<path d="M37.3606 31.3372C36.903 28.9029 34.8043 27.0408 32.2566 27.0408C28.8066 27.0408 26.386 30.5028 27.239 33.7239C28.6823 39.4096 28.9192 44.8893 27.9422 50.1671L27.9415 50.171C27.0936 54.9096 25.4654 59.1725 23.2444 62.7848C23.0541 63.0943 23.1519 63.4989 23.4628 63.6883C23.7737 63.8778 24.1801 63.7805 24.3704 63.4709C26.6822 59.7109 28.3658 55.2925 29.2408 50.4034C30.2553 44.922 30.0039 39.2501 28.5181 33.3984L28.5163 33.3915C27.8765 30.9821 29.6599 28.3551 32.2566 28.3551C34.1305 28.3551 35.7128 29.7275 36.0621 31.5745C37.0229 37.1228 37.5234 42.2678 37.167 46.6976C37.1379 47.0594 37.4089 47.3762 37.7723 47.4051C38.1357 47.4341 38.4539 47.1643 38.483 46.8025C38.8523 42.211 38.331 36.9393 37.3623 31.3464C37.3617 31.3433 37.3612 31.3403 37.3606 31.3372Z" fill="black"/>
<path d="M30.2869 59.7988C30.6112 59.9647 30.739 60.3608 30.5724 60.6836L28.8233 64.0722C28.6567 64.395 28.2588 64.5222 27.9345 64.3564C27.6103 64.1905 27.4825 63.7943 27.6491 63.4715L29.3981 60.0829C29.5648 59.7601 29.9627 59.6329 30.2869 59.7988Z" fill="black"/>
<path d="M32.7475 31.9709C32.6641 31.6176 32.3089 31.3984 31.954 31.4814C31.5991 31.5644 31.379 31.9181 31.4623 32.2714C33.6883 41.7048 33.3826 49.9883 30.6712 57.0446C30.541 57.3836 30.7114 57.7635 31.0519 57.8932C31.3924 58.0228 31.774 57.8532 31.9043 57.5142C34.7313 50.1567 35.0187 41.5958 32.7475 31.9709Z" fill="black"/>
</svg>
