<svg width="25" height="25" viewBox="0 0 25 25" fill="none" xmlns="http://www.w3.org/2000/svg">
    <g clip-path="url(#clip0_6_2394)">
        <path fill-rule="evenodd" clip-rule="evenodd"
            d="M7.75306 14.2874C7.75307 14.2874 7.75307 14.2874 7.75307 14.2874C7.75931 14.2845 7.76555 14.2817 7.77179 14.2788C7.76554 14.2817 7.7593 14.2845 7.75306 14.2874ZM23.5954 24.585H21.7863L23.8366 24.3377C23.8374 24.3699 23.8317 24.4019 23.82 24.4319C23.8082 24.4619 23.7906 24.4892 23.7681 24.5122C23.7456 24.5352 23.7188 24.5536 23.6891 24.566C23.6594 24.5785 23.6276 24.585 23.5954 24.585ZM22.6247 20.307L22.6249 20.3074C23.1539 21.5561 23.442 22.8766 23.4838 24.235H21.8917C21.8039 21.8574 20.836 19.6331 19.1454 17.9425C17.3702 16.1673 15.0108 15.1897 12.4999 15.1897C9.98895 15.1897 7.62958 16.1673 5.85441 17.9425C4.16378 19.6331 3.19592 21.8574 3.1081 24.235H1.51581C1.55553 22.8852 1.84674 21.5543 2.37481 20.3107L2.37498 20.3103C2.92723 19.0053 3.72697 17.8196 4.73003 16.8186L4.73065 16.818C5.73892 15.8068 6.91304 15.0154 8.22186 14.4632L8.23159 14.4591L8.24469 14.454C8.25341 14.4504 8.26515 14.4454 8.27852 14.4387L8.79475 14.1806L8.32723 13.8422C6.53584 12.5453 5.3725 10.4388 5.3725 8.06235C5.3725 4.125 8.56253 0.934967 12.4999 0.934967C16.4372 0.934967 19.6273 4.125 19.6273 8.06235C19.6273 10.4389 18.4639 12.5452 16.6728 13.8389L16.2044 14.1773L16.7213 14.4357C16.7346 14.4424 16.7464 14.4474 16.7551 14.451L16.7685 14.4562L16.7776 14.4601C18.0826 15.0123 19.2683 15.812 20.2692 16.8151L20.27 16.8158C21.2738 17.8159 22.0736 19.0016 22.6247 20.307ZM8.58607 11.9762C9.63154 13.0216 11.023 13.5983 12.4999 13.5983C13.9767 13.5983 15.3682 13.0216 16.4137 11.9762C17.4592 10.9307 18.0358 9.5392 18.0358 8.06235C18.0358 6.58551 17.4592 5.194 16.4137 4.14854C15.3682 3.10307 13.9767 2.52642 12.4999 2.52642C11.023 2.52642 9.63154 3.10307 8.58607 4.14854C7.5406 5.194 6.96396 6.58551 6.96396 8.06235C6.96396 9.5392 7.5406 10.9307 8.58607 11.9762ZM8.122 14.1257C8.10141 14.1108 8.08089 14.0958 8.06046 14.0806L8.05317 14.0752C8.07602 14.0922 8.09896 14.109 8.122 14.1257Z"
            fill="black" />
    </g>
    <defs>
        <clipPath id="clip0_6_2394">
            <rect width="24" height="24" fill="white" transform="translate(0.5 0.584961)" />
        </clipPath>
    </defs>
</svg>
